M48
;Layer_Color=9474304
;FILE_FORMAT=2:4
INCH,TZ
;TYPE=PLATED
T1F00S00C0.0100
T2F00S00C0.0236
T3F00S00C0.0256
T4F00S00C0.0276
T5F00S00C0.0335
T6F00S00C0.0354
T7F00S00C0.0374
T8F00S00C0.0394
T9F00S00C0.0413
T10F00S00C0.0551
T11F00S00C0.1181
%
T01
X19250Y23000
X20650Y24900
T02
X20250Y27550
X27752Y29148
X27200Y24500
X14030Y30330
X19650Y36050
X22950Y37800
X26100Y37050
X31150Y35650
X29350Y33700
X31900Y35600
T03
X15650Y18666
X16750
X17850
X19000
X20150Y18650
X21300Y18666
X22500
X23700
X24800
X25900
X26950
Y20634
X25900
X24800
X23700
X22500
X21300
X20150Y20619
X19000Y20634
X17850
X16750
X15650
Y24416
X16750
X17850
X19000
Y26384
X17850
X16750
X15650
X14600
X13550
Y24416
X14600
Y20634
X13550
Y18666
X14600
T04
X32800Y22700
X34769
X34750Y25750
X32782
X32731Y28650
X34700
T05
X28424Y20850
Y23300
X30976
Y20850
T06
X29011Y26850
X30389
X29300Y31900
X28300
X27300
X26300
X24450
X23450
X22450
X21450
X19600
X18600
X17600
X16600
Y34900
X17600
X18600
X19600
X21450
X22450
X23450
X24450
X26300
X27300
X28300
X29300
X23900Y37650
Y38634
Y39618
X20650
Y38634
Y37650
X32426Y37400
X33450
X34474
X34500Y34850
X33476
X32453
X32426Y32250
X33450
X34474
T07
X27150Y36776
Y37800
Y38824
X29200Y38774
Y37750
Y36726
T08
X16916Y38800
X17900
T09
X21259Y24750
Y26250
Y27750
Y29250
X25541
Y27750
Y26250
Y24750
T10
X14482Y11600
X16450
X18419
X22531Y11550
X24500
X26469
X30550
X32518
X34487
T11
X36700Y25800
X12250
X12240Y41510
X36650Y41550
M30
