G04*
G04 #@! TF.GenerationSoftware,Altium Limited,Altium Designer,22.1.2 (22)*
G04*
G04 Layer_Physical_Order=2*
G04 Layer_Color=16711680*
%FSLAX25Y25*%
%MOIN*%
G70*
G04*
G04 #@! TF.SameCoordinates,46FB2184-AB63-4EF3-BAF8-E11F062B861E*
G04*
G04*
G04 #@! TF.FilePolarity,Positive*
G04*
G01*
G75*
%ADD14C,0.01000*%
%ADD17R,0.04528X0.04528*%
%ADD18C,0.04528*%
%ADD21C,0.05709*%
%ADD22R,0.05709X0.05709*%
%ADD24C,0.06299*%
%ADD25R,0.06299X0.06299*%
%ADD30C,0.06102*%
%ADD31R,0.06102X0.06102*%
%ADD33C,0.05512*%
%ADD34R,0.05512X0.05512*%
%ADD38C,0.00500*%
%ADD39C,0.05906*%
%ADD40R,0.05906X0.05906*%
%ADD41R,0.05512X0.05512*%
%ADD42R,0.04921X0.04921*%
%ADD43C,0.04921*%
%ADD44R,0.08268X0.08268*%
%ADD45C,0.08268*%
%ADD46C,0.05315*%
%ADD47C,0.01500*%
%ADD48C,0.05000*%
%ADD49C,0.12205*%
G36*
X371053Y425837D02*
X372760Y425130D01*
X374296Y424103D01*
X375603Y422796D01*
X376630Y421260D01*
X377337Y419553D01*
X377697Y417741D01*
Y416817D01*
X377697Y280000D01*
Y254697D01*
X355000Y232000D01*
Y107000D01*
X354000Y106000D01*
X131000D01*
Y189062D01*
X131462Y189254D01*
X132949Y187767D01*
X132925Y187724D01*
X132736Y187021D01*
Y186294D01*
X132925Y185591D01*
X133288Y184960D01*
X133803Y184446D01*
X134433Y184082D01*
X135136Y183894D01*
X135864D01*
X136567Y184082D01*
X137197Y184446D01*
X137712Y184960D01*
X138075Y185591D01*
X138264Y186294D01*
Y187021D01*
X138075Y187724D01*
X137712Y188355D01*
X137197Y188869D01*
X136567Y189233D01*
X135864Y189421D01*
X135136D01*
X134433Y189233D01*
X134391Y189208D01*
X131000Y192599D01*
Y217558D01*
X139616Y226174D01*
X192500D01*
X192890Y226252D01*
X193221Y226473D01*
X197589Y230840D01*
X198854Y232106D01*
X202812Y236064D01*
X203033Y236394D01*
X203059Y236526D01*
X210833Y244301D01*
X211182Y244099D01*
X212110Y243850D01*
X213071D01*
X213999Y244099D01*
X214831Y244580D01*
X215511Y245259D01*
X215721Y245622D01*
X216221Y245488D01*
Y236575D01*
X210024Y230379D01*
X200779Y221134D01*
X200558Y220803D01*
X200480Y220413D01*
Y208773D01*
X200433Y208760D01*
X199803Y208397D01*
X199288Y207882D01*
X198925Y207252D01*
X198736Y206549D01*
Y205821D01*
X198925Y205118D01*
X199288Y204488D01*
X199803Y203974D01*
X199859Y203941D01*
X199725Y203441D01*
X194344D01*
X192551Y205233D01*
X192575Y205276D01*
X192764Y205979D01*
Y206706D01*
X192575Y207409D01*
X192212Y208039D01*
X191697Y208554D01*
X191067Y208918D01*
X190364Y209106D01*
X189636D01*
X188933Y208918D01*
X188891Y208893D01*
X186957Y210827D01*
X186626Y211048D01*
X186236Y211126D01*
X139264D01*
X138874Y211048D01*
X138543Y210827D01*
X136822Y209106D01*
X132736D01*
Y203579D01*
X138264D01*
Y207664D01*
X139686Y209087D01*
X144226D01*
X144360Y208587D01*
X144303Y208554D01*
X143788Y208039D01*
X143425Y207409D01*
X143236Y206706D01*
Y205979D01*
X143425Y205276D01*
X143788Y204645D01*
X144303Y204131D01*
X144933Y203767D01*
X145636Y203579D01*
X146364D01*
X147067Y203767D01*
X147697Y204131D01*
X148212Y204645D01*
X148575Y205276D01*
X148764Y205979D01*
Y206706D01*
X148575Y207409D01*
X148212Y208039D01*
X147697Y208554D01*
X147641Y208587D01*
X147775Y209087D01*
X154726D01*
X154859Y208587D01*
X154803Y208554D01*
X154288Y208039D01*
X153925Y207409D01*
X153736Y206706D01*
Y206592D01*
X156500D01*
X159264D01*
Y206706D01*
X159075Y207409D01*
X158712Y208039D01*
X158197Y208554D01*
X158141Y208587D01*
X158274Y209087D01*
X164736D01*
Y203579D01*
X168822D01*
X177480Y194920D01*
Y189421D01*
X175736D01*
Y183894D01*
X181264D01*
Y189421D01*
X179520D01*
Y195343D01*
X179442Y195733D01*
X179221Y196063D01*
X170264Y205021D01*
Y209087D01*
X176725D01*
X176859Y208587D01*
X176803Y208554D01*
X176288Y208039D01*
X175925Y207409D01*
X175736Y206706D01*
Y205979D01*
X175925Y205276D01*
X176288Y204645D01*
X176803Y204131D01*
X177433Y203767D01*
X178136Y203579D01*
X178864D01*
X178955Y203603D01*
X184279Y198279D01*
X184610Y198058D01*
X185000Y197980D01*
X234174D01*
X234381Y197480D01*
X226109Y189208D01*
X226067Y189233D01*
X225364Y189421D01*
X224636D01*
X223933Y189233D01*
X223303Y188869D01*
X222788Y188355D01*
X222425Y187724D01*
X222236Y187021D01*
Y186294D01*
X222425Y185591D01*
X222788Y184960D01*
X223303Y184446D01*
X223933Y184082D01*
X224636Y183894D01*
X225364D01*
X226067Y184082D01*
X226697Y184446D01*
X227212Y184960D01*
X227575Y185591D01*
X227764Y186294D01*
Y187021D01*
X227575Y187724D01*
X227551Y187767D01*
X235820Y196036D01*
X278679D01*
X279069Y196113D01*
X279400Y196334D01*
X288622Y205557D01*
X288844Y205888D01*
X288921Y206278D01*
Y219170D01*
X288844Y219560D01*
X288622Y219891D01*
X281520Y226994D01*
Y230552D01*
X282020Y230759D01*
X282305Y230473D01*
X283025Y230058D01*
X283828Y229842D01*
X284660D01*
X285463Y230058D01*
X286183Y230473D01*
X286588Y230879D01*
X286771Y231061D01*
X287186Y231781D01*
X287402Y232584D01*
Y232896D01*
D01*
Y233416D01*
X287186Y234219D01*
X286771Y234939D01*
X286183Y235527D01*
X285463Y235942D01*
X285009Y236064D01*
Y256025D01*
X284951Y256318D01*
X284785Y256566D01*
X256174Y285177D01*
Y288850D01*
X259059D01*
Y296150D01*
X251760D01*
Y288850D01*
X254645D01*
Y284860D01*
X254703Y284567D01*
X254869Y284319D01*
X257576Y281611D01*
X257385Y281150D01*
X251760D01*
Y275524D01*
X251298Y275333D01*
X246472Y280159D01*
Y307957D01*
X246414Y308250D01*
X246248Y308498D01*
X246000Y308664D01*
X245898Y308684D01*
X240511Y314071D01*
X240702Y314532D01*
X246034D01*
X246326Y314591D01*
X246574Y314756D01*
X249041Y317223D01*
X249207Y317471D01*
X249265Y317764D01*
Y339420D01*
X259047Y349202D01*
X259547Y348995D01*
Y348545D01*
X259783Y347667D01*
X260237Y346880D01*
X260880Y346237D01*
X261050Y346139D01*
X261115Y345643D01*
X253279Y337807D01*
X253058Y337476D01*
X252980Y337086D01*
Y304610D01*
X253058Y304220D01*
X253279Y303889D01*
X286854Y270314D01*
Y265244D01*
X293366D01*
Y271756D01*
X288296D01*
X255020Y305033D01*
Y336664D01*
X262932Y344576D01*
X263153Y344907D01*
X263231Y345297D01*
X263436Y345547D01*
X263455D01*
X264333Y345782D01*
X265120Y346237D01*
X265763Y346880D01*
X266217Y347667D01*
X266453Y348545D01*
Y349455D01*
X266217Y350333D01*
X265763Y351120D01*
X265120Y351763D01*
X264333Y352218D01*
X263455Y352453D01*
X263005D01*
X262798Y352953D01*
X268830Y358985D01*
X309036D01*
X309243Y358485D01*
X309099Y358342D01*
X308704Y357658D01*
X308500Y356895D01*
Y356105D01*
X308704Y355342D01*
X309099Y354658D01*
X309658Y354099D01*
X310342Y353704D01*
X311105Y353500D01*
X311895D01*
X312658Y353704D01*
X313342Y354099D01*
X313901Y354658D01*
X314296Y355342D01*
X314500Y356105D01*
Y356895D01*
X314296Y357658D01*
X314107Y357985D01*
X314395Y358485D01*
X316536D01*
X316743Y357985D01*
X316599Y357842D01*
X316204Y357158D01*
X316000Y356395D01*
Y355605D01*
X316204Y354842D01*
X316599Y354158D01*
X317158Y353599D01*
X317842Y353204D01*
X318605Y353000D01*
X319395D01*
X320158Y353204D01*
X320842Y353599D01*
X321401Y354158D01*
X321796Y354842D01*
X321901Y355235D01*
X323283D01*
X326301Y352218D01*
X326109Y351756D01*
X321272D01*
Y346325D01*
X296031Y321085D01*
X295763Y321120D01*
X295120Y321763D01*
X294333Y322217D01*
X293455Y322453D01*
X292545D01*
X291667Y322217D01*
X290880Y321763D01*
X290237Y321120D01*
X289783Y320333D01*
X289547Y319455D01*
Y318545D01*
X289783Y317667D01*
X290237Y316880D01*
X290880Y316237D01*
X291667Y315782D01*
X291734Y315765D01*
X291668Y315265D01*
X284332D01*
X284266Y315765D01*
X284333Y315782D01*
X285120Y316237D01*
X285763Y316880D01*
X286217Y317667D01*
X286453Y318545D01*
Y319455D01*
X286217Y320333D01*
X285763Y321120D01*
X285120Y321763D01*
X284333Y322217D01*
X283455Y322453D01*
X282545D01*
X281667Y322217D01*
X280880Y321763D01*
X280237Y321120D01*
X279783Y320333D01*
X279547Y319455D01*
Y319117D01*
X279085Y318914D01*
X278765Y319168D01*
Y319236D01*
X278707Y319529D01*
X278541Y319777D01*
X275074Y323243D01*
X274826Y323409D01*
X274534Y323467D01*
X266703D01*
X266410Y323409D01*
X266162Y323243D01*
X265371Y322453D01*
X263250D01*
Y319250D01*
X266453D01*
Y321371D01*
X267020Y321938D01*
X270348D01*
X270555Y321438D01*
X270237Y321120D01*
X269782Y320333D01*
X269547Y319455D01*
Y318545D01*
X269782Y317667D01*
X270237Y316880D01*
X270880Y316237D01*
X271667Y315782D01*
X272545Y315547D01*
X273455D01*
X274333Y315782D01*
X274842Y316077D01*
X276235Y314683D01*
Y294206D01*
X275676Y293883D01*
X275117Y293324D01*
X274722Y292640D01*
X274518Y291877D01*
Y291087D01*
X274722Y290324D01*
X275117Y289640D01*
X275676Y289082D01*
X276360Y288687D01*
X277123Y288482D01*
X277913D01*
X278676Y288687D01*
X279360Y289082D01*
X279918Y289640D01*
X280313Y290324D01*
X280518Y291087D01*
Y291235D01*
X321498D01*
X324752Y287982D01*
X324556Y287643D01*
X324354Y286890D01*
Y286110D01*
X324556Y285357D01*
X324946Y284682D01*
X325497Y284131D01*
X326172Y283741D01*
X326925Y283539D01*
X327705D01*
X328458Y283741D01*
X329133Y284131D01*
X329684Y284682D01*
X330074Y285357D01*
X330276Y286110D01*
Y286890D01*
X330074Y287643D01*
X329684Y288318D01*
X329133Y288869D01*
X328458Y289259D01*
X327705Y289461D01*
X326925D01*
X326172Y289259D01*
X325833Y289063D01*
X322356Y292541D01*
X322108Y292706D01*
X321815Y292765D01*
X280241D01*
X279918Y293324D01*
X279360Y293883D01*
X278676Y294278D01*
X277913Y294482D01*
X277765D01*
Y315000D01*
X277707Y315293D01*
X277541Y315541D01*
X277541Y315541D01*
X275923Y317158D01*
X276218Y317667D01*
X276453Y318545D01*
Y318883D01*
X276915Y319086D01*
X277235Y318832D01*
Y318763D01*
X277293Y318471D01*
X277459Y318223D01*
X281723Y313959D01*
X281971Y313793D01*
X282263Y313735D01*
X336736D01*
X337029Y313793D01*
X337277Y313959D01*
X343038Y319721D01*
X343479Y319466D01*
X344308Y319244D01*
X344486D01*
Y322250D01*
X341480D01*
Y322071D01*
X341702Y321243D01*
X341957Y320802D01*
X336420Y315265D01*
X294332D01*
X294266Y315765D01*
X294333Y315782D01*
X295120Y316237D01*
X295763Y316880D01*
X296217Y317667D01*
X296453Y318545D01*
Y319393D01*
X296603Y319494D01*
X322353Y345244D01*
X327269D01*
Y326586D01*
X326438Y325756D01*
X321008D01*
Y319244D01*
X327520D01*
Y324675D01*
X328574Y325729D01*
X328740Y325977D01*
X328798Y326270D01*
X328798Y326270D01*
Y351567D01*
X328798Y351567D01*
X328740Y351859D01*
X328574Y352107D01*
X324141Y356541D01*
X323893Y356707D01*
X323600Y356765D01*
X321901D01*
X321796Y357158D01*
X321401Y357842D01*
X321257Y357985D01*
X321464Y358485D01*
X338891D01*
X345121Y352256D01*
X344914Y351756D01*
X344571D01*
X343743Y351534D01*
X343001Y351105D01*
X342395Y350499D01*
X341966Y349757D01*
X341744Y348929D01*
Y348750D01*
X345000D01*
Y348500D01*
X345250D01*
Y345244D01*
X345429D01*
X346257Y345466D01*
X346999Y345895D01*
X347241Y346137D01*
X347741Y345930D01*
Y336823D01*
X336198Y325279D01*
X335757Y325534D01*
X334929Y325756D01*
X334071D01*
X333243Y325534D01*
X332501Y325105D01*
X331895Y324499D01*
X331466Y323757D01*
X331244Y322929D01*
Y322071D01*
X331466Y321243D01*
X331895Y320501D01*
X332501Y319895D01*
X333243Y319466D01*
X334071Y319244D01*
X334929D01*
X335757Y319466D01*
X336499Y319895D01*
X337105Y320501D01*
X337534Y321243D01*
X337756Y322071D01*
Y322929D01*
X337534Y323757D01*
X337279Y324198D01*
X349047Y335965D01*
X349212Y336213D01*
X349271Y336506D01*
X349271Y336506D01*
Y349952D01*
X349212Y350245D01*
X349047Y350493D01*
X339749Y359791D01*
X339501Y359957D01*
X339208Y360015D01*
X313700D01*
X313407Y359957D01*
X313159Y359791D01*
X313159Y359791D01*
X312662Y359293D01*
X312658Y359296D01*
X312205Y359417D01*
X312056Y359975D01*
X315541Y363459D01*
X315706Y363707D01*
X315765Y364000D01*
X315765Y364000D01*
Y369683D01*
X319317Y373235D01*
X321008D01*
Y370744D01*
X327520D01*
Y377256D01*
X321008D01*
Y374765D01*
X319000D01*
X318707Y374707D01*
X318459Y374541D01*
X318459Y374541D01*
X314459Y370541D01*
X314294Y370293D01*
X314235Y370000D01*
Y364317D01*
X310433Y360515D01*
X268514D01*
X268513Y360515D01*
X268221Y360456D01*
X267973Y360291D01*
X262227Y354545D01*
X261765Y354736D01*
Y370500D01*
X261706Y370793D01*
X261541Y371041D01*
X261293Y371206D01*
X261000Y371265D01*
X260707Y371206D01*
X260459Y371041D01*
X260294Y370793D01*
X260235Y370500D01*
Y353967D01*
X246960Y340692D01*
X246794Y340444D01*
X246736Y340151D01*
Y322317D01*
X246342Y321923D01*
X245833Y322217D01*
X244955Y322453D01*
X244750D01*
Y319000D01*
X244500D01*
Y318750D01*
X241047D01*
Y318545D01*
X241283Y317667D01*
X241737Y316880D01*
X242055Y316562D01*
X241848Y316062D01*
X239934D01*
X237846Y318149D01*
X237953Y318545D01*
Y319455D01*
X237718Y320333D01*
X237263Y321120D01*
X236620Y321763D01*
X235833Y322217D01*
X234955Y322453D01*
X234045D01*
X233167Y322217D01*
X232380Y321763D01*
X231737Y321120D01*
X231282Y320333D01*
X231047Y319455D01*
Y318545D01*
X231282Y317667D01*
X231737Y316880D01*
X232380Y316237D01*
X233167Y315782D01*
X234045Y315547D01*
X234955D01*
X235833Y315782D01*
X236342Y316077D01*
X244942Y307476D01*
Y279842D01*
X245001Y279550D01*
X245166Y279302D01*
X255087Y269381D01*
X254896Y268919D01*
X247523D01*
X221722Y294720D01*
Y313280D01*
X222124Y313682D01*
X222242Y313859D01*
X222411Y314028D01*
X226137D01*
X226528Y314105D01*
X226858Y314326D01*
X229174Y316642D01*
X229395Y316972D01*
X229472Y317363D01*
Y320637D01*
X229395Y321027D01*
X229174Y321358D01*
X226858Y323674D01*
X226528Y323895D01*
X226137Y323972D01*
X222863D01*
X222473Y323895D01*
X222395Y323843D01*
X221989Y323802D01*
X221758Y323997D01*
X221674Y324124D01*
X221270Y324528D01*
Y326932D01*
X221192Y327322D01*
X220971Y327653D01*
X210153Y338471D01*
X209822Y338692D01*
X209432Y338770D01*
X204026D01*
X197481Y345314D01*
X197467Y345360D01*
X197569Y345919D01*
X198120Y346237D01*
X198763Y346880D01*
X199217Y347667D01*
X199453Y348545D01*
Y349455D01*
X199217Y350333D01*
X198763Y351120D01*
X198120Y351763D01*
X197333Y352218D01*
X196455Y352453D01*
X195545D01*
X194667Y352218D01*
X193880Y351763D01*
X193237Y351120D01*
X192782Y350333D01*
X192547Y349455D01*
Y348940D01*
X192085Y348737D01*
X191765Y348991D01*
Y351000D01*
X191765Y351000D01*
X191707Y351293D01*
X191541Y351541D01*
X191541Y351541D01*
X189838Y353243D01*
X189590Y353409D01*
X189297Y353467D01*
X179703D01*
X179410Y353409D01*
X179162Y353243D01*
X177842Y351923D01*
X177333Y352218D01*
X176455Y352453D01*
X175545D01*
X174667Y352218D01*
X173880Y351763D01*
X173237Y351120D01*
X172783Y350333D01*
X172547Y349455D01*
X172062Y349490D01*
Y352481D01*
X184317Y364735D01*
X187000D01*
X187293Y364793D01*
X187541Y364959D01*
X198317Y375735D01*
X203244D01*
Y373244D01*
X209756D01*
Y379756D01*
X203244D01*
Y377265D01*
X198000D01*
X197707Y377206D01*
X197459Y377041D01*
X186683Y366265D01*
X184000D01*
X184000Y366265D01*
X183707Y366207D01*
X183459Y366041D01*
X183459Y366041D01*
X180227Y362808D01*
X179765Y362999D01*
Y384528D01*
X180371Y384691D01*
X181181Y385158D01*
X181842Y385820D01*
X182309Y386629D01*
X182551Y387532D01*
Y387750D01*
X175449D01*
Y387532D01*
X175691Y386629D01*
X176158Y385820D01*
X176820Y385158D01*
X177629Y384691D01*
X178235Y384528D01*
Y362317D01*
X167842Y351923D01*
X167333Y352218D01*
X166455Y352453D01*
X166250D01*
Y349250D01*
X169453D01*
Y349455D01*
X169218Y350333D01*
X168923Y350842D01*
X170071Y351989D01*
X170533Y351798D01*
Y271045D01*
X170591Y270753D01*
X170756Y270505D01*
X175736Y265525D01*
Y261079D01*
X180749D01*
Y247488D01*
X179838Y246576D01*
X179567Y246733D01*
X178864Y246921D01*
X178136D01*
X177433Y246733D01*
X176803Y246369D01*
X176288Y245854D01*
X175925Y245224D01*
X175736Y244521D01*
Y243794D01*
X175925Y243091D01*
X176288Y242460D01*
X176803Y241946D01*
X177433Y241582D01*
X178136Y241394D01*
X178864D01*
X179567Y241582D01*
X180197Y241946D01*
X180712Y242460D01*
X181075Y243091D01*
X181264Y243794D01*
Y244521D01*
X181075Y245224D01*
X180919Y245495D01*
X182054Y246631D01*
X182220Y246879D01*
X182279Y247171D01*
Y279789D01*
X182279Y279789D01*
X182220Y280082D01*
X182054Y280330D01*
X182054Y280330D01*
X173062Y289322D01*
Y316348D01*
X173562Y316555D01*
X173880Y316237D01*
X174667Y315782D01*
X174980Y315699D01*
Y292515D01*
X175058Y292125D01*
X175279Y291794D01*
X216221Y250852D01*
Y249512D01*
X215721Y249378D01*
X215511Y249741D01*
X214831Y250420D01*
X213999Y250901D01*
X213071Y251150D01*
X212110D01*
X211182Y250901D01*
X210350Y250420D01*
X209670Y249741D01*
X209190Y248909D01*
X208941Y247980D01*
Y247020D01*
X209190Y246091D01*
X209391Y245743D01*
X208020Y244371D01*
X207520Y244578D01*
Y247920D01*
X207758Y248159D01*
X207984Y248705D01*
Y249295D01*
X207758Y249841D01*
X207341Y250258D01*
X206795Y250484D01*
X206205D01*
X205659Y250258D01*
X205242Y249841D01*
X205016Y249295D01*
Y248705D01*
X205242Y248159D01*
X205480Y247920D01*
Y244422D01*
X192542Y231484D01*
X192205D01*
X192155Y231464D01*
D01*
X191659Y231258D01*
X191242Y230841D01*
X191016Y230295D01*
Y229705D01*
X191242Y229159D01*
X191659Y228742D01*
X191728Y228713D01*
X191628Y228213D01*
X139194D01*
X138804Y228136D01*
X138473Y227915D01*
X131462Y220904D01*
X131000Y221095D01*
Y230757D01*
X111303Y250454D01*
Y415101D01*
Y415828D01*
X111493Y417270D01*
X111869Y418675D01*
X112426Y420019D01*
X113153Y421279D01*
X114039Y422433D01*
X115067Y423461D01*
X116221Y424347D01*
X117481Y425074D01*
X118825Y425631D01*
X120229Y426007D01*
X121672Y426197D01*
X369241D01*
X371053Y425837D01*
D02*
G37*
G36*
X183555Y351438D02*
X183237Y351120D01*
X182782Y350333D01*
X182547Y349455D01*
Y348545D01*
X182782Y347667D01*
X183237Y346880D01*
X183880Y346237D01*
X184667Y345782D01*
X185545Y345547D01*
X186455D01*
X187333Y345782D01*
X188120Y346237D01*
X188763Y346880D01*
X188968Y347235D01*
X189683D01*
X201959Y334959D01*
X202207Y334793D01*
X202500Y334735D01*
X208183D01*
X217235Y325683D01*
Y322466D01*
X217224Y322453D01*
X212129D01*
X211338Y323243D01*
X211090Y323409D01*
X210797Y323467D01*
X174466D01*
X174174Y323409D01*
X173925Y323243D01*
X172524Y321842D01*
X172062Y322033D01*
Y348510D01*
X172547Y348545D01*
X172783Y347667D01*
X173237Y346880D01*
X173880Y346237D01*
X174667Y345782D01*
X175545Y345547D01*
X176455D01*
X177333Y345782D01*
X178120Y346237D01*
X178763Y346880D01*
X179218Y347667D01*
X179453Y348545D01*
Y349455D01*
X179218Y350333D01*
X178923Y350842D01*
X180019Y351938D01*
X183348D01*
X183555Y351438D01*
D02*
G37*
G36*
X211047Y321371D02*
Y315547D01*
X217138D01*
X217188Y315487D01*
Y283179D01*
X214577Y280568D01*
X213999Y280901D01*
X213071Y281150D01*
X212110D01*
X211182Y280901D01*
X210350Y280420D01*
X209670Y279741D01*
X209190Y278909D01*
X208941Y277980D01*
Y277020D01*
X209190Y276091D01*
X209670Y275259D01*
X210350Y274580D01*
X211182Y274099D01*
X212110Y273850D01*
X213071D01*
X213999Y274099D01*
X214831Y274580D01*
X215511Y275259D01*
X215991Y276091D01*
X216240Y277020D01*
Y277980D01*
X215991Y278909D01*
X215658Y279486D01*
X218494Y282322D01*
X218659Y282570D01*
X218718Y282862D01*
Y292066D01*
X219179Y292257D01*
X250240Y261196D01*
Y258936D01*
X250318Y258546D01*
X250539Y258215D01*
X251125Y257629D01*
X251455Y257408D01*
X251846Y257331D01*
X258973D01*
X259364Y257408D01*
X259471Y257480D01*
X266347D01*
X275480Y248347D01*
Y245534D01*
X274980Y245468D01*
X274796Y246158D01*
X274401Y246842D01*
X273842Y247401D01*
X273158Y247796D01*
X272395Y248000D01*
X271605D01*
X270842Y247796D01*
X270158Y247401D01*
X269599Y246842D01*
X269204Y246158D01*
X269000Y245395D01*
Y244605D01*
X269204Y243842D01*
X269599Y243158D01*
X270158Y242599D01*
X270842Y242204D01*
X271605Y242000D01*
X272395D01*
X273158Y242204D01*
X273842Y242599D01*
X274401Y243158D01*
X274796Y243842D01*
X274980Y244532D01*
X275480Y244466D01*
Y230379D01*
Y216008D01*
X269693Y210221D01*
X269685Y210209D01*
X269599Y210192D01*
X269268Y209971D01*
X268403Y209106D01*
X266736D01*
Y207362D01*
X261764D01*
Y209106D01*
X256236D01*
Y203579D01*
X255761Y203520D01*
X252265D01*
X250764Y205021D01*
Y209106D01*
X245236D01*
Y203579D01*
X249322D01*
X251122Y201779D01*
X251452Y201558D01*
X251842Y201480D01*
X268939D01*
X268948Y201482D01*
X274248D01*
X274639Y201560D01*
X274969Y201781D01*
X275796Y202608D01*
X275796Y202608D01*
X278471Y205282D01*
X278692Y205613D01*
X278770Y206003D01*
Y212240D01*
X279232Y212431D01*
X281537Y210126D01*
X281302Y209719D01*
X281087Y208916D01*
Y208084D01*
X281302Y207281D01*
X281405Y207103D01*
X274322Y200020D01*
X185422D01*
X180743Y204699D01*
X181075Y205276D01*
X181264Y205979D01*
Y206706D01*
X181075Y207409D01*
X180712Y208039D01*
X180197Y208554D01*
X180140Y208587D01*
X180274Y209087D01*
X185814D01*
X187449Y207452D01*
X187425Y207409D01*
X187236Y206706D01*
Y205979D01*
X187425Y205276D01*
X187788Y204645D01*
X188303Y204131D01*
X188933Y203767D01*
X189636Y203579D01*
X190364D01*
X191067Y203767D01*
X191109Y203791D01*
X193200Y201700D01*
X193531Y201479D01*
X193921Y201402D01*
X227728D01*
X228118Y201479D01*
X228449Y201700D01*
X232071Y205323D01*
X234236D01*
Y203579D01*
X239764D01*
Y209106D01*
X234236D01*
Y207362D01*
X231649D01*
X231259Y207284D01*
X230928Y207064D01*
X228226Y204361D01*
X227764Y204553D01*
Y209106D01*
X222236D01*
Y203579D01*
X221793Y203441D01*
X216207D01*
X215764Y203579D01*
X215764Y203941D01*
Y209106D01*
X210236D01*
X210236Y203579D01*
X209793Y203441D01*
X203274D01*
X203140Y203941D01*
X203197Y203974D01*
X203712Y204488D01*
X204075Y205118D01*
X204264Y205821D01*
Y206549D01*
X204075Y207252D01*
X203712Y207882D01*
X203197Y208397D01*
X202567Y208760D01*
X202520Y208773D01*
Y219990D01*
X213370Y230840D01*
X214777Y232248D01*
D01*
X217961Y235432D01*
X218182Y235763D01*
X218260Y236153D01*
Y251275D01*
X218182Y251665D01*
X217961Y251996D01*
X211446Y258511D01*
X211705Y258959D01*
X212110Y258850D01*
X213071D01*
X213999Y259099D01*
X214831Y259580D01*
X215511Y260259D01*
X215991Y261091D01*
X216164Y261735D01*
X240093D01*
X251760Y250068D01*
Y243850D01*
X259059D01*
Y251150D01*
X252841D01*
X240950Y263041D01*
X240702Y263207D01*
X240409Y263265D01*
X216164D01*
X215991Y263909D01*
X215511Y264741D01*
X214831Y265420D01*
X213999Y265901D01*
X213071Y266150D01*
X212110D01*
X211182Y265901D01*
X210350Y265420D01*
X209670Y264741D01*
X209190Y263909D01*
X208941Y262981D01*
Y262019D01*
X209049Y261615D01*
X208601Y261356D01*
X177020Y292937D01*
Y315699D01*
X177333Y315782D01*
X178120Y316237D01*
X178763Y316880D01*
X179218Y317667D01*
X179453Y318545D01*
Y319455D01*
X179218Y320333D01*
X178763Y321120D01*
X178445Y321438D01*
X178652Y321938D01*
X183348D01*
X183555Y321438D01*
X183237Y321120D01*
X182782Y320333D01*
X182547Y319455D01*
Y318545D01*
X182782Y317667D01*
X183237Y316880D01*
X183880Y316237D01*
X184667Y315782D01*
X185235Y315630D01*
Y292000D01*
X185293Y291707D01*
X185459Y291459D01*
X199908Y277011D01*
X199704Y276658D01*
X199500Y275895D01*
Y275105D01*
X199704Y274342D01*
X200099Y273658D01*
X200658Y273099D01*
X201342Y272704D01*
X202105Y272500D01*
X202895D01*
X203658Y272704D01*
X204342Y273099D01*
X204901Y273658D01*
X205296Y274342D01*
X205500Y275105D01*
Y275895D01*
X205296Y276658D01*
X204901Y277342D01*
X204342Y277901D01*
X203658Y278296D01*
X202895Y278500D01*
X202105D01*
X201342Y278296D01*
X200989Y278092D01*
X186765Y292317D01*
Y315630D01*
X187333Y315782D01*
X188120Y316237D01*
X188763Y316880D01*
X189217Y317667D01*
X189453Y318545D01*
Y319455D01*
X189217Y320333D01*
X188763Y321120D01*
X188445Y321438D01*
X188652Y321938D01*
X193348D01*
X193555Y321438D01*
X193237Y321120D01*
X192782Y320333D01*
X192547Y319455D01*
Y318545D01*
X192782Y317667D01*
X193237Y316880D01*
X193880Y316237D01*
X194667Y315782D01*
X195545Y315547D01*
X196455D01*
X197333Y315782D01*
X198120Y316237D01*
X198763Y316880D01*
X199217Y317667D01*
X199453Y318545D01*
Y319455D01*
X199217Y320333D01*
X198763Y321120D01*
X198445Y321438D01*
X198652Y321938D01*
X210480D01*
X211047Y321371D01*
D02*
G37*
G36*
X180749Y279472D02*
Y266606D01*
X176818D01*
X172062Y271362D01*
Y287506D01*
X172524Y287698D01*
X180749Y279472D01*
D02*
G37*
G36*
X265967Y259981D02*
X265776Y259520D01*
X259123D01*
X259059Y259572D01*
Y266150D01*
X251760D01*
Y263214D01*
X251298Y263023D01*
X247902Y266418D01*
X248094Y266880D01*
X259069D01*
X265967Y259981D01*
D02*
G37*
G36*
X279480Y251987D02*
Y251413D01*
X279018Y251221D01*
X260549Y269690D01*
X260301Y269856D01*
X260009Y269914D01*
X256717D01*
X253242Y273389D01*
X253434Y273850D01*
X257617D01*
X279480Y251987D01*
D02*
G37*
G36*
X283479Y255709D02*
Y236064D01*
X283025Y235942D01*
X282305Y235527D01*
X282020Y235241D01*
X281520Y235448D01*
Y252410D01*
X281442Y252800D01*
X281221Y253130D01*
X259059Y275292D01*
Y279476D01*
X259521Y279667D01*
X283479Y255709D01*
D02*
G37*
G36*
X286882Y218748D02*
Y211035D01*
X286382Y210827D01*
X286183Y211027D01*
X285463Y211442D01*
X284660Y211658D01*
X283828D01*
X283025Y211442D01*
X282618Y211207D01*
X280015Y213811D01*
Y224962D01*
X280477Y225153D01*
X286882Y218748D01*
D02*
G37*
G36*
X276730Y213721D02*
Y206426D01*
X274354Y204050D01*
X274354Y204050D01*
X273826Y203521D01*
X272740D01*
X272264Y203579D01*
Y209106D01*
X272116D01*
X271924Y209568D01*
X276269Y213912D01*
X276730Y213721D01*
D02*
G37*
%LPC*%
G36*
X367179Y422390D02*
X365821D01*
X364490Y422125D01*
X363236Y421606D01*
X362108Y420852D01*
X361148Y419892D01*
X360394Y418763D01*
X359875Y417510D01*
X359610Y416179D01*
Y414821D01*
X359875Y413490D01*
X360394Y412236D01*
X361148Y411108D01*
X362108Y410148D01*
X363236Y409394D01*
X364490Y408875D01*
X365821Y408610D01*
X367179D01*
X368510Y408875D01*
X369763Y409394D01*
X370892Y410148D01*
X371852Y411108D01*
X372606Y412236D01*
X373125Y413490D01*
X373390Y414821D01*
Y416179D01*
X373125Y417510D01*
X372606Y418763D01*
X371852Y419892D01*
X370892Y420852D01*
X369763Y421606D01*
X368510Y422125D01*
X367179Y422390D01*
D02*
G37*
G36*
X123078Y421991D02*
X121720D01*
X120389Y421726D01*
X119135Y421207D01*
X118007Y420453D01*
X117047Y419493D01*
X116293Y418364D01*
X115774Y417111D01*
X115509Y415780D01*
Y414422D01*
X115774Y413091D01*
X116293Y411837D01*
X117047Y410709D01*
X118007Y409749D01*
X119135Y408995D01*
X120389Y408476D01*
X121720Y408211D01*
X123078D01*
X124409Y408476D01*
X125663Y408995D01*
X126791Y409749D01*
X127751Y410709D01*
X128505Y411837D01*
X129024Y413091D01*
X129289Y414422D01*
Y415780D01*
X129024Y417111D01*
X128505Y418364D01*
X127751Y419493D01*
X126791Y420453D01*
X125663Y421207D01*
X124409Y421726D01*
X123078Y421991D01*
D02*
G37*
G36*
X239429Y399441D02*
X238571D01*
X237743Y399219D01*
X237001Y398790D01*
X236395Y398184D01*
X235966Y397442D01*
X235744Y396614D01*
Y395756D01*
X235966Y394928D01*
X236395Y394186D01*
X237001Y393580D01*
X237743Y393151D01*
X238571Y392929D01*
X239429D01*
X240257Y393151D01*
X240999Y393580D01*
X241605Y394186D01*
X242034Y394928D01*
X242256Y395756D01*
Y396614D01*
X242034Y397442D01*
X241605Y398184D01*
X240999Y398790D01*
X240257Y399219D01*
X239429Y399441D01*
D02*
G37*
G36*
X206250D02*
X206071D01*
X205243Y399219D01*
X204501Y398790D01*
X203895Y398184D01*
X203466Y397442D01*
X203334Y396950D01*
X187185D01*
X186892Y396891D01*
X186644Y396726D01*
X186644Y396726D01*
X180914Y390996D01*
X180371Y391309D01*
X179467Y391551D01*
X179250D01*
Y388250D01*
X182551D01*
Y388468D01*
X182309Y389371D01*
X181995Y389914D01*
X187502Y395420D01*
X203334D01*
X203466Y394928D01*
X203895Y394186D01*
X204501Y393580D01*
X205243Y393151D01*
X206071Y392929D01*
X206250D01*
Y396185D01*
Y399441D01*
D02*
G37*
G36*
X178750Y391551D02*
X178533D01*
X177629Y391309D01*
X176820Y390842D01*
X176158Y390180D01*
X175691Y389371D01*
X175449Y388468D01*
Y388250D01*
X178750D01*
Y391551D01*
D02*
G37*
G36*
X274858Y391590D02*
X268150D01*
Y389001D01*
X263736D01*
X263444Y388943D01*
X263195Y388777D01*
X263195Y388777D01*
X226342Y351923D01*
X225833Y352218D01*
X224955Y352453D01*
X224045D01*
X223167Y352218D01*
X222380Y351763D01*
X221737Y351120D01*
X221283Y350333D01*
X221047Y349455D01*
Y348545D01*
X221283Y347667D01*
X221737Y346880D01*
X222380Y346237D01*
X223167Y345782D01*
X224045Y345547D01*
X224955D01*
X225833Y345782D01*
X226620Y346237D01*
X227263Y346880D01*
X227717Y347667D01*
X227953Y348545D01*
Y349455D01*
X227717Y350333D01*
X227423Y350842D01*
X264053Y387472D01*
X268150D01*
Y384882D01*
X274858D01*
Y391590D01*
D02*
G37*
G36*
X172709Y391551D02*
X165606D01*
Y384449D01*
X172709D01*
Y391551D01*
D02*
G37*
G36*
X295358Y391090D02*
X288650D01*
Y384382D01*
X295358D01*
Y391090D01*
D02*
G37*
G36*
X239429Y389598D02*
X238571D01*
X237743Y389376D01*
X237001Y388948D01*
X236395Y388342D01*
X235966Y387599D01*
X235744Y386771D01*
Y385914D01*
X235966Y385086D01*
X236395Y384343D01*
X237001Y383737D01*
X237743Y383309D01*
X238571Y383087D01*
X239429D01*
X240257Y383309D01*
X240999Y383737D01*
X241605Y384343D01*
X242034Y385086D01*
X242256Y385914D01*
Y386771D01*
X242034Y387599D01*
X241605Y388342D01*
X240999Y388948D01*
X240257Y389376D01*
X239429Y389598D01*
D02*
G37*
G36*
X242256Y379756D02*
X239250D01*
Y376750D01*
X242256D01*
Y379756D01*
D02*
G37*
G36*
X206929Y399441D02*
X206750D01*
Y396185D01*
Y392929D01*
X206929D01*
X207757Y393151D01*
X208499Y393580D01*
X209105Y394186D01*
X209534Y394928D01*
X209666Y395420D01*
X218998D01*
X235744Y378675D01*
Y376750D01*
X238750D01*
Y379756D01*
X236825D01*
X219856Y396726D01*
X219608Y396891D01*
X219315Y396950D01*
X209666D01*
X209534Y397442D01*
X209105Y398184D01*
X208499Y398790D01*
X207757Y399219D01*
X206929Y399441D01*
D02*
G37*
G36*
Y389598D02*
X206071D01*
X205243Y389376D01*
X204501Y388948D01*
X203895Y388342D01*
X203466Y387599D01*
X203244Y386771D01*
Y385914D01*
X203466Y385086D01*
X203895Y384343D01*
X204501Y383737D01*
X205243Y383309D01*
X206071Y383087D01*
X206929D01*
X207757Y383309D01*
X208499Y383737D01*
X209105Y384343D01*
X209534Y385086D01*
X209666Y385578D01*
X220841D01*
X226908Y379511D01*
X226704Y379158D01*
X226500Y378395D01*
Y377605D01*
X226704Y376842D01*
X227099Y376158D01*
X227658Y375599D01*
X228342Y375204D01*
X229105Y375000D01*
X229895D01*
X230658Y375204D01*
X231342Y375599D01*
X231901Y376158D01*
X232296Y376842D01*
X232500Y377605D01*
Y378395D01*
X232296Y379158D01*
X231901Y379842D01*
X231342Y380401D01*
X230658Y380796D01*
X229895Y381000D01*
X229105D01*
X228342Y380796D01*
X227989Y380592D01*
X221698Y386883D01*
X221450Y387049D01*
X221158Y387107D01*
X209666D01*
X209534Y387599D01*
X209105Y388342D01*
X208499Y388948D01*
X207757Y389376D01*
X206929Y389598D01*
D02*
G37*
G36*
X271946Y381354D02*
X271062D01*
X270209Y381126D01*
X269444Y380684D01*
X268820Y380060D01*
X268378Y379295D01*
X268150Y378442D01*
Y377558D01*
X268378Y376705D01*
X268820Y375940D01*
X269444Y375316D01*
X270209Y374874D01*
X271062Y374646D01*
X271946D01*
X272799Y374874D01*
X273564Y375316D01*
X274188Y375940D01*
X274630Y376705D01*
X274858Y377558D01*
Y378442D01*
X274630Y379295D01*
X274188Y380060D01*
X273564Y380684D01*
X272799Y381126D01*
X271946Y381354D01*
D02*
G37*
G36*
X345165Y377256D02*
X344986D01*
Y374250D01*
X347992D01*
Y374429D01*
X347770Y375257D01*
X347342Y375999D01*
X346735Y376605D01*
X345993Y377034D01*
X345165Y377256D01*
D02*
G37*
G36*
X344486D02*
X344308D01*
X343479Y377034D01*
X342737Y376605D01*
X342131Y375999D01*
X341702Y375257D01*
X341480Y374429D01*
Y374250D01*
X344486D01*
Y377256D01*
D02*
G37*
G36*
X292446Y380854D02*
X291562D01*
X290709Y380626D01*
X289944Y380184D01*
X289320Y379560D01*
X288878Y378795D01*
X288650Y377942D01*
Y377058D01*
X288878Y376205D01*
X289320Y375440D01*
X289944Y374816D01*
X290709Y374374D01*
X291562Y374146D01*
X292446D01*
X293299Y374374D01*
X294063Y374816D01*
X294688Y375440D01*
X295130Y376205D01*
X295358Y377058D01*
Y377942D01*
X295130Y378795D01*
X294688Y379560D01*
X294063Y380184D01*
X293299Y380626D01*
X292446Y380854D01*
D02*
G37*
G36*
X242256Y376250D02*
X239250D01*
Y373244D01*
X242256D01*
Y376250D01*
D02*
G37*
G36*
X238750D02*
X235744D01*
Y373244D01*
X238750D01*
Y376250D01*
D02*
G37*
G36*
X347992Y373750D02*
X344986D01*
Y370744D01*
X345165D01*
X345993Y370966D01*
X346735Y371395D01*
X347342Y372001D01*
X347770Y372743D01*
X347992Y373571D01*
Y373750D01*
D02*
G37*
G36*
X344486D02*
X341480D01*
Y373571D01*
X341702Y372743D01*
X342131Y372001D01*
X342737Y371395D01*
X343479Y370966D01*
X344308Y370744D01*
X344486D01*
Y373750D01*
D02*
G37*
G36*
X334929Y377256D02*
X334071D01*
X333243Y377034D01*
X332501Y376605D01*
X331895Y375999D01*
X331466Y375257D01*
X331244Y374429D01*
Y373571D01*
X331466Y372743D01*
X331895Y372001D01*
X332501Y371395D01*
X333243Y370966D01*
X334071Y370744D01*
X334929D01*
X335757Y370966D01*
X336499Y371395D01*
X337105Y372001D01*
X337534Y372743D01*
X337756Y373571D01*
Y374429D01*
X337534Y375257D01*
X337105Y375999D01*
X336499Y376605D01*
X335757Y377034D01*
X334929Y377256D01*
D02*
G37*
G36*
X271946Y371118D02*
X271062D01*
X270209Y370889D01*
X269444Y370448D01*
X268820Y369823D01*
X268378Y369058D01*
X268150Y368205D01*
Y367322D01*
X268378Y366469D01*
X268820Y365704D01*
X269444Y365080D01*
X270209Y364638D01*
X271062Y364409D01*
X271946D01*
X272799Y364638D01*
X273564Y365080D01*
X274188Y365704D01*
X274630Y366469D01*
X274858Y367322D01*
Y368205D01*
X274630Y369058D01*
X274188Y369823D01*
X273564Y370448D01*
X272799Y370889D01*
X271946Y371118D01*
D02*
G37*
G36*
X292446Y370618D02*
X291562D01*
X290709Y370390D01*
X289944Y369948D01*
X289320Y369323D01*
X288878Y368559D01*
X288650Y367705D01*
Y366822D01*
X288878Y365969D01*
X289320Y365204D01*
X289944Y364580D01*
X290709Y364138D01*
X291562Y363910D01*
X292446D01*
X293299Y364138D01*
X294063Y364580D01*
X294688Y365204D01*
X295130Y365969D01*
X295358Y366822D01*
Y367705D01*
X295130Y368559D01*
X294688Y369323D01*
X294063Y369948D01*
X293299Y370390D01*
X292446Y370618D01*
D02*
G37*
G36*
X165750Y352453D02*
X165545D01*
X164667Y352218D01*
X163880Y351763D01*
X163237Y351120D01*
X162783Y350333D01*
X162547Y349455D01*
Y349250D01*
X165750D01*
Y352453D01*
D02*
G37*
G36*
X293455D02*
X292545D01*
X291667Y352218D01*
X290880Y351763D01*
X290237Y351120D01*
X289783Y350333D01*
X289547Y349455D01*
Y348545D01*
X289783Y347667D01*
X290237Y346880D01*
X290880Y346237D01*
X291667Y345782D01*
X292545Y345547D01*
X293455D01*
X294333Y345782D01*
X295120Y346237D01*
X295763Y346880D01*
X296217Y347667D01*
X296453Y348545D01*
Y349455D01*
X296217Y350333D01*
X295763Y351120D01*
X295120Y351763D01*
X294333Y352218D01*
X293455Y352453D01*
D02*
G37*
G36*
X283455D02*
X282545D01*
X281667Y352218D01*
X280880Y351763D01*
X280237Y351120D01*
X279783Y350333D01*
X279547Y349455D01*
Y348545D01*
X279783Y347667D01*
X280237Y346880D01*
X280880Y346237D01*
X281667Y345782D01*
X282545Y345547D01*
X283455D01*
X284333Y345782D01*
X285120Y346237D01*
X285763Y346880D01*
X286217Y347667D01*
X286453Y348545D01*
Y349455D01*
X286217Y350333D01*
X285763Y351120D01*
X285120Y351763D01*
X284333Y352218D01*
X283455Y352453D01*
D02*
G37*
G36*
X244955D02*
X244045D01*
X243167Y352218D01*
X242380Y351763D01*
X241737Y351120D01*
X241283Y350333D01*
X241047Y349455D01*
Y348545D01*
X241283Y347667D01*
X241737Y346880D01*
X242380Y346237D01*
X243167Y345782D01*
X244045Y345547D01*
X244955D01*
X245833Y345782D01*
X246620Y346237D01*
X247263Y346880D01*
X247717Y347667D01*
X247953Y348545D01*
Y349455D01*
X247717Y350333D01*
X247263Y351120D01*
X246620Y351763D01*
X245833Y352218D01*
X244955Y352453D01*
D02*
G37*
G36*
X234955D02*
X234045D01*
X233167Y352218D01*
X232380Y351763D01*
X231737Y351120D01*
X231282Y350333D01*
X231047Y349455D01*
Y348545D01*
X231282Y347667D01*
X231737Y346880D01*
X232380Y346237D01*
X233167Y345782D01*
X234045Y345547D01*
X234955D01*
X235833Y345782D01*
X236620Y346237D01*
X237263Y346880D01*
X237718Y347667D01*
X237953Y348545D01*
Y349455D01*
X237718Y350333D01*
X237263Y351120D01*
X236620Y351763D01*
X235833Y352218D01*
X234955Y352453D01*
D02*
G37*
G36*
X196895Y363500D02*
X196105D01*
X195342Y363296D01*
X194658Y362901D01*
X194099Y362342D01*
X193704Y361658D01*
X193500Y360895D01*
Y360105D01*
X193704Y359342D01*
X194099Y358658D01*
X194658Y358099D01*
X195342Y357704D01*
X196105Y357500D01*
X196895D01*
X197658Y357704D01*
X198342Y358099D01*
X198901Y358658D01*
X199296Y359342D01*
X199401Y359735D01*
X202683D01*
X211577Y350842D01*
X211282Y350333D01*
X211047Y349455D01*
Y348545D01*
X211282Y347667D01*
X211737Y346880D01*
X212380Y346237D01*
X213167Y345782D01*
X214045Y345547D01*
X214955D01*
X215833Y345782D01*
X216620Y346237D01*
X217263Y346880D01*
X217718Y347667D01*
X217953Y348545D01*
Y349455D01*
X217718Y350333D01*
X217263Y351120D01*
X216620Y351763D01*
X215833Y352218D01*
X214955Y352453D01*
X214045D01*
X213167Y352218D01*
X212658Y351923D01*
X203541Y361041D01*
X203293Y361207D01*
X203000Y361265D01*
X199401D01*
X199296Y361658D01*
X198901Y362342D01*
X198342Y362901D01*
X197658Y363296D01*
X196895Y363500D01*
D02*
G37*
G36*
X169453Y348750D02*
X166250D01*
Y345547D01*
X166455D01*
X167333Y345782D01*
X168120Y346237D01*
X168763Y346880D01*
X169218Y347667D01*
X169453Y348545D01*
Y348750D01*
D02*
G37*
G36*
X165750D02*
X162547D01*
Y348545D01*
X162783Y347667D01*
X163077Y347158D01*
X145459Y329541D01*
X145293Y329293D01*
X145235Y329000D01*
Y266499D01*
X144933Y266418D01*
X144303Y266054D01*
X143788Y265540D01*
X143425Y264909D01*
X143236Y264206D01*
Y264092D01*
X146000D01*
X148764D01*
Y264206D01*
X148575Y264909D01*
X148212Y265540D01*
X147697Y266054D01*
X147067Y266418D01*
X146765Y266499D01*
Y328683D01*
X164158Y346077D01*
X164667Y345782D01*
X165545Y345547D01*
X165750D01*
Y348750D01*
D02*
G37*
G36*
X344750Y348250D02*
X341744D01*
Y348071D01*
X341966Y347243D01*
X342395Y346501D01*
X343001Y345895D01*
X343743Y345466D01*
X344571Y345244D01*
X344750D01*
Y348250D01*
D02*
G37*
G36*
X335192Y351756D02*
X334335D01*
X333507Y351534D01*
X332765Y351105D01*
X332158Y350499D01*
X331730Y349757D01*
X331508Y348929D01*
Y348071D01*
X331730Y347243D01*
X332158Y346501D01*
X332765Y345895D01*
X333507Y345466D01*
X334335Y345244D01*
X335192D01*
X336020Y345466D01*
X336763Y345895D01*
X337369Y346501D01*
X337798Y347243D01*
X338020Y348071D01*
Y348929D01*
X337798Y349757D01*
X337369Y350499D01*
X336763Y351105D01*
X336020Y351534D01*
X335192Y351756D01*
D02*
G37*
G36*
X273455Y352453D02*
X272545D01*
X271667Y352218D01*
X270880Y351763D01*
X270237Y351120D01*
X269782Y350333D01*
X269547Y349455D01*
Y348545D01*
X269782Y347667D01*
X270237Y346880D01*
X270880Y346237D01*
X271667Y345782D01*
X272545Y345547D01*
X273455D01*
X274333Y345782D01*
X274613Y345945D01*
X284279Y336279D01*
X284610Y336058D01*
X285000Y335980D01*
X290667D01*
X290704Y335842D01*
X291099Y335158D01*
X291658Y334599D01*
X292342Y334204D01*
X293105Y334000D01*
X293895D01*
X294658Y334204D01*
X295342Y334599D01*
X295901Y335158D01*
X296296Y335842D01*
X296500Y336605D01*
Y337395D01*
X296296Y338158D01*
X295901Y338842D01*
X295342Y339401D01*
X294658Y339796D01*
X293895Y340000D01*
X293105D01*
X292342Y339796D01*
X291658Y339401D01*
X291099Y338842D01*
X290704Y338158D01*
X290667Y338020D01*
X285422D01*
X276055Y347387D01*
X276218Y347667D01*
X276453Y348545D01*
Y349455D01*
X276218Y350333D01*
X275763Y351120D01*
X275120Y351763D01*
X274333Y352218D01*
X273455Y352453D01*
D02*
G37*
G36*
X345165Y325756D02*
X344986D01*
Y322750D01*
X347992D01*
Y322929D01*
X347770Y323757D01*
X347342Y324499D01*
X346735Y325105D01*
X345993Y325534D01*
X345165Y325756D01*
D02*
G37*
G36*
X344486D02*
X344308D01*
X343479Y325534D01*
X342737Y325105D01*
X342131Y324499D01*
X341702Y323757D01*
X341480Y322929D01*
Y322750D01*
X344486D01*
Y325756D01*
D02*
G37*
G36*
X262750Y322453D02*
X259547D01*
Y319250D01*
X262750D01*
Y322453D01*
D02*
G37*
G36*
X244250D02*
X244045D01*
X243167Y322217D01*
X242380Y321763D01*
X241737Y321120D01*
X241283Y320333D01*
X241047Y319455D01*
Y319250D01*
X244250D01*
Y322453D01*
D02*
G37*
G36*
X347992Y322250D02*
X344986D01*
Y319244D01*
X345165D01*
X345993Y319466D01*
X346735Y319895D01*
X347342Y320501D01*
X347770Y321243D01*
X347992Y322071D01*
Y322250D01*
D02*
G37*
G36*
X266453Y318750D02*
X263250D01*
Y315547D01*
X266453D01*
Y318750D01*
D02*
G37*
G36*
X262750D02*
X259547D01*
Y315547D01*
X262750D01*
Y318750D01*
D02*
G37*
G36*
X169453Y322453D02*
X162547D01*
Y315547D01*
X169453D01*
Y322453D01*
D02*
G37*
G36*
X349961Y289461D02*
X347250D01*
Y286750D01*
X349961D01*
Y289461D01*
D02*
G37*
G36*
X346750D02*
X344039D01*
Y286750D01*
X346750D01*
Y289461D01*
D02*
G37*
G36*
X349961Y286250D02*
X347250D01*
Y283539D01*
X349961D01*
Y286250D01*
D02*
G37*
G36*
X346750D02*
X344039D01*
Y283539D01*
X346750D01*
Y286250D01*
D02*
G37*
G36*
X304318Y271756D02*
X304140D01*
Y268750D01*
X307146D01*
Y268929D01*
X306924Y269757D01*
X306495Y270499D01*
X305889Y271105D01*
X305147Y271534D01*
X304318Y271756D01*
D02*
G37*
G36*
X303640D02*
X303461D01*
X302633Y271534D01*
X301891Y271105D01*
X301284Y270499D01*
X300856Y269757D01*
X300634Y268929D01*
Y268750D01*
X303640D01*
Y271756D01*
D02*
G37*
G36*
X307146Y268250D02*
X304140D01*
Y265244D01*
X304318D01*
X305147Y265466D01*
X305889Y265895D01*
X306495Y266501D01*
X306924Y267243D01*
X307146Y268071D01*
Y268250D01*
D02*
G37*
G36*
X303640D02*
X300634D01*
Y268071D01*
X300856Y267243D01*
X301284Y266501D01*
X301891Y265895D01*
X302633Y265466D01*
X303461Y265244D01*
X303640D01*
Y268250D01*
D02*
G37*
G36*
X192764Y266606D02*
X187236D01*
Y261079D01*
X192764D01*
Y266606D01*
D02*
G37*
G36*
X167864D02*
X167136D01*
X166433Y266418D01*
X165803Y266054D01*
X165288Y265540D01*
X164925Y264909D01*
X164736Y264206D01*
Y263479D01*
X164925Y262776D01*
X165288Y262145D01*
X165803Y261631D01*
X166433Y261267D01*
X167136Y261079D01*
X167864D01*
X168567Y261267D01*
X169197Y261631D01*
X169712Y262145D01*
X170075Y262776D01*
X170264Y263479D01*
Y264206D01*
X170075Y264909D01*
X169712Y265540D01*
X169197Y266054D01*
X168567Y266418D01*
X167864Y266606D01*
D02*
G37*
G36*
X159264D02*
X153736D01*
Y261079D01*
X159264D01*
Y266606D01*
D02*
G37*
G36*
X145750Y263593D02*
X143236D01*
Y263479D01*
X143425Y262776D01*
X143788Y262145D01*
X144303Y261631D01*
X144933Y261267D01*
X145636Y261079D01*
X145750D01*
Y263593D01*
D02*
G37*
G36*
X350461Y260461D02*
X347750D01*
Y257750D01*
X350461D01*
Y260461D01*
D02*
G37*
G36*
X347250D02*
X344539D01*
Y257750D01*
X347250D01*
Y260461D01*
D02*
G37*
G36*
X328205D02*
X327425D01*
X326672Y260259D01*
X325997Y259869D01*
X325446Y259318D01*
X325056Y258643D01*
X324854Y257890D01*
Y257110D01*
X325056Y256357D01*
X325446Y255682D01*
X325997Y255131D01*
X326672Y254741D01*
X327425Y254539D01*
X328205D01*
X328958Y254741D01*
X329633Y255131D01*
X330184Y255682D01*
X330574Y256357D01*
X330776Y257110D01*
Y257890D01*
X330574Y258643D01*
X330184Y259318D01*
X329633Y259869D01*
X328958Y260259D01*
X328205Y260461D01*
D02*
G37*
G36*
X367679Y264890D02*
X366321D01*
X364990Y264625D01*
X363737Y264106D01*
X362608Y263352D01*
X361648Y262392D01*
X360894Y261263D01*
X360375Y260010D01*
X360110Y258679D01*
Y257321D01*
X360375Y255990D01*
X360894Y254736D01*
X361648Y253608D01*
X362608Y252648D01*
X363737Y251894D01*
X364990Y251375D01*
X366321Y251110D01*
X367679D01*
X369010Y251375D01*
X370264Y251894D01*
X371392Y252648D01*
X372352Y253608D01*
X373106Y254736D01*
X373625Y255990D01*
X373890Y257321D01*
Y258679D01*
X373625Y260010D01*
X373106Y261263D01*
X372352Y262392D01*
X371392Y263352D01*
X370264Y264106D01*
X369010Y264625D01*
X367679Y264890D01*
D02*
G37*
G36*
X123179D02*
X121821D01*
X120490Y264625D01*
X119237Y264106D01*
X118108Y263352D01*
X117148Y262392D01*
X116394Y261263D01*
X115875Y260010D01*
X115610Y258679D01*
Y257321D01*
X115875Y255990D01*
X116394Y254736D01*
X117148Y253608D01*
X118108Y252648D01*
X119237Y251894D01*
X120490Y251375D01*
X121821Y251110D01*
X123179D01*
X124510Y251375D01*
X125763Y251894D01*
X126892Y252648D01*
X127852Y253608D01*
X128606Y254736D01*
X129125Y255990D01*
X129390Y257321D01*
Y258679D01*
X129125Y260010D01*
X128606Y261263D01*
X127852Y262392D01*
X126892Y263352D01*
X125763Y264106D01*
X124510Y264625D01*
X123179Y264890D01*
D02*
G37*
G36*
X156864Y246921D02*
X156136D01*
X155433Y246733D01*
X154803Y246369D01*
X154288Y245854D01*
X153925Y245224D01*
X153844Y244922D01*
X148764D01*
Y246921D01*
X143236D01*
Y241394D01*
X148764D01*
Y243393D01*
X153844D01*
X153925Y243091D01*
X154288Y242460D01*
X154803Y241946D01*
X155433Y241582D01*
X156136Y241394D01*
X156864D01*
X157567Y241582D01*
X158197Y241946D01*
X158712Y242460D01*
X159075Y243091D01*
X159264Y243794D01*
Y244521D01*
X159075Y245224D01*
X158712Y245854D01*
X158197Y246369D01*
X157567Y246733D01*
X156864Y246921D01*
D02*
G37*
G36*
X170264D02*
X167750D01*
Y244408D01*
X170264D01*
Y246921D01*
D02*
G37*
G36*
X148764Y263593D02*
X146250D01*
Y261079D01*
X146364D01*
X147067Y261267D01*
X147338Y261423D01*
X163130Y245631D01*
X163130Y245631D01*
X163379Y245465D01*
X163671Y245407D01*
X163671Y245407D01*
X164736D01*
Y244408D01*
X167250D01*
Y246921D01*
X165560D01*
X165486Y246936D01*
X163988D01*
X148419Y262505D01*
X148575Y262776D01*
X148764Y263479D01*
Y263593D01*
D02*
G37*
G36*
X190364Y246921D02*
X189636D01*
X188933Y246733D01*
X188303Y246369D01*
X187788Y245854D01*
X187425Y245224D01*
X187236Y244521D01*
Y243794D01*
X187425Y243091D01*
X187788Y242460D01*
X188303Y241946D01*
X188933Y241582D01*
X189636Y241394D01*
X190364D01*
X191067Y241582D01*
X191697Y241946D01*
X192212Y242460D01*
X192575Y243091D01*
X192764Y243794D01*
Y244521D01*
X192575Y245224D01*
X192212Y245854D01*
X191697Y246369D01*
X191067Y246733D01*
X190364Y246921D01*
D02*
G37*
G36*
X170264Y243907D02*
X167750D01*
Y241394D01*
X170264D01*
Y243907D01*
D02*
G37*
G36*
X167250D02*
X164736D01*
Y241394D01*
X167250D01*
Y243907D01*
D02*
G37*
G36*
X140693Y306298D02*
X139903D01*
X139140Y306094D01*
X138456Y305699D01*
X137898Y305140D01*
X137503Y304456D01*
X137298Y303693D01*
Y302903D01*
X137503Y302140D01*
X137898Y301456D01*
X138456Y300898D01*
X138735Y300736D01*
Y266675D01*
X138264Y266606D01*
Y266606D01*
X132736D01*
Y261079D01*
X136590D01*
X136781Y260617D01*
X134959Y258795D01*
X134793Y258547D01*
X134735Y258254D01*
Y246814D01*
X134433Y246733D01*
X133803Y246369D01*
X133288Y245854D01*
X132925Y245224D01*
X132736Y244521D01*
Y243794D01*
X132925Y243091D01*
X133288Y242460D01*
X133803Y241946D01*
X134433Y241582D01*
X135136Y241394D01*
X135864D01*
X136567Y241582D01*
X137197Y241946D01*
X137712Y242460D01*
X138075Y243091D01*
X138264Y243794D01*
Y244521D01*
X138075Y245224D01*
X137712Y245854D01*
X137197Y246369D01*
X136567Y246733D01*
X136265Y246814D01*
Y257938D01*
X140041Y261714D01*
X140041Y261714D01*
X140207Y261962D01*
X140265Y262254D01*
Y300298D01*
X140693D01*
X141456Y300502D01*
X142140Y300898D01*
X142699Y301456D01*
X143094Y302140D01*
X143298Y302903D01*
Y303693D01*
X143094Y304456D01*
X142699Y305140D01*
X142140Y305699D01*
X141456Y306094D01*
X140693Y306298D01*
D02*
G37*
G36*
X310172Y236157D02*
X310006D01*
Y233250D01*
X312913D01*
Y233416D01*
X312698Y234219D01*
X312282Y234939D01*
X311695Y235527D01*
X310975Y235942D01*
X310172Y236157D01*
D02*
G37*
G36*
X309506D02*
X309340D01*
X308537Y235942D01*
X307817Y235527D01*
X307229Y234939D01*
X306814Y234219D01*
X306598Y233416D01*
Y233250D01*
X309506D01*
Y236157D01*
D02*
G37*
G36*
X312913Y232750D02*
X310006D01*
Y229842D01*
X310172D01*
X310975Y230058D01*
X311695Y230473D01*
X312100Y230879D01*
X312282Y231061D01*
X312698Y231781D01*
X312913Y232584D01*
Y232750D01*
D02*
G37*
G36*
X309506D02*
X306598D01*
Y232713D01*
D01*
Y232584D01*
X306814Y231781D01*
X307229Y231061D01*
X307817Y230473D01*
X308537Y230058D01*
X309340Y229842D01*
X309506D01*
Y232750D01*
D02*
G37*
G36*
X350461Y257250D02*
X347500D01*
X344539D01*
Y254539D01*
X346666D01*
Y230379D01*
Y229961D01*
X344724D01*
Y227250D01*
X347685D01*
X350646D01*
Y229961D01*
X348705D01*
Y230379D01*
Y233444D01*
D01*
Y254539D01*
X350461D01*
Y257250D01*
D02*
G37*
G36*
X350646Y226750D02*
X347935D01*
Y224039D01*
X350646D01*
Y226750D01*
D02*
G37*
G36*
X347435D02*
X344724D01*
Y224039D01*
X347435D01*
Y226750D01*
D02*
G37*
G36*
X328390Y229961D02*
X327610D01*
X326857Y229759D01*
X326182Y229369D01*
X325631Y228818D01*
X325241Y228143D01*
X325039Y227390D01*
Y226610D01*
X325241Y225857D01*
X325631Y225182D01*
X326182Y224631D01*
X326857Y224241D01*
X327610Y224039D01*
X328390D01*
X329143Y224241D01*
X329818Y224631D01*
X330369Y225182D01*
X330759Y225857D01*
X330961Y226610D01*
Y227390D01*
X330759Y228143D01*
X330369Y228818D01*
X329818Y229369D01*
X329143Y229759D01*
X328390Y229961D01*
D02*
G37*
G36*
X310172Y211658D02*
X310006D01*
Y208750D01*
X312913D01*
Y208916D01*
X312698Y209719D01*
X312282Y210439D01*
X311695Y211027D01*
X310975Y211442D01*
X310172Y211658D01*
D02*
G37*
G36*
X309506D02*
X309340D01*
X308537Y211442D01*
X307817Y211027D01*
X307229Y210439D01*
X306814Y209719D01*
X306598Y208916D01*
Y208750D01*
X309506D01*
Y211658D01*
D02*
G37*
G36*
X312913Y208250D02*
X310006D01*
Y205343D01*
X310172D01*
X310975Y205558D01*
X311695Y205973D01*
X312282Y206561D01*
X312698Y207281D01*
X312913Y208084D01*
Y208250D01*
D02*
G37*
G36*
X309506D02*
X306598D01*
Y208084D01*
X306814Y207281D01*
X307229Y206561D01*
X307817Y205973D01*
X308537Y205558D01*
X309340Y205343D01*
X309506D01*
Y208250D01*
D02*
G37*
G36*
X159264Y206093D02*
X156750D01*
Y203579D01*
X156864D01*
X157567Y203767D01*
X158197Y204131D01*
X158712Y204645D01*
X159075Y205276D01*
X159264Y205979D01*
Y206093D01*
D02*
G37*
G36*
X156250D02*
X153736D01*
Y205979D01*
X153925Y205276D01*
X154288Y204645D01*
X154803Y204131D01*
X155433Y203767D01*
X156136Y203579D01*
X156250D01*
Y206093D01*
D02*
G37*
G36*
X265736Y191441D02*
X251764D01*
X251374Y191363D01*
X251043Y191142D01*
X249109Y189208D01*
X249067Y189233D01*
X248364Y189421D01*
X248250D01*
Y186907D01*
X250764D01*
Y187021D01*
X250575Y187724D01*
X250551Y187767D01*
X252186Y189402D01*
X257225D01*
X257360Y188902D01*
X257303Y188869D01*
X256788Y188355D01*
X256425Y187724D01*
X256236Y187021D01*
Y186294D01*
X256425Y185591D01*
X256449Y185548D01*
X254814Y183913D01*
X249775D01*
X249640Y184413D01*
X249697Y184446D01*
X250212Y184960D01*
X250575Y185591D01*
X250764Y186294D01*
Y186407D01*
X248000D01*
X245236D01*
Y186294D01*
X245425Y185591D01*
X245788Y184960D01*
X246303Y184446D01*
X246359Y184413D01*
X246226Y183913D01*
X241186D01*
X239551Y185548D01*
X239575Y185591D01*
X239764Y186294D01*
Y187021D01*
X239575Y187724D01*
X239212Y188355D01*
X238697Y188869D01*
X238067Y189233D01*
X237364Y189421D01*
X236636D01*
X235933Y189233D01*
X235303Y188869D01*
X234788Y188355D01*
X234425Y187724D01*
X234236Y187021D01*
Y186294D01*
X234425Y185591D01*
X234788Y184960D01*
X235303Y184446D01*
X235933Y184082D01*
X236636Y183894D01*
X237364D01*
X238067Y184082D01*
X238109Y184107D01*
X240043Y182173D01*
X240374Y181952D01*
X240764Y181874D01*
X255236D01*
X255626Y181952D01*
X255957Y182173D01*
X257891Y184107D01*
X257933Y184082D01*
X258636Y183894D01*
X259364D01*
X260067Y184082D01*
X260697Y184446D01*
X261212Y184960D01*
X261575Y185591D01*
X261764Y186294D01*
Y187021D01*
X261575Y187724D01*
X261212Y188355D01*
X260697Y188869D01*
X260641Y188902D01*
X260774Y189402D01*
X265314D01*
X266949Y187767D01*
X266925Y187724D01*
X266736Y187021D01*
Y186907D01*
X269250D01*
Y189421D01*
X269136D01*
X268433Y189233D01*
X268391Y189208D01*
X266457Y191142D01*
X266126Y191363D01*
X265736Y191441D01*
D02*
G37*
G36*
X269864Y189421D02*
X269750D01*
Y186907D01*
X272264D01*
Y187021D01*
X272075Y187724D01*
X271712Y188355D01*
X271197Y188869D01*
X270567Y189233D01*
X269864Y189421D01*
D02*
G37*
G36*
X247750D02*
X247636D01*
X246933Y189233D01*
X246303Y188869D01*
X245788Y188355D01*
X245425Y187724D01*
X245236Y187021D01*
Y186907D01*
X247750D01*
Y189421D01*
D02*
G37*
G36*
X272264Y186407D02*
X269750D01*
Y183894D01*
X269864D01*
X270567Y184082D01*
X271197Y184446D01*
X271712Y184960D01*
X272075Y185591D01*
X272264Y186294D01*
Y186407D01*
D02*
G37*
G36*
X269250D02*
X266736D01*
Y186294D01*
X266925Y185591D01*
X267288Y184960D01*
X267803Y184446D01*
X268433Y184082D01*
X269136Y183894D01*
X269250D01*
Y186407D01*
D02*
G37*
G36*
X213364Y189421D02*
X212636D01*
X211933Y189233D01*
X211303Y188869D01*
X210788Y188355D01*
X210425Y187724D01*
X210236Y187021D01*
Y186294D01*
X210425Y185591D01*
X210788Y184960D01*
X211303Y184446D01*
X211933Y184082D01*
X212636Y183894D01*
X213364D01*
X214067Y184082D01*
X214697Y184446D01*
X215212Y184960D01*
X215575Y185591D01*
X215764Y186294D01*
Y187021D01*
X215575Y187724D01*
X215212Y188355D01*
X214697Y188869D01*
X214067Y189233D01*
X213364Y189421D01*
D02*
G37*
G36*
X192764D02*
X187236D01*
Y183894D01*
X192764D01*
Y189421D01*
D02*
G37*
G36*
X167864D02*
X167136D01*
X166433Y189233D01*
X165803Y188869D01*
X165288Y188355D01*
X164925Y187724D01*
X164736Y187021D01*
Y186294D01*
X164925Y185591D01*
X165288Y184960D01*
X165803Y184446D01*
X166433Y184082D01*
X167136Y183894D01*
X167864D01*
X168567Y184082D01*
X169197Y184446D01*
X169712Y184960D01*
X170075Y185591D01*
X170264Y186294D01*
Y187021D01*
X170075Y187724D01*
X169712Y188355D01*
X169197Y188869D01*
X168567Y189233D01*
X167864Y189421D01*
D02*
G37*
G36*
X159264D02*
X153736D01*
Y183894D01*
X159264D01*
Y189421D01*
D02*
G37*
G36*
X148764D02*
X143236D01*
Y183894D01*
X148764D01*
Y189421D01*
D02*
G37*
G36*
X204264Y189264D02*
X198736D01*
Y183736D01*
X204264D01*
Y189264D01*
D02*
G37*
G36*
X184795Y120634D02*
X183575D01*
X182396Y120318D01*
X181340Y119708D01*
X180477Y118845D01*
X179867Y117789D01*
X179551Y116610D01*
Y115390D01*
X179867Y114211D01*
X180477Y113155D01*
X181340Y112292D01*
X182396Y111682D01*
X183575Y111366D01*
X184795D01*
X185974Y111682D01*
X187030Y112292D01*
X187893Y113155D01*
X188503Y114211D01*
X188819Y115390D01*
Y116610D01*
X188503Y117789D01*
X187893Y118845D01*
X187030Y119708D01*
X185974Y120318D01*
X184795Y120634D01*
D02*
G37*
G36*
X165110D02*
X163890D01*
X162711Y120318D01*
X161655Y119708D01*
X160792Y118845D01*
X160182Y117789D01*
X159866Y116610D01*
Y115390D01*
X160182Y114211D01*
X160792Y113155D01*
X161655Y112292D01*
X162711Y111682D01*
X163890Y111366D01*
X165110D01*
X166289Y111682D01*
X167345Y112292D01*
X168208Y113155D01*
X168818Y114211D01*
X169134Y115390D01*
Y116610D01*
X168818Y117789D01*
X168208Y118845D01*
X167345Y119708D01*
X166289Y120318D01*
X165110Y120634D01*
D02*
G37*
G36*
X149449D02*
X140181D01*
Y111366D01*
X149449D01*
Y120634D01*
D02*
G37*
G36*
X345480Y120134D02*
X344260D01*
X343081Y119818D01*
X342025Y119208D01*
X341162Y118345D01*
X340552Y117289D01*
X340236Y116110D01*
Y114890D01*
X340552Y113711D01*
X341162Y112655D01*
X342025Y111792D01*
X343081Y111182D01*
X344260Y110866D01*
X345480D01*
X346659Y111182D01*
X347715Y111792D01*
X348578Y112655D01*
X349188Y113711D01*
X349504Y114890D01*
Y116110D01*
X349188Y117289D01*
X348578Y118345D01*
X347715Y119208D01*
X346659Y119818D01*
X345480Y120134D01*
D02*
G37*
G36*
X325795D02*
X324575D01*
X323396Y119818D01*
X322340Y119208D01*
X321477Y118345D01*
X320867Y117289D01*
X320551Y116110D01*
Y114890D01*
X320867Y113711D01*
X321477Y112655D01*
X322340Y111792D01*
X323396Y111182D01*
X324575Y110866D01*
X325795D01*
X326974Y111182D01*
X328030Y111792D01*
X328893Y112655D01*
X329503Y113711D01*
X329819Y114890D01*
Y116110D01*
X329503Y117289D01*
X328893Y118345D01*
X328030Y119208D01*
X326974Y119818D01*
X325795Y120134D01*
D02*
G37*
G36*
X310134D02*
X300866D01*
Y110866D01*
X310134D01*
Y120134D01*
D02*
G37*
G36*
X265295D02*
X264075D01*
X262896Y119818D01*
X261840Y119208D01*
X260977Y118345D01*
X260367Y117289D01*
X260051Y116110D01*
Y114890D01*
X260367Y113711D01*
X260977Y112655D01*
X261840Y111792D01*
X262896Y111182D01*
X264075Y110866D01*
X265295D01*
X266474Y111182D01*
X267530Y111792D01*
X268393Y112655D01*
X269003Y113711D01*
X269319Y114890D01*
Y116110D01*
X269003Y117289D01*
X268393Y118345D01*
X267530Y119208D01*
X266474Y119818D01*
X265295Y120134D01*
D02*
G37*
G36*
X245610D02*
X244390D01*
X243211Y119818D01*
X242155Y119208D01*
X241292Y118345D01*
X240682Y117289D01*
X240366Y116110D01*
Y114890D01*
X240682Y113711D01*
X241292Y112655D01*
X242155Y111792D01*
X243211Y111182D01*
X244390Y110866D01*
X245610D01*
X246789Y111182D01*
X247845Y111792D01*
X248708Y112655D01*
X249318Y113711D01*
X249634Y114890D01*
Y116110D01*
X249318Y117289D01*
X248708Y118345D01*
X247845Y119208D01*
X246789Y119818D01*
X245610Y120134D01*
D02*
G37*
G36*
X229949D02*
X220681D01*
Y110866D01*
X229949D01*
Y120134D01*
D02*
G37*
G36*
X213071Y296150D02*
X212110D01*
X211182Y295901D01*
X210350Y295420D01*
X209670Y294741D01*
X209190Y293909D01*
X208941Y292981D01*
Y292020D01*
X209190Y291091D01*
X209670Y290259D01*
X210350Y289580D01*
X211182Y289099D01*
X212110Y288850D01*
X213071D01*
X213999Y289099D01*
X214831Y289580D01*
X215511Y290259D01*
X215991Y291091D01*
X216240Y292020D01*
Y292981D01*
X215991Y293909D01*
X215511Y294741D01*
X214831Y295420D01*
X213999Y295901D01*
X213071Y296150D01*
D02*
G37*
%LPD*%
D14*
X278679Y197055D02*
X287902Y206278D01*
X274248Y202502D02*
X275075Y203329D01*
X274744Y199000D02*
X284244Y208500D01*
X275075Y203329D02*
X277750Y206003D01*
Y214715D01*
X270414Y209500D02*
X276500Y215586D01*
X287902Y206278D02*
Y219170D01*
X225000Y186658D02*
X235398Y197055D01*
X185000Y199000D02*
X274744D01*
X178500Y205500D02*
X185000Y199000D01*
X193921Y202421D02*
X227728D01*
X190000Y206343D02*
X193921Y202421D01*
X227728D02*
X231649Y206343D01*
X237000D01*
X186236Y210106D02*
X190000Y206343D01*
X201500Y206185D02*
Y220413D01*
X251764Y190421D02*
X265736D01*
X235398Y197055D02*
X278679D01*
X251842Y202500D02*
X268939D01*
X268941Y202502D02*
X274248D01*
X248000Y206343D02*
X251842Y202500D01*
X259000Y206343D02*
X267486D01*
X269095Y208356D02*
X269989Y209250D01*
X277750Y214715D02*
X278000Y214965D01*
X280500Y226572D02*
X287902Y219170D01*
X178500Y186658D02*
Y195343D01*
X167500Y206343D02*
X178500Y195343D01*
Y205500D02*
Y206343D01*
X265736Y190421D02*
X269500Y186658D01*
X240764Y182894D02*
X255236D01*
X237000Y186658D02*
X240764Y182894D01*
X255236D02*
X259000Y186658D01*
X248000D02*
X251764Y190421D01*
X219203Y293676D02*
X251260Y261619D01*
X251846Y258350D02*
X258973D01*
X259123Y258500D01*
X266769D02*
X276500Y248769D01*
X259123Y258500D02*
X266769D01*
X251260Y258936D02*
X251846Y258350D01*
X251260Y258936D02*
Y261619D01*
X247100Y267900D02*
X259491D01*
X220703Y294297D02*
X247100Y267900D01*
X278000Y214965D02*
Y249391D01*
X259491Y267900D02*
X278000Y249391D01*
X220703Y294297D02*
Y313703D01*
X276500Y215586D02*
Y248769D01*
X219453Y315219D02*
Y322781D01*
X219379Y322854D02*
X219453Y322781D01*
X221988Y315047D02*
X226137D01*
X221403Y314461D02*
X221988Y315047D01*
X220703Y313703D02*
X221403Y314403D01*
Y314461D01*
X219203Y314969D02*
X219453Y315219D01*
X219203Y293676D02*
Y314969D01*
X222367Y322457D02*
X222863Y322953D01*
X221538Y322457D02*
X222367D01*
X220953Y323043D02*
X221538Y322457D01*
X220953Y323043D02*
Y323403D01*
X220250Y324105D02*
X220953Y323403D01*
X220250Y324105D02*
Y326932D01*
X196221Y345133D02*
X203604Y337750D01*
X196000Y349000D02*
X196221Y348780D01*
X203604Y337750D02*
X209432D01*
X220250Y326932D01*
X196221Y345133D02*
Y348780D01*
X226137Y315047D02*
X228453Y317363D01*
X226137Y322953D02*
X228453Y320637D01*
X222863Y322953D02*
X226137D01*
X228453Y317363D02*
Y320637D01*
X280500Y226572D02*
Y252410D01*
X255410Y277500D02*
X280500Y252410D01*
X192500Y230000D02*
X206500Y244000D01*
Y249000D01*
X139194Y227194D02*
X192500D01*
X202091Y236785D01*
Y237000D02*
X212591Y247500D01*
X202091Y236785D02*
Y237000D01*
X273000Y349000D02*
X285000Y337000D01*
X293500D01*
X254000Y304610D02*
X290110Y268500D01*
X254000Y304610D02*
Y337086D01*
X262211Y345297D01*
X176000Y292515D02*
X217240Y251275D01*
Y236153D02*
Y251275D01*
X176000Y292515D02*
Y319000D01*
X201500Y220413D02*
X217240Y236153D01*
X135500Y206343D02*
X139264Y210106D01*
X186236D01*
X347685Y227000D02*
Y257315D01*
X129000Y217000D02*
X139194Y227194D01*
X129000Y193157D02*
X135500Y186658D01*
X129000Y193157D02*
Y217000D01*
D17*
X201500Y186500D02*
D03*
X156500Y186658D02*
D03*
X167500Y206343D02*
D03*
X178500Y186658D02*
D03*
X190000D02*
D03*
X213000Y206343D02*
D03*
X225000D02*
D03*
X237000D02*
D03*
X248000D02*
D03*
X259000D02*
D03*
X269500D02*
D03*
X190000Y263843D02*
D03*
X156500D02*
D03*
X146000Y244158D02*
D03*
X135500Y263843D02*
D03*
X167500Y244158D02*
D03*
X146000Y186658D02*
D03*
X135500Y206343D02*
D03*
X178500Y263843D02*
D03*
D18*
X201500Y206185D02*
D03*
X156500Y206343D02*
D03*
X167500Y186658D02*
D03*
X178500Y206343D02*
D03*
X190000D02*
D03*
X213000Y186658D02*
D03*
X225000D02*
D03*
X237000D02*
D03*
X248000D02*
D03*
X259000D02*
D03*
X269500D02*
D03*
X190000Y244158D02*
D03*
X156500D02*
D03*
X146000Y263843D02*
D03*
X135500Y244158D02*
D03*
X167500Y263843D02*
D03*
X146000Y206343D02*
D03*
X135500Y186658D02*
D03*
X178500Y244158D02*
D03*
D21*
X292004Y367264D02*
D03*
Y377500D02*
D03*
X271504Y367764D02*
D03*
Y378000D02*
D03*
D22*
X292004Y387736D02*
D03*
X271504Y388236D02*
D03*
D24*
X212591Y292500D02*
D03*
Y277500D02*
D03*
Y262500D02*
D03*
Y247500D02*
D03*
D25*
X255410Y292500D02*
D03*
Y277500D02*
D03*
Y262500D02*
D03*
Y247500D02*
D03*
D30*
X179000Y388000D02*
D03*
D31*
X169158D02*
D03*
D33*
X344736Y322500D02*
D03*
X334500D02*
D03*
X303890Y268500D02*
D03*
X345000Y348500D02*
D03*
X334764D02*
D03*
X344736Y374000D02*
D03*
X334500D02*
D03*
X239000Y396185D02*
D03*
Y386343D02*
D03*
X206500Y396185D02*
D03*
Y386343D02*
D03*
D34*
X324264Y322500D02*
D03*
X324528Y348500D02*
D03*
X324264Y374000D02*
D03*
X239000Y376500D02*
D03*
X206500D02*
D03*
D38*
X275075Y203329D02*
X275075D01*
X279250Y213494D02*
X284244Y208500D01*
X268939Y202500D02*
X268941Y202502D01*
X267486Y206343D02*
X269500Y208356D01*
X269095D02*
X269500D01*
X245707Y279842D02*
Y307957D01*
X256400Y269150D02*
X260009D01*
X279250Y249908D01*
X245707Y279842D02*
X256400Y269150D01*
X279250Y213494D02*
Y249908D01*
X212591Y277500D02*
X217953Y282862D01*
Y315487D01*
X218203Y315737D02*
Y322263D01*
X208500Y335500D02*
X218000Y326000D01*
X217953Y315487D02*
X218203Y315737D01*
X219000Y323147D02*
X219293Y322854D01*
X219000Y323147D02*
Y326414D01*
X218000Y322466D02*
X218203Y322263D01*
X219293Y322854D02*
X219379D01*
X218000Y322466D02*
Y326000D01*
X277000Y292000D02*
Y315000D01*
Y292000D02*
X277518Y291482D01*
X277500Y291500D02*
X278000Y292000D01*
X321815D01*
X273000Y319000D02*
X277000Y315000D01*
X171297Y352797D02*
X184000Y365500D01*
X187000D02*
X198000Y376500D01*
X206500D01*
X184000Y365500D02*
X187000D01*
X171297Y271045D02*
Y352797D01*
X179000Y362000D02*
Y388000D01*
X187185Y396185D01*
X166000Y349000D02*
X179000Y362000D01*
X139500Y302500D02*
X140298Y303298D01*
X139500Y262254D02*
Y302500D01*
X146000Y329000D02*
X166000Y349000D01*
X146000Y263843D02*
Y329000D01*
X135500Y258254D02*
X139500Y262254D01*
X186000Y292000D02*
X202500Y275500D01*
X310750Y359750D02*
X315000Y364000D01*
Y370000D01*
X319000Y374000D01*
X324264D01*
X268513Y359750D02*
X310750D01*
X311500Y356500D02*
Y357050D01*
X313700Y359250D02*
X339208D01*
X311500Y357050D02*
X313700Y359250D01*
X248500Y339737D02*
X268513Y359750D01*
X319000Y356000D02*
X323600D01*
X328033Y351567D01*
X339208Y359250D02*
X348506Y349952D01*
Y336506D02*
Y349952D01*
X247500Y340151D02*
X261000Y353651D01*
Y370500D01*
X221158Y386343D02*
X229500Y378000D01*
X206500Y386343D02*
X221158D01*
X206500Y396185D02*
X219315D01*
X239000Y376500D01*
X191000Y348586D02*
X203086Y336500D01*
X179703Y352703D02*
X189297D01*
X191000Y348586D02*
Y351000D01*
X189297Y352703D02*
X191000Y351000D01*
X186000Y349000D02*
X187000Y348000D01*
X202500Y335500D02*
X208500D01*
X187000Y348000D02*
X190000D01*
X202500Y335500D01*
X203086Y336500D02*
X208914D01*
X219000Y326414D01*
X328033Y326270D02*
Y351567D01*
X324264Y322500D02*
X328033Y326270D01*
X294034Y320034D02*
X296062D01*
X293000Y319000D02*
X294034Y320034D01*
X296062D02*
X324528Y348500D01*
X248500Y317764D02*
Y339737D01*
X246034Y315297D02*
X248500Y317764D01*
X247500Y322000D02*
Y340151D01*
X244500Y319000D02*
X247500Y322000D01*
X239617Y315297D02*
X246034D01*
X235914Y319000D02*
X239617Y315297D01*
X234500Y319000D02*
X235914D01*
X263736Y388236D02*
X271504D01*
X224500Y349000D02*
X263736Y388236D01*
X203000Y360500D02*
X214500Y349000D01*
X196500Y360500D02*
X203000D01*
X187185Y396185D02*
X206500D01*
X284244Y233000D02*
Y256025D01*
X255410Y284860D02*
Y292500D01*
Y284860D02*
X284244Y256025D01*
X172297Y289006D02*
Y320534D01*
X174466Y322703D02*
X210797D01*
X214500Y319000D01*
X172297Y320534D02*
X174466Y322703D01*
X176000Y349000D02*
X179703Y352703D01*
X245543Y307957D02*
X245707D01*
X234500Y319000D02*
X245543Y307957D01*
X262211Y348212D02*
X263000Y349000D01*
X262211Y345297D02*
Y348212D01*
X172297Y289006D02*
X181514Y279789D01*
Y247171D02*
Y279789D01*
X171297Y271045D02*
X178500Y263843D01*
Y244158D02*
X181514Y247171D01*
X186000Y292000D02*
Y319000D01*
X135500Y244158D02*
Y258254D01*
X146000Y244158D02*
X156500D01*
X146000Y263843D02*
X163671Y246171D01*
X165486D01*
X167500Y244158D01*
X336736Y314500D02*
X344736Y322500D01*
X278000Y318763D02*
X282263Y314500D01*
X336736D01*
X334500Y322500D02*
X348506Y336506D01*
X212591Y262500D02*
X240409D01*
X255410Y247500D01*
X274534Y322703D02*
X278000Y319236D01*
X266703Y322703D02*
X274534D01*
X278000Y318763D02*
Y319236D01*
X263000Y319000D02*
X266703Y322703D01*
X321815Y292000D02*
X327315Y286500D01*
X347500Y257500D02*
X347685Y257315D01*
D39*
X293000Y349000D02*
D03*
X283000D02*
D03*
X273000D02*
D03*
X263000D02*
D03*
X293000Y319000D02*
D03*
X283000D02*
D03*
X273000D02*
D03*
X224500D02*
D03*
X234500D02*
D03*
X244500D02*
D03*
X214500Y349000D02*
D03*
X224500D02*
D03*
X234500D02*
D03*
X244500D02*
D03*
X176000Y319000D02*
D03*
X186000D02*
D03*
X196000D02*
D03*
X166000Y349000D02*
D03*
X176000D02*
D03*
X186000D02*
D03*
X196000D02*
D03*
D40*
X263000Y319000D02*
D03*
X214500D02*
D03*
X166000D02*
D03*
D41*
X290110Y268500D02*
D03*
D42*
X347000Y286500D02*
D03*
X347500Y257500D02*
D03*
X347685Y227000D02*
D03*
D43*
X327315Y286500D02*
D03*
X327815Y257500D02*
D03*
X328000Y227000D02*
D03*
D44*
X305500Y115500D02*
D03*
X225315D02*
D03*
X144815Y116000D02*
D03*
D45*
X325185Y115500D02*
D03*
X344870D02*
D03*
X245000D02*
D03*
X264685D02*
D03*
X164500Y116000D02*
D03*
X184185D02*
D03*
D46*
X284244Y208500D02*
D03*
X309756D02*
D03*
Y233000D02*
D03*
X284244D02*
D03*
D47*
X192500Y230000D02*
D03*
X206500Y249000D02*
D03*
D48*
X277518Y291482D02*
D03*
X140298Y303298D02*
D03*
X202500Y275500D02*
D03*
X272000Y245000D02*
D03*
X311500Y356500D02*
D03*
X319000Y356000D02*
D03*
X261000Y370500D02*
D03*
X229500Y378000D02*
D03*
X196500Y360500D02*
D03*
X293500Y337000D02*
D03*
D49*
X367000Y258000D02*
D03*
X122500D02*
D03*
X366500Y415500D02*
D03*
X122399Y415101D02*
D03*
M02*
