G04*
G04 #@! TF.GenerationSoftware,Altium Limited,Altium Designer,22.1.2 (22)*
G04*
G04 Layer_Color=32896*
%FSLAX25Y25*%
%MOIN*%
G70*
G04*
G04 #@! TF.SameCoordinates,46FB2184-AB63-4EF3-BAF8-E11F062B861E*
G04*
G04*
G04 #@! TF.FilePolarity,Positive*
G04*
G01*
G75*
%ADD14C,0.01000*%
G36*
X213770Y182077D02*
X213808D01*
Y181962D01*
X213770D01*
Y182000D01*
X213655D01*
Y182077D01*
X213694D01*
Y182115D01*
X213770D01*
Y182077D01*
D02*
G37*
G36*
X213655Y181886D02*
X213808D01*
Y181924D01*
X213885D01*
Y181886D01*
X213923D01*
Y181809D01*
X213770D01*
Y181771D01*
X213808D01*
Y181732D01*
X213847D01*
Y181694D01*
X213885D01*
Y181656D01*
X213962D01*
Y181617D01*
X214000D01*
Y181541D01*
X213962D01*
Y181502D01*
X213923D01*
Y181464D01*
X213962D01*
Y181426D01*
X214000D01*
Y181388D01*
X214038D01*
Y181349D01*
X214077D01*
Y181234D01*
X214038D01*
Y181196D01*
X214077D01*
Y181158D01*
X214115D01*
Y181081D01*
X214153D01*
Y180928D01*
X214192D01*
Y180890D01*
X214230D01*
Y180775D01*
X214268D01*
Y180736D01*
X214306D01*
Y180622D01*
X214192D01*
Y180545D01*
X214230D01*
Y180507D01*
X214345D01*
Y180468D01*
X214383D01*
Y180353D01*
X214306D01*
Y180239D01*
X214421D01*
Y180200D01*
X214460D01*
Y180162D01*
X214498D01*
Y180085D01*
X214460D01*
Y180047D01*
X214383D01*
Y179970D01*
X214421D01*
Y179932D01*
X214345D01*
Y179894D01*
X214268D01*
Y179856D01*
X214077D01*
Y179817D01*
X214038D01*
Y179779D01*
X213808D01*
Y179741D01*
X213770D01*
Y179702D01*
X213579D01*
Y179664D01*
X213540D01*
Y179626D01*
X213349D01*
Y179587D01*
X213311D01*
Y179549D01*
X213196D01*
Y179511D01*
X213119D01*
Y179472D01*
X213042D01*
Y179434D01*
X212928D01*
Y179396D01*
X212813D01*
Y179358D01*
X212774D01*
Y179319D01*
X212660D01*
Y179281D01*
X212506D01*
Y179243D01*
X212468D01*
Y179204D01*
X212353D01*
Y179166D01*
X212276D01*
Y179128D01*
X212238D01*
Y179089D01*
X212123D01*
Y179051D01*
X212047D01*
Y179013D01*
X211932D01*
Y178975D01*
X211893D01*
Y178936D01*
X211817D01*
Y178898D01*
X211740D01*
Y178860D01*
X211664D01*
Y178821D01*
X211625D01*
Y178783D01*
X211510D01*
Y178745D01*
X211472D01*
Y178707D01*
X211434D01*
Y178668D01*
X211281D01*
Y178592D01*
X211127D01*
Y178553D01*
X211089D01*
Y178515D01*
X211051D01*
Y178477D01*
X210936D01*
Y178438D01*
X210859D01*
Y178400D01*
X210821D01*
Y178362D01*
X210783D01*
Y178323D01*
X210668D01*
Y178285D01*
X210630D01*
Y178247D01*
X210553D01*
Y178209D01*
X210515D01*
Y178170D01*
X210476D01*
Y178132D01*
X210361D01*
Y178094D01*
X210323D01*
Y178055D01*
X210285D01*
Y178017D01*
X210208D01*
Y177979D01*
X210170D01*
Y177940D01*
X210093D01*
Y177902D01*
X210017D01*
Y177826D01*
X209940D01*
Y177787D01*
X209902D01*
Y177749D01*
X209787D01*
Y177711D01*
X209749D01*
Y177634D01*
X209634D01*
Y177596D01*
X209595D01*
Y177557D01*
X209557D01*
Y177519D01*
X209519D01*
Y177481D01*
X209442D01*
Y177443D01*
X209404D01*
Y177404D01*
X209366D01*
Y177366D01*
X209289D01*
Y177328D01*
X209251D01*
Y177289D01*
X209174D01*
Y177213D01*
X209136D01*
Y177174D01*
X209059D01*
Y177136D01*
X209021D01*
Y177098D01*
X208982D01*
Y177059D01*
X208906D01*
Y177021D01*
X208868D01*
Y176983D01*
X208829D01*
Y176945D01*
X208791D01*
Y176906D01*
X208714D01*
Y176830D01*
X208638D01*
Y176791D01*
X208599D01*
Y176753D01*
X208561D01*
Y176715D01*
X208485D01*
Y176676D01*
X208446D01*
Y176638D01*
X208408D01*
Y176600D01*
X208370D01*
Y176562D01*
X208331D01*
Y176523D01*
X208293D01*
Y176485D01*
X208255D01*
Y176447D01*
X208178D01*
Y176408D01*
X208140D01*
Y176370D01*
X208102D01*
Y176332D01*
X208063D01*
Y176294D01*
X208025D01*
Y176255D01*
X207987D01*
Y176217D01*
X207948D01*
Y176179D01*
X207910D01*
Y176102D01*
X207834D01*
Y176064D01*
X207795D01*
Y175987D01*
X207719D01*
Y175910D01*
X207642D01*
Y175834D01*
X207604D01*
Y175796D01*
X207565D01*
Y175757D01*
X207527D01*
Y175719D01*
X207489D01*
Y175681D01*
X207451D01*
Y175642D01*
X207412D01*
Y175604D01*
X207374D01*
Y175566D01*
X207336D01*
Y175528D01*
X207297D01*
Y175451D01*
X207259D01*
Y175413D01*
X207221D01*
Y175374D01*
X207182D01*
Y175336D01*
X207144D01*
Y175298D01*
X207106D01*
Y175221D01*
X207029D01*
Y175183D01*
X206991D01*
Y175106D01*
X206914D01*
Y175068D01*
X206876D01*
Y174991D01*
X206838D01*
Y174953D01*
X206799D01*
Y174876D01*
X206723D01*
Y174800D01*
X206684D01*
Y174723D01*
X206646D01*
Y174685D01*
X206608D01*
Y174647D01*
X206570D01*
Y174608D01*
X206531D01*
Y174532D01*
X206493D01*
Y174493D01*
X206455D01*
Y174455D01*
X206416D01*
Y174378D01*
X206378D01*
Y174340D01*
X206340D01*
Y174264D01*
X206301D01*
Y174225D01*
X206263D01*
Y174110D01*
X206187D01*
Y174072D01*
X206148D01*
Y173995D01*
X206110D01*
Y173957D01*
X206072D01*
Y173804D01*
X205957D01*
Y173727D01*
X205918D01*
Y173689D01*
X205880D01*
Y173651D01*
X205918D01*
Y173574D01*
X205880D01*
Y173536D01*
X205765D01*
Y173421D01*
X205727D01*
Y173383D01*
X205689D01*
Y173268D01*
X205650D01*
Y173229D01*
X205612D01*
Y173153D01*
X205574D01*
Y173076D01*
X205535D01*
Y173038D01*
X205497D01*
Y172961D01*
X205459D01*
Y172846D01*
X205382D01*
Y172770D01*
X205344D01*
Y172693D01*
X205306D01*
Y172617D01*
X205267D01*
Y172502D01*
X205229D01*
Y172463D01*
X205191D01*
Y172387D01*
X205152D01*
Y172310D01*
X205114D01*
Y172195D01*
X205076D01*
Y172157D01*
X205037D01*
Y172080D01*
X204999D01*
Y171966D01*
X204961D01*
Y171851D01*
X204923D01*
Y171774D01*
X204884D01*
Y171621D01*
X204846D01*
Y171582D01*
X204808D01*
Y171506D01*
Y171467D01*
Y171353D01*
X204769D01*
Y171314D01*
X204693D01*
Y171084D01*
X204578D01*
Y170970D01*
X204616D01*
Y170855D01*
X204578D01*
Y170816D01*
X204501D01*
Y170702D01*
X204540D01*
Y170663D01*
X204501D01*
Y170587D01*
X204463D01*
Y170548D01*
X204425D01*
Y170357D01*
X204386D01*
Y170318D01*
X204348D01*
Y170127D01*
X204310D01*
Y170050D01*
X204271D01*
Y170012D01*
X204233D01*
Y169744D01*
X204195D01*
Y169667D01*
X204156D01*
Y169438D01*
X204118D01*
Y169323D01*
X204080D01*
Y169131D01*
X204042D01*
Y168940D01*
X204003D01*
Y168748D01*
X203965D01*
Y168480D01*
X203927D01*
Y168212D01*
X203888D01*
Y167829D01*
X203850D01*
Y167561D01*
X203812D01*
Y166603D01*
X203773D01*
Y166527D01*
X203735D01*
Y166488D01*
X201590D01*
Y166527D01*
X201552D01*
Y167293D01*
X201590D01*
Y167714D01*
X201629D01*
Y167829D01*
X201590D01*
Y167867D01*
X201552D01*
Y167982D01*
X201590D01*
Y168020D01*
X201629D01*
Y168174D01*
X201667D01*
Y168442D01*
X201705D01*
Y168595D01*
X201744D01*
Y168633D01*
X201705D01*
Y168672D01*
X201629D01*
Y168710D01*
X201590D01*
Y168748D01*
X201629D01*
Y168786D01*
X201705D01*
Y168825D01*
X201744D01*
Y168978D01*
X201782D01*
Y169169D01*
X201744D01*
Y169208D01*
X201705D01*
Y169284D01*
X201744D01*
Y169323D01*
X201782D01*
Y169361D01*
X201820D01*
Y169438D01*
X201858D01*
Y169476D01*
X201897D01*
Y169591D01*
X201820D01*
Y169629D01*
X201782D01*
Y169667D01*
X201820D01*
Y169706D01*
X201858D01*
Y169744D01*
X201897D01*
Y169821D01*
X201935D01*
Y169859D01*
X201973D01*
Y169936D01*
X201897D01*
Y169974D01*
X201858D01*
Y170012D01*
X201897D01*
Y170089D01*
X201935D01*
Y170127D01*
X201973D01*
Y170204D01*
X202012D01*
Y170242D01*
X202050D01*
Y170280D01*
X202012D01*
Y170318D01*
X201973D01*
Y170433D01*
X202012D01*
Y170472D01*
X202050D01*
Y170548D01*
X202127D01*
Y170587D01*
X202012D01*
Y170625D01*
X202050D01*
Y170702D01*
X202088D01*
Y170778D01*
X202127D01*
Y170893D01*
X202088D01*
Y170931D01*
X202127D01*
Y170970D01*
X202165D01*
Y171008D01*
X202203D01*
Y171161D01*
X202318D01*
Y171238D01*
X202203D01*
Y171314D01*
X202241D01*
Y171353D01*
X202280D01*
Y171391D01*
X202318D01*
Y171429D01*
X202395D01*
Y171467D01*
X202433D01*
Y171506D01*
X202395D01*
Y171544D01*
X202356D01*
Y171506D01*
X202280D01*
Y171582D01*
X202318D01*
Y171621D01*
X202356D01*
Y171697D01*
X202395D01*
Y171774D01*
X202471D01*
Y171812D01*
X202510D01*
Y171889D01*
X202471D01*
Y172004D01*
X202548D01*
Y172042D01*
X202586D01*
Y172080D01*
X202625D01*
Y172157D01*
X202548D01*
Y172272D01*
X202663D01*
Y172234D01*
X202701D01*
Y172272D01*
X202739D01*
Y172310D01*
X202701D01*
Y172348D01*
X202625D01*
Y172463D01*
X202739D01*
Y172425D01*
X202816D01*
Y172502D01*
X202739D01*
Y172578D01*
X202701D01*
Y172617D01*
X202739D01*
Y172655D01*
X202854D01*
Y172693D01*
X202893D01*
Y172808D01*
X202816D01*
Y172885D01*
X202854D01*
Y172923D01*
X202931D01*
Y172846D01*
X202969D01*
Y172961D01*
X202931D01*
Y173076D01*
X203008D01*
Y173229D01*
X203046D01*
Y173268D01*
X203084D01*
Y173383D01*
X203122D01*
Y173421D01*
X203161D01*
Y173536D01*
X203199D01*
Y173574D01*
X203314D01*
Y173536D01*
X203352D01*
Y173612D01*
X203276D01*
Y173651D01*
X203237D01*
Y173689D01*
X203276D01*
Y173766D01*
X203391D01*
Y173727D01*
X203429D01*
Y173804D01*
X203352D01*
Y173919D01*
X203391D01*
Y173957D01*
X203429D01*
Y173919D01*
X203544D01*
Y173995D01*
X203429D01*
Y174110D01*
X203467D01*
Y174149D01*
X203544D01*
Y174225D01*
X203582D01*
Y174302D01*
X203620D01*
Y174378D01*
X203659D01*
Y174455D01*
X203697D01*
Y174532D01*
X203735D01*
Y174570D01*
X203888D01*
Y174608D01*
X203850D01*
Y174647D01*
X203812D01*
Y174723D01*
X203850D01*
Y174761D01*
X203927D01*
Y174723D01*
X204003D01*
Y174800D01*
X204080D01*
Y174838D01*
X204118D01*
Y174915D01*
X204042D01*
Y174876D01*
X204003D01*
Y174838D01*
X203927D01*
Y174953D01*
X204003D01*
Y175030D01*
X204118D01*
Y174991D01*
X204195D01*
Y175068D01*
X204233D01*
Y175106D01*
X204310D01*
Y175183D01*
X204233D01*
Y175145D01*
X204195D01*
Y175106D01*
X204118D01*
Y175145D01*
X204080D01*
Y175183D01*
X204118D01*
Y175221D01*
X204156D01*
Y175259D01*
X204195D01*
Y175298D01*
X204310D01*
Y175259D01*
X204386D01*
Y175374D01*
X204310D01*
Y175413D01*
X204271D01*
Y175451D01*
X204310D01*
Y175489D01*
X204348D01*
Y175528D01*
X204386D01*
Y175566D01*
X204425D01*
Y175604D01*
X204463D01*
Y175642D01*
X204501D01*
Y175681D01*
X204578D01*
Y175642D01*
X204616D01*
Y175719D01*
X204578D01*
Y175834D01*
X204616D01*
Y175872D01*
X204655D01*
Y175910D01*
X204693D01*
Y175949D01*
X204769D01*
Y176102D01*
X204808D01*
Y176140D01*
X204846D01*
Y176217D01*
X204923D01*
Y176294D01*
X204999D01*
Y176332D01*
X205037D01*
Y176408D01*
X205152D01*
Y176370D01*
X205191D01*
Y176408D01*
X205229D01*
Y176447D01*
X205267D01*
Y176485D01*
X205306D01*
Y176523D01*
X205344D01*
Y176562D01*
X205382D01*
Y176600D01*
X205420D01*
Y176676D01*
X205382D01*
Y176638D01*
X205306D01*
Y176562D01*
X205229D01*
Y176523D01*
X205191D01*
Y176485D01*
X205114D01*
Y176562D01*
X205152D01*
Y176600D01*
X205191D01*
Y176638D01*
X205229D01*
Y176676D01*
X205267D01*
Y176715D01*
X205306D01*
Y176753D01*
X205344D01*
Y176791D01*
X205382D01*
Y176830D01*
X205420D01*
Y176868D01*
X205459D01*
Y176906D01*
X205497D01*
Y176945D01*
X205535D01*
Y176983D01*
X205574D01*
Y177021D01*
X205612D01*
Y177059D01*
X205650D01*
Y177098D01*
X205689D01*
Y177136D01*
X205765D01*
Y177059D01*
X205842D01*
Y177136D01*
X205918D01*
Y177213D01*
X205957D01*
Y177251D01*
X205995D01*
Y177289D01*
X206033D01*
Y177328D01*
X206072D01*
Y177366D01*
X206110D01*
Y177404D01*
X206148D01*
Y177443D01*
X206187D01*
Y177481D01*
X206225D01*
Y177519D01*
X206263D01*
Y177557D01*
X206301D01*
Y177596D01*
X206340D01*
Y177634D01*
X206378D01*
Y177672D01*
X206416D01*
Y177711D01*
X206455D01*
Y177749D01*
X206493D01*
Y177787D01*
X206531D01*
Y177826D01*
X206570D01*
Y177864D01*
X206608D01*
Y177940D01*
X206493D01*
Y177864D01*
X206416D01*
Y177787D01*
X206378D01*
Y177749D01*
X206301D01*
Y177672D01*
X206263D01*
Y177634D01*
X206225D01*
Y177596D01*
X206187D01*
Y177557D01*
X206148D01*
Y177519D01*
X206110D01*
Y177481D01*
X206072D01*
Y177443D01*
X206033D01*
Y177366D01*
X205995D01*
Y177328D01*
X205957D01*
Y177289D01*
X205918D01*
Y177251D01*
X205880D01*
Y177213D01*
X205842D01*
Y177174D01*
X205765D01*
Y177289D01*
X205842D01*
Y177328D01*
X205880D01*
Y177404D01*
X205957D01*
Y177481D01*
X206033D01*
Y177557D01*
X206072D01*
Y177596D01*
X206110D01*
Y177634D01*
X206148D01*
Y177672D01*
X206187D01*
Y177711D01*
X206225D01*
Y177749D01*
X206263D01*
Y177787D01*
X206301D01*
Y177826D01*
X206340D01*
Y177864D01*
X206378D01*
Y177902D01*
X206416D01*
Y177940D01*
X206455D01*
Y177979D01*
X206493D01*
Y178017D01*
X206531D01*
Y178055D01*
X206646D01*
Y178094D01*
X206684D01*
Y178132D01*
X206723D01*
Y178170D01*
X206761D01*
Y178209D01*
X206799D01*
Y178247D01*
X206838D01*
Y178285D01*
X206876D01*
Y178323D01*
X206914D01*
Y178362D01*
X206953D01*
Y178400D01*
X207029D01*
Y178438D01*
X207067D01*
Y178515D01*
X207144D01*
Y178553D01*
X207182D01*
Y178592D01*
X207221D01*
Y178630D01*
X207297D01*
Y178668D01*
X207374D01*
Y178707D01*
X207412D01*
Y178745D01*
X207451D01*
Y178783D01*
X207489D01*
Y178821D01*
X207527D01*
Y178860D01*
X207565D01*
Y178898D01*
X207604D01*
Y178975D01*
X207757D01*
Y179013D01*
X207795D01*
Y179051D01*
X207834D01*
Y179089D01*
X207872D01*
Y179166D01*
X207948D01*
Y179204D01*
X207987D01*
Y179243D01*
X208102D01*
Y179281D01*
X208140D01*
Y179319D01*
X208178D01*
Y179358D01*
X208217D01*
Y179396D01*
X208255D01*
Y179434D01*
X208331D01*
Y179511D01*
X208485D01*
Y179549D01*
X208523D01*
Y179626D01*
X208599D01*
Y179664D01*
X208638D01*
Y179702D01*
X208753D01*
Y179741D01*
X208791D01*
Y179779D01*
X208829D01*
Y179817D01*
X208906D01*
Y179856D01*
X208944D01*
Y179894D01*
X209059D01*
Y179970D01*
X209097D01*
Y180009D01*
X209251D01*
Y180085D01*
X209404D01*
Y180124D01*
X209442D01*
Y180162D01*
X209480D01*
Y180200D01*
X209519D01*
Y180239D01*
X209557D01*
Y180277D01*
X209672D01*
Y180315D01*
X209710D01*
Y180353D01*
X209863D01*
Y180430D01*
X209940D01*
Y180468D01*
X210055D01*
Y180507D01*
X210093D01*
Y180545D01*
X210132D01*
Y180622D01*
X210246D01*
Y180660D01*
X210285D01*
Y180698D01*
X210361D01*
Y180736D01*
X210476D01*
Y180813D01*
X210630D01*
Y180890D01*
X210821D01*
Y180966D01*
X210974D01*
Y181005D01*
X211013D01*
Y181043D01*
X211051D01*
Y181081D01*
X211204D01*
Y181158D01*
X211242D01*
Y181120D01*
X211357D01*
Y181158D01*
X211434D01*
Y181196D01*
X211510D01*
Y181234D01*
X211549D01*
Y181273D01*
X211702D01*
Y181311D01*
X211740D01*
Y181349D01*
X211778D01*
Y181388D01*
X212008D01*
Y181464D01*
X212161D01*
Y181502D01*
X212200D01*
Y181541D01*
X212238D01*
Y181579D01*
X212276D01*
Y181541D01*
X212391D01*
Y181579D01*
X212430D01*
Y181617D01*
X212468D01*
Y181656D01*
X212621D01*
Y181732D01*
X212851D01*
Y181771D01*
X212889D01*
Y181809D01*
X212928D01*
Y181847D01*
X213119D01*
Y181886D01*
X213157D01*
Y181924D01*
X213387D01*
Y182000D01*
X213655D01*
Y181886D01*
D02*
G37*
G36*
X214996Y178668D02*
X215034D01*
Y178630D01*
X214996D01*
Y178592D01*
X214881D01*
Y178515D01*
X214919D01*
Y178477D01*
X215072D01*
Y178438D01*
X215111D01*
Y178362D01*
X215072D01*
Y178323D01*
X215034D01*
Y178247D01*
X215072D01*
Y178209D01*
X215187D01*
Y178094D01*
X215149D01*
Y178017D01*
X215187D01*
Y177979D01*
X215226D01*
Y177940D01*
X215302D01*
Y177864D01*
X215264D01*
Y177826D01*
X215226D01*
Y177787D01*
X215340D01*
Y177749D01*
X215379D01*
Y177672D01*
X215226D01*
Y177634D01*
X215264D01*
Y177596D01*
X215340D01*
Y177557D01*
X215379D01*
Y177519D01*
X215417D01*
Y177481D01*
X215456D01*
Y177404D01*
X215340D01*
Y177328D01*
X215456D01*
Y177289D01*
X215494D01*
Y177213D01*
X215532D01*
Y177059D01*
X215570D01*
Y176983D01*
X215609D01*
Y176906D01*
X215532D01*
Y176868D01*
X215570D01*
Y176830D01*
X215609D01*
Y176791D01*
X215647D01*
Y176753D01*
X215685D01*
Y176676D01*
X215609D01*
Y176638D01*
X215570D01*
Y176600D01*
X215609D01*
Y176562D01*
X215724D01*
Y176523D01*
X215762D01*
Y176370D01*
X215685D01*
Y176294D01*
X215724D01*
Y176332D01*
X215839D01*
Y176294D01*
X215877D01*
Y176255D01*
X215839D01*
Y176217D01*
X215800D01*
Y176179D01*
X215762D01*
Y176102D01*
X215877D01*
Y176064D01*
X215915D01*
Y176025D01*
X215953D01*
Y175987D01*
X215915D01*
Y175949D01*
X215877D01*
Y175834D01*
X216030D01*
Y175719D01*
X215992D01*
Y175604D01*
X215953D01*
Y175566D01*
X216145D01*
Y175489D01*
X216107D01*
Y175451D01*
X216030D01*
Y175413D01*
X215953D01*
Y175374D01*
X215877D01*
Y175336D01*
X215762D01*
Y175298D01*
X215647D01*
Y175259D01*
X215532D01*
Y175221D01*
X215456D01*
Y175183D01*
X215340D01*
Y175145D01*
X215226D01*
Y175106D01*
X215149D01*
Y175068D01*
X214996D01*
Y175030D01*
X214957D01*
Y174991D01*
X214804D01*
Y174953D01*
X214766D01*
Y174915D01*
X214728D01*
Y174876D01*
X214613D01*
Y174838D01*
X214536D01*
Y174800D01*
X214421D01*
Y174761D01*
X214383D01*
Y174723D01*
X214306D01*
Y174685D01*
X214192D01*
Y174647D01*
X214153D01*
Y174608D01*
X214038D01*
Y174570D01*
X213962D01*
Y174532D01*
X213923D01*
Y174493D01*
X213885D01*
Y174455D01*
X213770D01*
Y174417D01*
X213732D01*
Y174378D01*
X213617D01*
Y174340D01*
X213579D01*
Y174302D01*
X213502D01*
Y174264D01*
X213464D01*
Y174225D01*
X213425D01*
Y174187D01*
X213349D01*
Y174149D01*
X213272D01*
Y174110D01*
X213196D01*
Y174072D01*
X213157D01*
Y174034D01*
X213119D01*
Y173995D01*
X213042D01*
Y173957D01*
X213004D01*
Y173919D01*
X212928D01*
Y173881D01*
X212889D01*
Y173842D01*
X212851D01*
Y173804D01*
X212774D01*
Y173766D01*
X212736D01*
Y173727D01*
X212660D01*
Y173651D01*
X212621D01*
Y173612D01*
X212506D01*
Y173536D01*
X212430D01*
Y173497D01*
X212391D01*
Y173459D01*
X212315D01*
Y173383D01*
X212276D01*
Y173344D01*
X212200D01*
Y173306D01*
X212161D01*
Y173268D01*
X212123D01*
Y173229D01*
X212085D01*
Y173153D01*
X211970D01*
Y173076D01*
X211932D01*
Y173038D01*
X211893D01*
Y173000D01*
X211855D01*
Y172961D01*
X211817D01*
Y172923D01*
X211778D01*
Y172885D01*
X211740D01*
Y172846D01*
X211702D01*
Y172808D01*
X211664D01*
Y172770D01*
X211625D01*
Y172731D01*
X211587D01*
Y172693D01*
X211549D01*
Y172655D01*
X211510D01*
Y172617D01*
X211472D01*
Y172578D01*
X211434D01*
Y172502D01*
X211396D01*
Y172463D01*
X211357D01*
Y172425D01*
X211281D01*
Y172387D01*
X211242D01*
Y172348D01*
X211204D01*
Y172310D01*
X211166D01*
Y172272D01*
X211127D01*
Y172234D01*
X211089D01*
Y172157D01*
X211051D01*
Y172119D01*
X211013D01*
Y172042D01*
X210936D01*
Y172004D01*
X210898D01*
Y171889D01*
X210821D01*
Y171812D01*
X210783D01*
Y171774D01*
X210744D01*
Y171697D01*
X210706D01*
Y171659D01*
X210668D01*
Y171621D01*
X210630D01*
Y171544D01*
X210591D01*
Y171506D01*
X210553D01*
Y171391D01*
X210515D01*
Y171353D01*
X210438D01*
Y171276D01*
X210400D01*
Y171238D01*
X210361D01*
Y171084D01*
X210285D01*
Y171046D01*
X210246D01*
Y170970D01*
X210208D01*
Y170816D01*
X210170D01*
Y170778D01*
X210093D01*
Y170625D01*
X210055D01*
Y170587D01*
X210017D01*
Y170472D01*
X209978D01*
Y170433D01*
X209940D01*
Y170318D01*
X209902D01*
Y170280D01*
X209863D01*
Y170165D01*
X209825D01*
Y170127D01*
X209787D01*
Y170089D01*
X209749D01*
Y169897D01*
X209710D01*
Y169859D01*
X209672D01*
Y169782D01*
X209634D01*
Y169667D01*
X209595D01*
Y169629D01*
X209557D01*
Y169476D01*
X209519D01*
Y169399D01*
X209480D01*
Y169284D01*
X209442D01*
Y169169D01*
X209404D01*
Y169016D01*
X209366D01*
Y168940D01*
X209327D01*
Y168786D01*
X209289D01*
Y168633D01*
X209251D01*
Y168557D01*
X209212D01*
Y168289D01*
X209174D01*
Y168135D01*
X209136D01*
Y167829D01*
X209097D01*
Y167714D01*
X209059D01*
Y167561D01*
X209097D01*
Y167446D01*
X209059D01*
Y167063D01*
X209021D01*
Y166565D01*
X208982D01*
Y166527D01*
X208906D01*
Y166488D01*
X205497D01*
Y166527D01*
X205420D01*
Y166565D01*
X205382D01*
Y166986D01*
X205420D01*
Y167025D01*
X205306D01*
Y167139D01*
X205420D01*
Y167637D01*
X205459D01*
Y167867D01*
X205497D01*
Y167905D01*
X205459D01*
Y167944D01*
X205420D01*
Y167982D01*
X205382D01*
Y168020D01*
X205420D01*
Y168059D01*
X205459D01*
Y168097D01*
X205497D01*
Y168212D01*
X205535D01*
Y168442D01*
X205574D01*
Y168557D01*
X205535D01*
Y168595D01*
X205459D01*
Y168672D01*
X205535D01*
Y168710D01*
X205612D01*
Y168863D01*
X205650D01*
Y169016D01*
X205574D01*
Y169131D01*
X205650D01*
Y169169D01*
X205689D01*
Y169208D01*
X205727D01*
Y169323D01*
X205689D01*
Y169361D01*
X205650D01*
Y169399D01*
X205689D01*
Y169438D01*
X205727D01*
Y169476D01*
X205765D01*
Y169553D01*
X205803D01*
Y169591D01*
X205842D01*
Y169667D01*
X205765D01*
Y169706D01*
X205727D01*
Y169744D01*
X205765D01*
Y169821D01*
X205880D01*
Y169859D01*
X205918D01*
Y169897D01*
X205957D01*
Y169936D01*
X205880D01*
Y169974D01*
X205842D01*
Y170089D01*
X205918D01*
Y170127D01*
X205995D01*
Y170204D01*
X205957D01*
Y170242D01*
X205918D01*
Y170318D01*
X205957D01*
Y170357D01*
X205995D01*
Y170395D01*
X206033D01*
Y170472D01*
X205995D01*
Y170510D01*
X206033D01*
Y170625D01*
X206072D01*
Y170778D01*
X206110D01*
Y170816D01*
X206148D01*
Y170893D01*
X206263D01*
Y170970D01*
X206148D01*
Y171046D01*
X206187D01*
Y171084D01*
X206263D01*
Y171161D01*
X206225D01*
Y171238D01*
X206301D01*
Y171276D01*
X206340D01*
Y171429D01*
X206416D01*
Y171582D01*
X206455D01*
Y171621D01*
X206493D01*
Y171736D01*
X206531D01*
Y171774D01*
X206570D01*
Y171889D01*
X206608D01*
Y171927D01*
X206684D01*
Y171889D01*
X206761D01*
Y171966D01*
X206684D01*
Y172080D01*
X206723D01*
Y172119D01*
X206761D01*
Y172080D01*
X206799D01*
Y172042D01*
X206838D01*
Y172119D01*
X206799D01*
Y172157D01*
X206761D01*
Y172272D01*
X206876D01*
Y172234D01*
X206953D01*
Y172310D01*
X206914D01*
Y172348D01*
X206876D01*
Y172387D01*
X206838D01*
Y172425D01*
X206876D01*
Y172463D01*
X206953D01*
Y172425D01*
X207029D01*
Y172463D01*
X207067D01*
Y172502D01*
X206991D01*
Y172540D01*
X206953D01*
Y172655D01*
X207029D01*
Y172617D01*
X207067D01*
Y172578D01*
X207106D01*
Y172617D01*
X207144D01*
Y172693D01*
X207106D01*
Y172731D01*
X207029D01*
Y172808D01*
X207067D01*
Y172846D01*
X207144D01*
Y172923D01*
X207259D01*
Y172885D01*
X207297D01*
Y172961D01*
X207259D01*
Y173000D01*
X207221D01*
Y173076D01*
X207259D01*
Y173115D01*
X207336D01*
Y173191D01*
X207374D01*
Y173229D01*
X207412D01*
Y173344D01*
X207451D01*
Y173383D01*
X207527D01*
Y173536D01*
X207565D01*
Y173574D01*
X207604D01*
Y173612D01*
X207642D01*
Y173651D01*
X207795D01*
Y173689D01*
X207834D01*
Y173727D01*
X207872D01*
Y173766D01*
X207910D01*
Y173804D01*
X207948D01*
Y173842D01*
X207987D01*
Y173881D01*
X207910D01*
Y173842D01*
X207872D01*
Y173804D01*
X207795D01*
Y173727D01*
X207719D01*
Y173766D01*
X207680D01*
Y173804D01*
X207719D01*
Y173842D01*
X207757D01*
Y173881D01*
X207795D01*
Y173919D01*
X207834D01*
Y173957D01*
X207872D01*
Y173995D01*
X207910D01*
Y174034D01*
X207948D01*
Y174072D01*
X207987D01*
Y174110D01*
X208063D01*
Y174072D01*
X208102D01*
Y174034D01*
X208140D01*
Y174110D01*
X208178D01*
Y174149D01*
X208217D01*
Y174187D01*
X208255D01*
Y174264D01*
X208178D01*
Y174187D01*
X208063D01*
Y174264D01*
X208102D01*
Y174302D01*
X208140D01*
Y174340D01*
X208178D01*
Y174378D01*
X208217D01*
Y174417D01*
X208255D01*
Y174455D01*
X208293D01*
Y174493D01*
X208331D01*
Y174532D01*
X208370D01*
Y174570D01*
X208408D01*
Y174608D01*
X208523D01*
Y174570D01*
X208599D01*
Y174647D01*
X208676D01*
Y174723D01*
X208714D01*
Y174761D01*
X208753D01*
Y174800D01*
X208791D01*
Y174838D01*
X208829D01*
Y174876D01*
X208868D01*
Y174953D01*
X208829D01*
Y174915D01*
X208791D01*
Y174876D01*
X208753D01*
Y174838D01*
X208714D01*
Y174800D01*
X208676D01*
Y174761D01*
X208638D01*
Y174723D01*
X208599D01*
Y174685D01*
X208561D01*
Y174647D01*
X208523D01*
Y174761D01*
X208561D01*
Y174800D01*
X208599D01*
Y174838D01*
X208638D01*
Y174915D01*
X208676D01*
Y174953D01*
X208714D01*
Y174991D01*
X208753D01*
Y175030D01*
X208791D01*
Y175068D01*
X208829D01*
Y175106D01*
X208868D01*
Y175145D01*
X208906D01*
Y175183D01*
X208944D01*
Y175221D01*
X208982D01*
Y175259D01*
X209021D01*
Y175298D01*
X209059D01*
Y175336D01*
X209097D01*
Y175374D01*
X209136D01*
Y175413D01*
X209174D01*
Y175451D01*
X209212D01*
Y175489D01*
X209251D01*
Y175566D01*
X209327D01*
Y175604D01*
X209366D01*
Y175642D01*
X209404D01*
Y175681D01*
X209442D01*
Y175719D01*
X209480D01*
Y175757D01*
X209519D01*
Y175719D01*
X209557D01*
Y175757D01*
X209634D01*
Y175834D01*
X209710D01*
Y175872D01*
X209749D01*
Y175910D01*
X209787D01*
Y175949D01*
X209825D01*
Y175987D01*
X209863D01*
Y176025D01*
X209902D01*
Y176064D01*
X209940D01*
Y176102D01*
X209978D01*
Y176140D01*
X210055D01*
Y176179D01*
X210132D01*
Y176217D01*
X210170D01*
Y176255D01*
X210208D01*
Y176294D01*
X210246D01*
Y176370D01*
X210285D01*
Y176408D01*
X210361D01*
Y176485D01*
X210476D01*
Y176523D01*
X210515D01*
Y176562D01*
X210553D01*
Y176600D01*
X210630D01*
Y176676D01*
X210783D01*
Y176715D01*
X210821D01*
Y176753D01*
X210859D01*
Y176791D01*
X210898D01*
Y176830D01*
X210936D01*
Y176868D01*
X210974D01*
Y176906D01*
X211013D01*
Y176945D01*
X211166D01*
Y176983D01*
X211204D01*
Y177021D01*
X211281D01*
Y177059D01*
X211357D01*
Y177098D01*
X211396D01*
Y177136D01*
X211472D01*
Y177174D01*
X211510D01*
Y177213D01*
X211587D01*
Y177251D01*
X211625D01*
Y177289D01*
X211664D01*
Y177328D01*
X211817D01*
Y177404D01*
X211855D01*
Y177443D01*
X212008D01*
Y177519D01*
X212161D01*
Y177557D01*
X212200D01*
Y177596D01*
X212353D01*
Y177672D01*
X212391D01*
Y177711D01*
X212544D01*
Y177787D01*
X212698D01*
Y177826D01*
X212736D01*
Y177864D01*
X212813D01*
Y177902D01*
X212889D01*
Y177940D01*
X212928D01*
Y177979D01*
X213042D01*
Y178017D01*
X213081D01*
Y178055D01*
X213196D01*
Y178094D01*
X213234D01*
Y178132D01*
X213387D01*
Y178017D01*
X213234D01*
Y177940D01*
X213311D01*
Y177979D01*
X213425D01*
Y178017D01*
X213464D01*
Y178055D01*
X213502D01*
Y178132D01*
X213387D01*
Y178209D01*
X213425D01*
Y178247D01*
X213655D01*
Y178285D01*
X213694D01*
Y178323D01*
X213847D01*
Y178400D01*
X214077D01*
Y178438D01*
X214115D01*
Y178477D01*
X214306D01*
Y178515D01*
X214383D01*
Y178553D01*
X214575D01*
Y178592D01*
X214613D01*
Y178630D01*
X214843D01*
Y178707D01*
X214996D01*
Y178668D01*
D02*
G37*
G36*
X317337Y173459D02*
X317490D01*
Y173421D01*
X317529D01*
Y173383D01*
X318678D01*
Y173344D01*
X318716D01*
Y173306D01*
X319329D01*
Y173268D01*
X319367D01*
Y173229D01*
X319789D01*
Y173191D01*
X319827D01*
Y173153D01*
X320171D01*
Y173115D01*
X320248D01*
Y173076D01*
X320516D01*
Y173038D01*
X320554D01*
Y173000D01*
X320784D01*
Y172961D01*
X320823D01*
Y172923D01*
X320861D01*
Y172885D01*
X320976D01*
Y172923D01*
X321014D01*
Y172885D01*
X321091D01*
Y172808D01*
X321321D01*
Y172770D01*
X321359D01*
Y172731D01*
X321474D01*
Y172693D01*
X321512D01*
Y172655D01*
X321589D01*
Y172617D01*
X321665D01*
Y172578D01*
X321704D01*
Y172540D01*
X321895D01*
Y172502D01*
X321933D01*
Y172463D01*
X322087D01*
Y172425D01*
X322125D01*
Y172387D01*
X322163D01*
Y172348D01*
X322201D01*
Y172272D01*
X322355D01*
Y172234D01*
X322393D01*
Y172195D01*
X322546D01*
Y172119D01*
X322585D01*
Y172080D01*
X322661D01*
Y172042D01*
X322699D01*
Y172004D01*
X322814D01*
Y171966D01*
X322853D01*
Y171927D01*
X322891D01*
Y171889D01*
X322929D01*
Y171812D01*
X323044D01*
Y171774D01*
X323121D01*
Y171736D01*
X323159D01*
Y171697D01*
X323197D01*
Y171659D01*
X323236D01*
Y171621D01*
X323274D01*
Y171582D01*
X323312D01*
Y171544D01*
X323351D01*
Y171506D01*
X323389D01*
Y171467D01*
X323427D01*
Y171429D01*
X323465D01*
Y171391D01*
X323504D01*
Y171353D01*
X323542D01*
Y171314D01*
X323580D01*
Y171276D01*
X323619D01*
Y171238D01*
X323657D01*
Y171199D01*
X323695D01*
Y171161D01*
X323734D01*
Y171123D01*
X323772D01*
Y171084D01*
X323810D01*
Y171046D01*
X323849D01*
Y170893D01*
X323925D01*
Y170855D01*
X323963D01*
Y170816D01*
X324002D01*
Y170778D01*
X324040D01*
Y170702D01*
X324078D01*
Y170663D01*
X324117D01*
Y170548D01*
X324155D01*
Y170510D01*
X324232D01*
Y170395D01*
X324270D01*
Y170357D01*
X324308D01*
Y170242D01*
X324346D01*
Y170165D01*
X324385D01*
Y170127D01*
X324423D01*
Y169974D01*
X324500D01*
Y169821D01*
X324538D01*
Y169782D01*
X324576D01*
Y169744D01*
X324615D01*
Y169667D01*
X324576D01*
Y169591D01*
X324615D01*
Y169553D01*
X324653D01*
Y169514D01*
X324691D01*
Y169284D01*
X324729D01*
Y169246D01*
X324768D01*
Y169054D01*
X324806D01*
Y169016D01*
X324844D01*
Y168710D01*
X324883D01*
Y168672D01*
X324959D01*
Y168250D01*
X324997D01*
Y168212D01*
X325036D01*
Y167599D01*
X325074D01*
Y167561D01*
X325112D01*
Y167484D01*
X325151D01*
Y167446D01*
X325112D01*
Y152278D01*
X325151D01*
Y152164D01*
X325112D01*
Y152125D01*
X325074D01*
Y152087D01*
X325036D01*
Y151321D01*
X324959D01*
Y150938D01*
X324921D01*
Y150900D01*
X324883D01*
Y150823D01*
X324844D01*
Y150670D01*
X324806D01*
Y150632D01*
X324768D01*
Y150325D01*
X324729D01*
Y150287D01*
X324691D01*
Y150134D01*
X324615D01*
Y150095D01*
X324576D01*
Y149980D01*
X324615D01*
Y149904D01*
X324576D01*
Y149865D01*
X324538D01*
Y149827D01*
X324500D01*
Y149674D01*
X324423D01*
Y149559D01*
X324385D01*
Y149483D01*
X324346D01*
Y149406D01*
X324308D01*
Y149329D01*
X324270D01*
Y149253D01*
X324232D01*
Y149176D01*
X324193D01*
Y149138D01*
X324155D01*
Y149100D01*
X324117D01*
Y148985D01*
X324078D01*
Y148946D01*
X324040D01*
Y148908D01*
X324002D01*
Y148870D01*
X323963D01*
Y148831D01*
X323925D01*
Y148678D01*
X323887D01*
Y148640D01*
X323849D01*
Y148602D01*
X323810D01*
Y148563D01*
X323772D01*
Y148525D01*
X323734D01*
Y148487D01*
X323695D01*
Y148448D01*
X323657D01*
Y148410D01*
X323619D01*
Y148372D01*
X323580D01*
Y148334D01*
X323542D01*
Y148295D01*
X323504D01*
Y148257D01*
X323465D01*
Y148219D01*
X323389D01*
Y148180D01*
X323351D01*
Y148142D01*
X323312D01*
Y148104D01*
X323274D01*
Y148065D01*
X323236D01*
Y148027D01*
X323197D01*
Y147989D01*
X323159D01*
Y147950D01*
X323121D01*
Y147912D01*
X323082D01*
Y147874D01*
X323044D01*
Y147836D01*
X323006D01*
Y147797D01*
X322968D01*
Y147759D01*
X322891D01*
Y147721D01*
X322814D01*
Y147682D01*
X322776D01*
Y147644D01*
X322738D01*
Y147606D01*
X322699D01*
Y147567D01*
X322585D01*
Y147529D01*
X322546D01*
Y147491D01*
X322508D01*
Y147452D01*
X322470D01*
Y147414D01*
X322431D01*
Y147376D01*
X322316D01*
Y147338D01*
X322278D01*
Y147299D01*
X322125D01*
Y147261D01*
X322087D01*
Y147184D01*
X321933D01*
Y147146D01*
X321895D01*
Y147108D01*
X321780D01*
Y147070D01*
X321742D01*
Y147031D01*
X321665D01*
Y146993D01*
X321550D01*
Y146955D01*
X321512D01*
Y146916D01*
X321435D01*
Y146878D01*
X321206D01*
Y146840D01*
X321167D01*
Y146801D01*
X321091D01*
Y146763D01*
X321053D01*
Y146801D01*
X320938D01*
Y146763D01*
X320899D01*
Y146725D01*
X320861D01*
Y146686D01*
X320746D01*
Y146725D01*
X320708D01*
Y146686D01*
X320669D01*
Y146648D01*
X320631D01*
Y146610D01*
X320401D01*
Y146572D01*
X320363D01*
Y146533D01*
X320095D01*
Y146495D01*
X320057D01*
Y146457D01*
X319635D01*
Y146380D01*
X319597D01*
Y146342D01*
X319022D01*
Y146303D01*
X318984D01*
Y146265D01*
X318256D01*
Y146227D01*
X318218D01*
Y146189D01*
X285738D01*
Y146227D01*
X285700D01*
Y152470D01*
X285738D01*
Y152508D01*
X285777D01*
Y152547D01*
X285815D01*
Y152585D01*
X285854D01*
Y152623D01*
X317529D01*
Y152662D01*
X317567D01*
Y152700D01*
X317682D01*
Y152738D01*
X317720D01*
Y152776D01*
X317835D01*
Y152815D01*
X317873D01*
Y152853D01*
X317912D01*
Y152891D01*
X317950D01*
Y152930D01*
X317988D01*
Y152968D01*
X318027D01*
Y153006D01*
X318065D01*
Y153045D01*
X318103D01*
Y153083D01*
X318142D01*
Y153121D01*
X318180D01*
Y153159D01*
X318218D01*
Y153198D01*
X318256D01*
Y153389D01*
X318295D01*
Y153428D01*
X318333D01*
Y166259D01*
X318295D01*
Y166297D01*
X318256D01*
Y166373D01*
X318218D01*
Y166450D01*
X318180D01*
Y166488D01*
X318142D01*
Y166603D01*
X318103D01*
Y166642D01*
X318065D01*
Y166680D01*
X318027D01*
Y166718D01*
X317988D01*
Y166756D01*
X317950D01*
Y166795D01*
X317797D01*
Y166833D01*
X317758D01*
Y166871D01*
X317682D01*
Y166910D01*
X317605D01*
Y166948D01*
X317414D01*
Y166986D01*
X317375D01*
Y167025D01*
X285854D01*
Y167063D01*
X285815D01*
Y173383D01*
X285854D01*
Y173421D01*
X285892D01*
Y173459D01*
X285930D01*
Y173497D01*
X286007D01*
Y173459D01*
X317299D01*
Y173497D01*
X317337D01*
Y173459D01*
D02*
G37*
G36*
X279342Y172923D02*
X279380D01*
Y159862D01*
X279419D01*
Y159824D01*
X279457D01*
Y159862D01*
X283019D01*
Y159900D01*
X283057D01*
Y165224D01*
X283096D01*
Y165263D01*
X283555D01*
Y165224D01*
X283594D01*
Y165110D01*
X283632D01*
Y165071D01*
X283594D01*
Y164956D01*
X283632D01*
Y159824D01*
X283594D01*
Y159709D01*
X283632D01*
Y159594D01*
X283709D01*
Y159632D01*
X283670D01*
Y159824D01*
X283709D01*
Y159862D01*
X283862D01*
Y159900D01*
X283900D01*
Y159939D01*
X283977D01*
Y159977D01*
X284092D01*
Y160015D01*
X284130D01*
Y160054D01*
X284283D01*
Y160092D01*
X284321D01*
Y160130D01*
X284360D01*
Y160169D01*
X284513D01*
Y160245D01*
X284666D01*
Y160284D01*
X284704D01*
Y160322D01*
X284819D01*
Y160360D01*
X284858D01*
Y160398D01*
X284896D01*
Y160437D01*
X285049D01*
Y160475D01*
X285087D01*
Y160513D01*
X285164D01*
Y160552D01*
X285241D01*
Y160590D01*
X285317D01*
Y160628D01*
X285394D01*
Y160667D01*
X285432D01*
Y160705D01*
X285547D01*
Y160743D01*
X285585D01*
Y160781D01*
X285700D01*
Y160820D01*
X285738D01*
Y160858D01*
X285854D01*
Y160896D01*
X285892D01*
Y160935D01*
X285930D01*
Y160973D01*
X286083D01*
Y161049D01*
X286237D01*
Y161088D01*
X286275D01*
Y161126D01*
X286351D01*
Y161164D01*
X286428D01*
Y161203D01*
X286505D01*
Y161241D01*
X286619D01*
Y161279D01*
X286658D01*
Y161318D01*
X286734D01*
Y161356D01*
X286811D01*
Y161433D01*
X286964D01*
Y161471D01*
X287002D01*
Y161509D01*
X287041D01*
Y161548D01*
X287156D01*
Y161586D01*
X287194D01*
Y161624D01*
X287347D01*
Y161662D01*
X287386D01*
Y161701D01*
X287500D01*
Y161739D01*
X287539D01*
Y161777D01*
X287577D01*
Y161816D01*
X287692D01*
Y161854D01*
X287730D01*
Y161892D01*
X287845D01*
Y161931D01*
X287883D01*
Y161969D01*
X287998D01*
Y162007D01*
X288037D01*
Y162045D01*
X288113D01*
Y162084D01*
X288190D01*
Y162122D01*
X288228D01*
Y162160D01*
X288343D01*
Y162199D01*
X288381D01*
Y162237D01*
X288535D01*
Y162275D01*
X288573D01*
Y162313D01*
X288611D01*
Y162352D01*
X288726D01*
Y162390D01*
X288764D01*
Y162428D01*
X288918D01*
Y162467D01*
X288956D01*
Y162505D01*
X289071D01*
Y162543D01*
X289109D01*
Y162582D01*
X289186D01*
Y162620D01*
X289301D01*
Y162658D01*
X289339D01*
Y162697D01*
X289416D01*
Y162735D01*
X289530D01*
Y162773D01*
X289569D01*
Y162811D01*
X289722D01*
Y162850D01*
X289760D01*
Y162888D01*
X289798D01*
Y162926D01*
X289837D01*
Y162888D01*
X289875D01*
Y162926D01*
X289913D01*
Y162965D01*
X289952D01*
Y163003D01*
X290105D01*
Y163041D01*
X290143D01*
Y163080D01*
X290258D01*
Y163118D01*
X290296D01*
Y163156D01*
X290335D01*
Y163194D01*
X290450D01*
Y163233D01*
X290488D01*
Y163271D01*
X290603D01*
Y163309D01*
X290641D01*
Y163348D01*
X290756D01*
Y163386D01*
X290794D01*
Y163424D01*
X290871D01*
Y163462D01*
X290948D01*
Y163501D01*
X290986D01*
Y163539D01*
X291101D01*
Y163577D01*
X291139D01*
Y163616D01*
X291292D01*
Y163654D01*
X291331D01*
Y163692D01*
X291369D01*
Y163731D01*
X291407D01*
Y163769D01*
X291445D01*
Y163807D01*
X291560D01*
Y163846D01*
X291599D01*
Y163884D01*
X291752D01*
Y163922D01*
X291790D01*
Y163960D01*
X291867D01*
Y163999D01*
X291982D01*
Y164037D01*
X292020D01*
Y164075D01*
X292097D01*
Y164114D01*
X292212D01*
Y164152D01*
X292250D01*
Y164190D01*
X292403D01*
Y164267D01*
X292556D01*
Y164305D01*
X292595D01*
Y164344D01*
X292633D01*
Y164382D01*
X292786D01*
Y164458D01*
X292939D01*
Y164497D01*
X292977D01*
Y164535D01*
X293016D01*
Y164573D01*
X293131D01*
Y164612D01*
X293169D01*
Y164650D01*
X293284D01*
Y164688D01*
X293322D01*
Y164726D01*
X293399D01*
Y164765D01*
X293475D01*
Y164803D01*
X293552D01*
Y164841D01*
X293629D01*
Y164880D01*
X293667D01*
Y164918D01*
X293782D01*
Y164956D01*
X293820D01*
Y164995D01*
X293935D01*
Y165033D01*
X293973D01*
Y165071D01*
X294127D01*
Y165110D01*
X294165D01*
Y165148D01*
X294203D01*
Y165186D01*
X294318D01*
Y165224D01*
X294356D01*
Y165263D01*
X294471D01*
Y165186D01*
X294510D01*
Y165071D01*
X294548D01*
Y159900D01*
X294586D01*
Y159862D01*
X298684D01*
Y159900D01*
X298723D01*
Y162045D01*
X298761D01*
Y162084D01*
X316112D01*
Y162045D01*
X316188D01*
Y157564D01*
X316150D01*
Y157526D01*
X316112D01*
Y157487D01*
X315997D01*
Y157526D01*
X315920D01*
Y157487D01*
X298953D01*
Y157526D01*
X298914D01*
Y157487D01*
X298799D01*
Y157526D01*
X298723D01*
Y159288D01*
X294548D01*
Y153926D01*
X294586D01*
Y153849D01*
X294510D01*
Y153887D01*
X294471D01*
Y153926D01*
X294318D01*
Y153964D01*
X294280D01*
Y154002D01*
X294165D01*
Y154040D01*
X294127D01*
Y154079D01*
X294088D01*
Y154117D01*
X293935D01*
Y154194D01*
X293782D01*
Y154232D01*
X293744D01*
Y154270D01*
X293667D01*
Y154308D01*
X293590D01*
Y154347D01*
X293514D01*
Y154385D01*
X293399D01*
Y154423D01*
X293360D01*
Y154462D01*
X293284D01*
Y154500D01*
X293169D01*
Y154538D01*
X293131D01*
Y154577D01*
X292977D01*
Y154615D01*
X292939D01*
Y154692D01*
X292901D01*
Y154653D01*
X292786D01*
Y154730D01*
X292748D01*
Y154768D01*
X292595D01*
Y154845D01*
X292556D01*
Y154883D01*
X292518D01*
Y154845D01*
X292441D01*
Y154883D01*
X292403D01*
Y154960D01*
X292250D01*
Y154998D01*
X292212D01*
Y155036D01*
X292135D01*
Y155075D01*
X292058D01*
Y155113D01*
X291982D01*
Y155151D01*
X291943D01*
Y155189D01*
X291828D01*
Y155228D01*
X291752D01*
Y155266D01*
X291714D01*
Y155304D01*
X291599D01*
Y155343D01*
X291560D01*
Y155381D01*
X291445D01*
Y155419D01*
X291407D01*
Y155457D01*
X291369D01*
Y155496D01*
X291254D01*
Y155534D01*
X291177D01*
Y155572D01*
X291101D01*
Y155611D01*
X291024D01*
Y155649D01*
X290948D01*
Y155687D01*
X290871D01*
Y155726D01*
X290794D01*
Y155764D01*
X290756D01*
Y155802D01*
X290603D01*
Y155841D01*
X290564D01*
Y155879D01*
X290411D01*
Y155956D01*
X290373D01*
Y155994D01*
X290296D01*
Y155956D01*
X290220D01*
Y156070D01*
X290105D01*
Y156032D01*
X290067D01*
Y156109D01*
X289990D01*
Y156147D01*
X289913D01*
Y156224D01*
X289722D01*
Y156300D01*
X289607D01*
Y156339D01*
X289530D01*
Y156377D01*
X289492D01*
Y156415D01*
X289416D01*
Y156453D01*
X289377D01*
Y156492D01*
X289262D01*
Y156530D01*
X289224D01*
Y156568D01*
X289147D01*
Y156607D01*
X289071D01*
Y156645D01*
X289033D01*
Y156683D01*
X288918D01*
Y156721D01*
X288879D01*
Y156760D01*
X288764D01*
Y156798D01*
X288688D01*
Y156836D01*
X288650D01*
Y156875D01*
X288535D01*
Y156913D01*
X288496D01*
Y156951D01*
X288381D01*
Y156990D01*
X288305D01*
Y157028D01*
X288228D01*
Y157066D01*
X288152D01*
Y157105D01*
X288075D01*
Y157143D01*
X287960D01*
Y157181D01*
X287883D01*
Y157219D01*
X287845D01*
Y157258D01*
X287730D01*
Y157296D01*
X287692D01*
Y157334D01*
X287539D01*
Y157449D01*
X287462D01*
Y157411D01*
X287347D01*
Y157526D01*
X287156D01*
Y157602D01*
X287002D01*
Y157641D01*
X286964D01*
Y157717D01*
X286811D01*
Y157756D01*
X286773D01*
Y157794D01*
X286734D01*
Y157832D01*
X286658D01*
Y157870D01*
X286581D01*
Y157909D01*
X286543D01*
Y157947D01*
X286428D01*
Y157985D01*
X286351D01*
Y158024D01*
X286275D01*
Y158062D01*
X286198D01*
Y158100D01*
X286160D01*
Y158139D01*
X286045D01*
Y158177D01*
X285968D01*
Y158215D01*
X285930D01*
Y158254D01*
X285815D01*
Y158292D01*
X285738D01*
Y158330D01*
X285662D01*
Y158369D01*
X285585D01*
Y158407D01*
X285470D01*
Y158445D01*
X285432D01*
Y158483D01*
X285355D01*
Y158522D01*
X285241D01*
Y158560D01*
X285202D01*
Y158598D01*
X285087D01*
Y158637D01*
X285011D01*
Y158713D01*
X284858D01*
Y158790D01*
X284666D01*
Y158905D01*
X284590D01*
Y158866D01*
X284513D01*
Y158905D01*
X284475D01*
Y158981D01*
X284321D01*
Y159020D01*
X284283D01*
Y159096D01*
X284130D01*
Y159134D01*
X284092D01*
Y159173D01*
X284015D01*
Y159211D01*
X283977D01*
Y159249D01*
X283862D01*
Y159288D01*
X283823D01*
Y159326D01*
X283709D01*
Y159288D01*
X283632D01*
Y153619D01*
X283594D01*
Y153581D01*
X283479D01*
Y153542D01*
X283326D01*
Y153581D01*
X283211D01*
Y159211D01*
X283134D01*
Y158100D01*
Y158062D01*
Y153657D01*
X283057D01*
Y159173D01*
X283019D01*
Y159211D01*
X279572D01*
Y159249D01*
X279534D01*
Y159288D01*
X279495D01*
Y159326D01*
X279380D01*
Y159249D01*
X279342D01*
Y159211D01*
X279380D01*
Y145729D01*
X279342D01*
Y145652D01*
X272869D01*
Y145691D01*
X272831D01*
Y166527D01*
X272027D01*
Y166565D01*
X271988D01*
Y166527D01*
X271912D01*
Y166488D01*
X271835D01*
Y166450D01*
X271490D01*
Y166412D01*
X271452D01*
Y166373D01*
X271222D01*
Y166335D01*
X271184D01*
Y166297D01*
X270954D01*
Y166259D01*
X270916D01*
Y166220D01*
X270878D01*
Y166182D01*
X270763D01*
Y166144D01*
X270724D01*
Y166105D01*
X270609D01*
Y166067D01*
X270571D01*
Y166029D01*
X270456D01*
Y165990D01*
X270418D01*
Y165952D01*
X270341D01*
Y165914D01*
X270265D01*
Y165875D01*
X270227D01*
Y165837D01*
X270188D01*
Y165799D01*
X270150D01*
Y165761D01*
X270035D01*
Y165722D01*
X269997D01*
Y165684D01*
X269958D01*
Y165646D01*
X269920D01*
Y165607D01*
X269882D01*
Y165569D01*
X269729D01*
Y165531D01*
X269690D01*
Y165492D01*
X269652D01*
Y165454D01*
X269614D01*
Y165416D01*
X269575D01*
Y165378D01*
X269537D01*
Y165339D01*
X269499D01*
Y165301D01*
X269460D01*
Y165263D01*
X269384D01*
Y165224D01*
X269307D01*
Y165186D01*
X269269D01*
Y165148D01*
X269231D01*
Y165110D01*
X269192D01*
Y165071D01*
X269154D01*
Y165033D01*
X269116D01*
Y164995D01*
X269077D01*
Y164956D01*
X269039D01*
Y164918D01*
X269001D01*
Y164880D01*
X268963D01*
Y164841D01*
X268924D01*
Y164803D01*
X268886D01*
Y164765D01*
X268848D01*
Y164726D01*
X268809D01*
Y164688D01*
X268771D01*
Y164650D01*
X268733D01*
Y164612D01*
X268694D01*
Y164573D01*
X268656D01*
Y164535D01*
X268618D01*
Y164382D01*
X268541D01*
Y164344D01*
X268503D01*
Y164305D01*
X268465D01*
Y164267D01*
X268426D01*
Y164229D01*
X268388D01*
Y164190D01*
X268350D01*
Y164152D01*
X268311D01*
Y164114D01*
X268273D01*
Y164075D01*
X268235D01*
Y164037D01*
X268197D01*
Y163999D01*
X268158D01*
Y163960D01*
X268120D01*
Y163922D01*
X268082D01*
Y163807D01*
X268043D01*
Y163769D01*
X268005D01*
Y163731D01*
X267967D01*
Y163692D01*
X267928D01*
Y163654D01*
X267890D01*
Y163616D01*
X267852D01*
Y163577D01*
X267813D01*
Y163539D01*
X267775D01*
Y163501D01*
X267737D01*
Y163462D01*
X267699D01*
Y163424D01*
X267660D01*
Y163386D01*
X267622D01*
Y163348D01*
X267584D01*
Y163194D01*
X267545D01*
Y163156D01*
X267507D01*
Y163118D01*
X267469D01*
Y163080D01*
X267430D01*
Y163041D01*
X267392D01*
Y163003D01*
X267354D01*
Y162965D01*
X267316D01*
Y162926D01*
X267277D01*
Y162888D01*
X267239D01*
Y162850D01*
X267201D01*
Y162811D01*
X267162D01*
Y162773D01*
X267124D01*
Y162735D01*
X267086D01*
Y162697D01*
X267048D01*
Y162620D01*
X267009D01*
Y162543D01*
X266933D01*
Y162505D01*
X266894D01*
Y162467D01*
X266856D01*
Y162428D01*
X266818D01*
Y162390D01*
X266779D01*
Y162352D01*
X266741D01*
Y162313D01*
X266703D01*
Y162237D01*
X266664D01*
Y162199D01*
X266626D01*
Y162160D01*
X266549D01*
Y162007D01*
X266511D01*
Y161969D01*
X266473D01*
Y161931D01*
X266435D01*
Y161892D01*
X266396D01*
Y161854D01*
X266358D01*
Y161816D01*
X266320D01*
Y161777D01*
X266281D01*
Y161739D01*
X266243D01*
Y161701D01*
X266205D01*
Y161662D01*
X266166D01*
Y161624D01*
X266128D01*
Y161586D01*
X266090D01*
Y161548D01*
X266052D01*
Y161433D01*
X266013D01*
Y161394D01*
X265975D01*
Y161356D01*
X265937D01*
Y161318D01*
X265898D01*
Y161279D01*
X265860D01*
Y161241D01*
X265822D01*
Y161203D01*
X265784D01*
Y161164D01*
X265745D01*
Y161126D01*
X265707D01*
Y161088D01*
X265669D01*
Y161049D01*
X265630D01*
Y161011D01*
X265592D01*
Y160973D01*
X265554D01*
Y160935D01*
X265515D01*
Y160820D01*
X265477D01*
Y160781D01*
X265439D01*
Y160743D01*
X265401D01*
Y160705D01*
X265362D01*
Y160667D01*
X265324D01*
Y160628D01*
X265286D01*
Y160590D01*
X265247D01*
Y160552D01*
X265209D01*
Y160513D01*
X265171D01*
Y160475D01*
X265132D01*
Y160398D01*
X265094D01*
Y160360D01*
X265056D01*
Y160322D01*
X265018D01*
Y160245D01*
X264979D01*
Y160169D01*
X264941D01*
Y160130D01*
X264903D01*
Y160092D01*
X264864D01*
Y160054D01*
X264826D01*
Y160015D01*
X264788D01*
Y159977D01*
X264749D01*
Y159939D01*
X264673D01*
Y159862D01*
X264596D01*
Y159824D01*
X264558D01*
Y159786D01*
X264520D01*
Y159747D01*
X264481D01*
Y159594D01*
X264405D01*
Y159518D01*
X264366D01*
Y159479D01*
X264290D01*
Y159403D01*
X264213D01*
Y159326D01*
X264175D01*
Y159288D01*
X264137D01*
Y159249D01*
X264098D01*
Y159211D01*
X264060D01*
Y159173D01*
X264022D01*
Y159134D01*
X263983D01*
Y159096D01*
X263945D01*
Y158981D01*
X263907D01*
Y158943D01*
X263868D01*
Y158905D01*
X263830D01*
Y158866D01*
X263792D01*
Y158828D01*
X263754D01*
Y158790D01*
X263715D01*
Y158751D01*
X263677D01*
Y158713D01*
X263639D01*
Y158675D01*
X263600D01*
Y158637D01*
X263562D01*
Y158598D01*
X263524D01*
Y158560D01*
X263485D01*
Y158445D01*
X263447D01*
Y158407D01*
X263409D01*
Y158369D01*
X263370D01*
Y158330D01*
X263332D01*
Y158292D01*
X263294D01*
Y158254D01*
X263256D01*
Y158215D01*
X263217D01*
Y158177D01*
X263179D01*
Y158139D01*
X263141D01*
Y158100D01*
X263102D01*
Y158062D01*
X263064D01*
Y158024D01*
X263026D01*
Y157985D01*
X262987D01*
Y157947D01*
X262949D01*
Y157909D01*
X262911D01*
Y157756D01*
X262834D01*
Y157679D01*
X262796D01*
Y157641D01*
X262719D01*
Y157564D01*
X262643D01*
Y157487D01*
X262566D01*
Y157449D01*
X262528D01*
Y157373D01*
X262451D01*
Y157258D01*
X262413D01*
Y157219D01*
X262375D01*
Y157143D01*
X262336D01*
Y157105D01*
X262298D01*
Y157066D01*
X262260D01*
Y157028D01*
X262222D01*
Y156990D01*
X262183D01*
Y156951D01*
X262145D01*
Y156913D01*
X262107D01*
Y156875D01*
X262068D01*
Y156836D01*
X262030D01*
Y156798D01*
X261992D01*
Y156760D01*
X261953D01*
Y156721D01*
X261915D01*
Y156607D01*
X261877D01*
Y156568D01*
X261839D01*
Y156530D01*
X261800D01*
Y156492D01*
X261762D01*
Y156453D01*
X261724D01*
Y156415D01*
X261685D01*
Y156377D01*
X261647D01*
Y156339D01*
X261609D01*
Y156300D01*
X261570D01*
Y156262D01*
X261532D01*
Y156224D01*
X261494D01*
Y156185D01*
X261455D01*
Y156147D01*
X261417D01*
Y156109D01*
X261379D01*
Y156032D01*
X261340D01*
Y155956D01*
X261302D01*
Y155917D01*
X261264D01*
Y155879D01*
X261226D01*
Y155841D01*
X261187D01*
Y155802D01*
X261149D01*
Y155764D01*
X261111D01*
Y155726D01*
X261072D01*
Y155687D01*
X261034D01*
Y155649D01*
X260996D01*
Y155611D01*
X260958D01*
Y155572D01*
X260919D01*
Y155534D01*
X260881D01*
Y155381D01*
X260843D01*
Y155343D01*
X260804D01*
Y155304D01*
X260766D01*
Y155266D01*
X260728D01*
Y155228D01*
X260689D01*
Y155189D01*
X260651D01*
Y155151D01*
X260613D01*
Y155113D01*
X260575D01*
Y155075D01*
X260536D01*
Y155036D01*
X260498D01*
Y154998D01*
X260460D01*
Y154960D01*
X260421D01*
Y154921D01*
X260383D01*
Y154883D01*
X260345D01*
Y154806D01*
X260306D01*
Y154730D01*
X260230D01*
Y154692D01*
X260191D01*
Y154653D01*
X260153D01*
Y154615D01*
X260115D01*
Y154577D01*
X260077D01*
Y154538D01*
X260038D01*
Y154500D01*
X260000D01*
Y154462D01*
X259962D01*
Y154423D01*
X259923D01*
Y154385D01*
X259885D01*
Y154347D01*
X259847D01*
Y154194D01*
X259808D01*
Y154155D01*
X259770D01*
Y154117D01*
X259732D01*
Y154079D01*
X259694D01*
Y154040D01*
X259655D01*
Y154002D01*
X259617D01*
Y153964D01*
X259579D01*
Y153926D01*
X259540D01*
Y153887D01*
X259502D01*
Y153849D01*
X259464D01*
Y153811D01*
X259425D01*
Y153772D01*
X259387D01*
Y153734D01*
X259349D01*
Y153657D01*
X259311D01*
Y153581D01*
X259272D01*
Y153542D01*
X259234D01*
Y153504D01*
X259196D01*
Y153466D01*
X259157D01*
Y153428D01*
X259119D01*
Y153389D01*
X259081D01*
Y153351D01*
X259043D01*
Y153313D01*
X259004D01*
Y153274D01*
X258966D01*
Y153236D01*
X258928D01*
Y153198D01*
X258889D01*
Y153159D01*
X258851D01*
Y153121D01*
X258813D01*
Y153045D01*
X258774D01*
Y152968D01*
X258736D01*
Y152930D01*
X258698D01*
Y152891D01*
X258660D01*
Y152853D01*
X258621D01*
Y152815D01*
X258583D01*
Y152776D01*
X258544D01*
Y152738D01*
X258506D01*
Y152700D01*
X258468D01*
Y152662D01*
X258430D01*
Y152623D01*
X258391D01*
Y152585D01*
X258353D01*
Y152547D01*
X258315D01*
Y152470D01*
X258276D01*
Y152355D01*
X258238D01*
Y152317D01*
X258200D01*
Y152278D01*
X258161D01*
Y152240D01*
X258123D01*
Y152202D01*
X258085D01*
Y152164D01*
X258047D01*
Y152125D01*
X257970D01*
Y152049D01*
X257893D01*
Y152010D01*
X257855D01*
Y151972D01*
X257817D01*
Y151934D01*
X257779D01*
Y151819D01*
X257740D01*
Y151781D01*
X257702D01*
Y151742D01*
X257664D01*
Y151704D01*
X257625D01*
Y151666D01*
X257587D01*
Y151589D01*
X257510D01*
Y151513D01*
X257434D01*
Y151474D01*
X257396D01*
Y151398D01*
X257319D01*
Y151321D01*
X257281D01*
Y151283D01*
X257242D01*
Y151168D01*
X257204D01*
Y151129D01*
X257166D01*
Y151091D01*
X257127D01*
Y151053D01*
X257089D01*
Y151015D01*
X257051D01*
Y150976D01*
X257013D01*
Y150938D01*
X256974D01*
Y150900D01*
X256936D01*
Y150861D01*
X256898D01*
Y150823D01*
X256859D01*
Y150785D01*
X256821D01*
Y150747D01*
X256783D01*
Y150708D01*
X256744D01*
Y150593D01*
X256706D01*
Y150555D01*
X256668D01*
Y150517D01*
X256629D01*
Y150478D01*
X256591D01*
Y150440D01*
X256553D01*
Y150402D01*
X256515D01*
Y150363D01*
X256476D01*
Y150325D01*
X256438D01*
Y150287D01*
X256400D01*
Y150249D01*
X256361D01*
Y150210D01*
X256323D01*
Y150172D01*
X256285D01*
Y150134D01*
X256246D01*
Y150095D01*
X256208D01*
Y149942D01*
X256132D01*
Y149904D01*
X256093D01*
Y149865D01*
X256055D01*
Y149827D01*
X256017D01*
Y149751D01*
X255940D01*
Y149712D01*
X255902D01*
Y149674D01*
X255863D01*
Y149636D01*
X255825D01*
Y149559D01*
X255749D01*
Y149483D01*
X255710D01*
Y149406D01*
X255672D01*
Y149329D01*
X255634D01*
Y149291D01*
X255595D01*
Y149253D01*
X255557D01*
Y149214D01*
X255519D01*
Y149176D01*
X255480D01*
Y149138D01*
X255442D01*
Y149100D01*
X255404D01*
Y149061D01*
X255365D01*
Y149023D01*
X255289D01*
Y148946D01*
X255251D01*
Y148908D01*
X255212D01*
Y148870D01*
X255174D01*
Y148831D01*
X255136D01*
Y148793D01*
X255097D01*
Y148755D01*
X255059D01*
Y148716D01*
X255021D01*
Y148678D01*
X254982D01*
Y148640D01*
X254944D01*
Y148602D01*
X254906D01*
Y148563D01*
X254829D01*
Y148487D01*
X254791D01*
Y148448D01*
X254753D01*
Y148410D01*
X254714D01*
Y148372D01*
X254638D01*
Y148295D01*
X254599D01*
Y148257D01*
X254561D01*
Y148219D01*
X254523D01*
Y148180D01*
X254485D01*
Y148142D01*
X254446D01*
Y148104D01*
X254370D01*
Y148027D01*
X254331D01*
Y147989D01*
X254293D01*
Y147950D01*
X254255D01*
Y147912D01*
X254178D01*
Y147836D01*
X254025D01*
Y147797D01*
X253987D01*
Y147759D01*
X253948D01*
Y147721D01*
X253910D01*
Y147682D01*
X253872D01*
Y147644D01*
X253834D01*
Y147606D01*
X253795D01*
Y147567D01*
X253680D01*
Y147529D01*
X253642D01*
Y147491D01*
X253604D01*
Y147452D01*
X253565D01*
Y147414D01*
X253527D01*
Y147376D01*
X253489D01*
Y147338D01*
X253450D01*
Y147299D01*
X253412D01*
Y147261D01*
X253297D01*
Y147223D01*
X253259D01*
Y147184D01*
X253221D01*
Y147146D01*
X253182D01*
Y147108D01*
X253067D01*
Y147070D01*
X252991D01*
Y147031D01*
X252914D01*
Y146993D01*
X252838D01*
Y146916D01*
X252799D01*
Y146878D01*
X252646D01*
Y146840D01*
X252608D01*
Y146801D01*
X252493D01*
Y146763D01*
X252455D01*
Y146725D01*
X252416D01*
Y146686D01*
X252263D01*
Y146648D01*
X252225D01*
Y146610D01*
X252110D01*
Y146572D01*
X252072D01*
Y146533D01*
X251880D01*
Y146495D01*
X251842D01*
Y146457D01*
X251727D01*
Y146418D01*
X251689D01*
Y146380D01*
X251612D01*
Y146342D01*
X251420D01*
Y146303D01*
X251382D01*
Y146265D01*
X251267D01*
Y146227D01*
X251229D01*
Y146189D01*
X250923D01*
Y146150D01*
X250884D01*
Y146112D01*
X250846D01*
Y146074D01*
X250616D01*
Y145997D01*
X250310D01*
Y145959D01*
X250271D01*
Y145921D01*
X249888D01*
Y145882D01*
X249850D01*
Y145844D01*
X249812D01*
Y145806D01*
X249237D01*
Y145767D01*
X249199D01*
Y145729D01*
X248395D01*
Y145691D01*
X248356D01*
Y145652D01*
X240505D01*
Y173000D01*
X246977D01*
Y172961D01*
X247016D01*
Y152125D01*
X247054D01*
Y152087D01*
X247169D01*
Y152125D01*
X247207D01*
Y152087D01*
X247820D01*
Y152125D01*
X247897D01*
Y152087D01*
X248012D01*
Y152125D01*
X248050D01*
Y152164D01*
X248127D01*
Y152202D01*
X248241D01*
Y152164D01*
X248356D01*
Y152202D01*
X248395D01*
Y152240D01*
X248433D01*
Y152278D01*
X248663D01*
Y152317D01*
X248701D01*
Y152355D01*
X248893D01*
Y152393D01*
X248931D01*
Y152432D01*
X249046D01*
Y152470D01*
X249084D01*
Y152508D01*
X249199D01*
Y152547D01*
X249237D01*
Y152585D01*
X249352D01*
Y152623D01*
X249391D01*
Y152662D01*
X249429D01*
Y152700D01*
X249467D01*
Y152738D01*
X249505D01*
Y152776D01*
X249659D01*
Y152815D01*
X249697D01*
Y152853D01*
X249735D01*
Y152891D01*
X249774D01*
Y152968D01*
X249927D01*
Y153006D01*
X249965D01*
Y153045D01*
X250003D01*
Y153083D01*
X250042D01*
Y153121D01*
X250080D01*
Y153159D01*
X250118D01*
Y153198D01*
X250156D01*
Y153236D01*
X250271D01*
Y153274D01*
X250310D01*
Y153313D01*
X250348D01*
Y153351D01*
X250386D01*
Y153389D01*
X250425D01*
Y153428D01*
X250463D01*
Y153466D01*
X250501D01*
Y153504D01*
X250540D01*
Y153542D01*
X250578D01*
Y153581D01*
X250616D01*
Y153619D01*
X250655D01*
Y153657D01*
X250693D01*
Y153696D01*
X250731D01*
Y153734D01*
X250769D01*
Y153772D01*
X250808D01*
Y153811D01*
X250846D01*
Y153849D01*
X250884D01*
Y153887D01*
X250923D01*
Y153926D01*
X250961D01*
Y153964D01*
X250999D01*
Y154002D01*
X251038D01*
Y154040D01*
X251076D01*
Y154079D01*
X251114D01*
Y154117D01*
X251152D01*
Y154155D01*
X251191D01*
Y154194D01*
X251229D01*
Y154232D01*
X251267D01*
Y154270D01*
X251306D01*
Y154308D01*
X251344D01*
Y154347D01*
X251382D01*
Y154385D01*
X251420D01*
Y154423D01*
X251459D01*
Y154462D01*
X251497D01*
Y154500D01*
X251535D01*
Y154538D01*
X251574D01*
Y154577D01*
X251612D01*
Y154692D01*
X251650D01*
Y154730D01*
X251689D01*
Y154768D01*
X251727D01*
Y154806D01*
X251765D01*
Y154845D01*
X251803D01*
Y154883D01*
X251842D01*
Y154921D01*
X251880D01*
Y154960D01*
X251918D01*
Y154998D01*
X251957D01*
Y155036D01*
X251995D01*
Y155075D01*
X252033D01*
Y155113D01*
X252072D01*
Y155151D01*
X252110D01*
Y155189D01*
X252148D01*
Y155228D01*
X252186D01*
Y155266D01*
X252148D01*
Y155304D01*
X252186D01*
Y155343D01*
X252225D01*
Y155381D01*
X252263D01*
Y155419D01*
X252301D01*
Y155457D01*
X252340D01*
Y155496D01*
X252378D01*
Y155534D01*
X252416D01*
Y155572D01*
X252455D01*
Y155611D01*
X252493D01*
Y155649D01*
X252531D01*
Y155687D01*
X252570D01*
Y155726D01*
X252608D01*
Y155764D01*
X252646D01*
Y155802D01*
X252684D01*
Y155841D01*
X252723D01*
Y155994D01*
X252799D01*
Y156032D01*
X252838D01*
Y156070D01*
X252876D01*
Y156109D01*
X252914D01*
Y156147D01*
X252953D01*
Y156185D01*
X252991D01*
Y156224D01*
X253029D01*
Y156262D01*
X253067D01*
Y156300D01*
X253106D01*
Y156339D01*
X253144D01*
Y156377D01*
X253182D01*
Y156415D01*
X253221D01*
Y156453D01*
X253259D01*
Y156492D01*
X253297D01*
Y156645D01*
X253336D01*
Y156683D01*
X253374D01*
Y156721D01*
X253412D01*
Y156760D01*
X253450D01*
Y156798D01*
X253489D01*
Y156836D01*
X253527D01*
Y156875D01*
X253565D01*
Y156913D01*
X253604D01*
Y156951D01*
X253642D01*
Y156990D01*
X253680D01*
Y157028D01*
X253719D01*
Y157066D01*
X253757D01*
Y157105D01*
X253795D01*
Y157143D01*
X253834D01*
Y157258D01*
X253872D01*
Y157296D01*
X253910D01*
Y157334D01*
X253948D01*
Y157373D01*
X253987D01*
Y157411D01*
X254025D01*
Y157449D01*
X254063D01*
Y157487D01*
X254102D01*
Y157526D01*
X254140D01*
Y157564D01*
X254178D01*
Y157602D01*
X254217D01*
Y157641D01*
X254255D01*
Y157679D01*
X254293D01*
Y157717D01*
X254331D01*
Y157756D01*
X254408D01*
Y157909D01*
X254446D01*
Y157947D01*
X254485D01*
Y157985D01*
X254523D01*
Y158024D01*
X254561D01*
Y158062D01*
X254599D01*
Y158100D01*
X254638D01*
Y158139D01*
X254676D01*
Y158177D01*
X254714D01*
Y158215D01*
X254753D01*
Y158254D01*
X254791D01*
Y158292D01*
X254829D01*
Y158330D01*
X254868D01*
Y158369D01*
X254906D01*
Y158445D01*
X254944D01*
Y158560D01*
X255021D01*
Y158598D01*
X255059D01*
Y158637D01*
X255097D01*
Y158675D01*
X255136D01*
Y158713D01*
X255174D01*
Y158751D01*
X255212D01*
Y158790D01*
X255251D01*
Y158828D01*
X255289D01*
Y158866D01*
X255327D01*
Y158905D01*
X255365D01*
Y158943D01*
X255404D01*
Y158981D01*
X255442D01*
Y159020D01*
X255480D01*
Y159058D01*
X255519D01*
Y159096D01*
X255557D01*
Y159211D01*
X255595D01*
Y159249D01*
X255634D01*
Y159288D01*
X255672D01*
Y159326D01*
X255710D01*
Y159364D01*
X255749D01*
Y159403D01*
X255787D01*
Y159441D01*
X255825D01*
Y159518D01*
X255863D01*
Y159556D01*
X255902D01*
Y159594D01*
X255940D01*
Y159632D01*
X255978D01*
Y159671D01*
X256017D01*
Y159709D01*
X256055D01*
Y159747D01*
X256093D01*
Y159786D01*
X256132D01*
Y159900D01*
X256170D01*
Y159939D01*
X256208D01*
Y159977D01*
X256246D01*
Y160015D01*
X256285D01*
Y160054D01*
X256323D01*
Y160092D01*
X256361D01*
Y160130D01*
X256400D01*
Y160169D01*
X256476D01*
Y160245D01*
X256553D01*
Y160284D01*
X256591D01*
Y160322D01*
X256629D01*
Y160360D01*
X256668D01*
Y160513D01*
X256744D01*
Y160590D01*
X256783D01*
Y160628D01*
X256821D01*
Y160667D01*
X256859D01*
Y160705D01*
X256898D01*
Y160743D01*
X256936D01*
Y160781D01*
X256974D01*
Y160820D01*
X257013D01*
Y160858D01*
X257051D01*
Y160896D01*
X257089D01*
Y160935D01*
X257127D01*
Y160973D01*
X257166D01*
Y161011D01*
X257204D01*
Y161049D01*
X257242D01*
Y161126D01*
X257281D01*
Y161203D01*
X257319D01*
Y161241D01*
X257357D01*
Y161279D01*
X257396D01*
Y161318D01*
X257434D01*
Y161356D01*
X257472D01*
Y161394D01*
X257510D01*
Y161433D01*
X257549D01*
Y161471D01*
X257587D01*
Y161509D01*
X257625D01*
Y161548D01*
X257664D01*
Y161586D01*
X257702D01*
Y161624D01*
X257740D01*
Y161662D01*
X257779D01*
Y161777D01*
X257817D01*
Y161816D01*
X257855D01*
Y161854D01*
X257893D01*
Y161892D01*
X257932D01*
Y161931D01*
X257970D01*
Y161969D01*
X258008D01*
Y162007D01*
X258047D01*
Y162045D01*
X258085D01*
Y162084D01*
X258123D01*
Y162122D01*
X258161D01*
Y162160D01*
X258200D01*
Y162199D01*
X258238D01*
Y162237D01*
X258276D01*
Y162275D01*
X258315D01*
Y162352D01*
X258353D01*
Y162390D01*
X258391D01*
Y162505D01*
X258430D01*
Y162543D01*
X258468D01*
Y162582D01*
X258506D01*
Y162620D01*
X258544D01*
Y162658D01*
X258583D01*
Y162697D01*
X258621D01*
Y162735D01*
X258660D01*
Y162773D01*
X258698D01*
Y162811D01*
X258774D01*
Y162888D01*
X258851D01*
Y162965D01*
X258889D01*
Y163080D01*
X258928D01*
Y163118D01*
X258966D01*
Y163156D01*
X259004D01*
Y163194D01*
X259043D01*
Y163233D01*
X259081D01*
Y163271D01*
X259119D01*
Y163309D01*
X259157D01*
Y163348D01*
X259196D01*
Y163386D01*
X259234D01*
Y163424D01*
X259272D01*
Y163462D01*
X259311D01*
Y163501D01*
X259349D01*
Y163539D01*
X259387D01*
Y163577D01*
X259425D01*
Y163616D01*
X259464D01*
Y163654D01*
X259502D01*
Y163769D01*
X259540D01*
Y163807D01*
X259579D01*
Y163846D01*
X259617D01*
Y163884D01*
X259655D01*
Y163922D01*
X259694D01*
Y163960D01*
X259732D01*
Y163999D01*
X259770D01*
Y164037D01*
X259808D01*
Y164075D01*
X259847D01*
Y164114D01*
X259885D01*
Y164152D01*
X259923D01*
Y164190D01*
X259962D01*
Y164229D01*
X260000D01*
Y164344D01*
X260038D01*
Y164382D01*
X260077D01*
Y164420D01*
X260115D01*
Y164458D01*
X260153D01*
Y164535D01*
X260230D01*
Y164573D01*
X260268D01*
Y164650D01*
X260345D01*
Y164726D01*
X260421D01*
Y164803D01*
X260498D01*
Y164841D01*
X260536D01*
Y164918D01*
X260613D01*
Y165071D01*
X260651D01*
Y165110D01*
X260728D01*
Y165186D01*
X260804D01*
Y165263D01*
X260881D01*
Y165301D01*
X260919D01*
Y165339D01*
X260958D01*
Y165378D01*
X260996D01*
Y165416D01*
X261034D01*
Y165454D01*
X261072D01*
Y165492D01*
X261111D01*
Y165531D01*
X261149D01*
Y165569D01*
X261187D01*
Y165722D01*
X261226D01*
Y165761D01*
X261264D01*
Y165799D01*
X261302D01*
Y165837D01*
X261340D01*
Y165875D01*
X261379D01*
Y165914D01*
X261417D01*
Y165952D01*
X261455D01*
Y165990D01*
X261494D01*
Y166029D01*
X261532D01*
Y166067D01*
X261570D01*
Y166105D01*
X261609D01*
Y166144D01*
X261647D01*
Y166182D01*
X261685D01*
Y166220D01*
X261724D01*
Y166335D01*
X261762D01*
Y166373D01*
X261800D01*
Y166412D01*
X261839D01*
Y166450D01*
X261877D01*
Y166488D01*
X261915D01*
Y166527D01*
X261953D01*
Y166565D01*
X261992D01*
Y166603D01*
X262030D01*
Y166642D01*
X262068D01*
Y166680D01*
X262107D01*
Y166718D01*
X262145D01*
Y166756D01*
X262183D01*
Y166795D01*
X262222D01*
Y166833D01*
X262260D01*
Y166871D01*
X262298D01*
Y166910D01*
X262336D01*
Y167025D01*
X262375D01*
Y167063D01*
X262413D01*
Y167101D01*
X262451D01*
Y167139D01*
X262490D01*
Y167178D01*
X262528D01*
Y167216D01*
X262566D01*
Y167254D01*
X262604D01*
Y167293D01*
X262643D01*
Y167331D01*
X262681D01*
Y167369D01*
X262719D01*
Y167408D01*
X262758D01*
Y167484D01*
X262834D01*
Y167637D01*
X262873D01*
Y167676D01*
X262911D01*
Y167714D01*
X262949D01*
Y167752D01*
X262987D01*
Y167791D01*
X263026D01*
Y167829D01*
X263102D01*
Y167867D01*
X263141D01*
Y167905D01*
X263179D01*
Y167944D01*
X263217D01*
Y167982D01*
X263256D01*
Y168020D01*
X263294D01*
Y168059D01*
X263332D01*
Y168097D01*
X263370D01*
Y168135D01*
X263409D01*
Y168174D01*
X263447D01*
Y168289D01*
X263485D01*
Y168327D01*
X263524D01*
Y168365D01*
X263562D01*
Y168403D01*
X263600D01*
Y168442D01*
X263639D01*
Y168480D01*
X263677D01*
Y168518D01*
X263715D01*
Y168557D01*
X263754D01*
Y168633D01*
X263792D01*
Y168672D01*
X263830D01*
Y168710D01*
X263868D01*
Y168748D01*
X263907D01*
Y168786D01*
X263945D01*
Y168863D01*
X263983D01*
Y168940D01*
X264022D01*
Y168978D01*
X264060D01*
Y169016D01*
X264098D01*
Y169054D01*
X264137D01*
Y169093D01*
X264175D01*
Y169131D01*
X264213D01*
Y169169D01*
X264251D01*
Y169208D01*
X264290D01*
Y169246D01*
X264328D01*
Y169284D01*
X264366D01*
Y169323D01*
X264405D01*
Y169361D01*
X264443D01*
Y169399D01*
X264481D01*
Y169438D01*
X264558D01*
Y169514D01*
X264634D01*
Y169553D01*
X264673D01*
Y169591D01*
X264711D01*
Y169629D01*
X264749D01*
Y169706D01*
X264826D01*
Y169859D01*
X264864D01*
Y169897D01*
X264903D01*
Y169936D01*
X264941D01*
Y169974D01*
X265056D01*
Y170012D01*
X265094D01*
Y170050D01*
X265132D01*
Y170089D01*
X265171D01*
Y170127D01*
X265209D01*
Y170165D01*
X265247D01*
Y170204D01*
X265286D01*
Y170242D01*
X265324D01*
Y170280D01*
X265362D01*
Y170318D01*
X265401D01*
Y170357D01*
X265439D01*
Y170395D01*
X265477D01*
Y170433D01*
X265515D01*
Y170472D01*
X265554D01*
Y170510D01*
X265592D01*
Y170548D01*
X265630D01*
Y170587D01*
X265669D01*
Y170625D01*
X265707D01*
Y170663D01*
X265745D01*
Y170702D01*
X265784D01*
Y170740D01*
X265937D01*
Y170778D01*
X265975D01*
Y170816D01*
X266013D01*
Y170855D01*
X266052D01*
Y170893D01*
X266090D01*
Y170931D01*
X266128D01*
Y170970D01*
X266166D01*
Y171008D01*
X266205D01*
Y171046D01*
X266243D01*
Y171084D01*
X266358D01*
Y171123D01*
X266396D01*
Y171161D01*
X266435D01*
Y171199D01*
X266473D01*
Y171238D01*
X266549D01*
Y171276D01*
X266626D01*
Y171314D01*
X266664D01*
Y171353D01*
X266703D01*
Y171391D01*
X266741D01*
Y171429D01*
X266856D01*
Y171467D01*
X266894D01*
Y171506D01*
X266933D01*
Y171544D01*
X266971D01*
Y171582D01*
X267009D01*
Y171621D01*
X267124D01*
Y171659D01*
X267162D01*
Y171697D01*
X267201D01*
Y171736D01*
X267239D01*
Y171774D01*
X267392D01*
Y171812D01*
X267430D01*
Y171851D01*
X267469D01*
Y171889D01*
X267622D01*
Y171927D01*
X267660D01*
Y171966D01*
X267775D01*
Y172004D01*
X267852D01*
Y172042D01*
X267890D01*
Y172080D01*
X268005D01*
Y172119D01*
X268082D01*
Y172157D01*
X268120D01*
Y172195D01*
X268311D01*
Y172234D01*
X268350D01*
Y172272D01*
X268503D01*
Y172310D01*
X268541D01*
Y172348D01*
X268580D01*
Y172387D01*
X268618D01*
Y172348D01*
X268733D01*
Y172387D01*
X268771D01*
Y172425D01*
X268809D01*
Y172463D01*
X269039D01*
Y172502D01*
X269077D01*
Y172540D01*
X269346D01*
Y172578D01*
X269384D01*
Y172617D01*
X269460D01*
Y172655D01*
X269575D01*
Y172617D01*
X269690D01*
Y172655D01*
X269729D01*
Y172731D01*
X270150D01*
Y172770D01*
X270188D01*
Y172808D01*
X270648D01*
Y172846D01*
X270686D01*
Y172885D01*
X271567D01*
Y172923D01*
X271644D01*
Y172961D01*
X271682D01*
Y173000D01*
X279342D01*
Y172923D01*
D02*
G37*
G36*
X216566Y174110D02*
X216643D01*
Y174034D01*
X216681D01*
Y173842D01*
X216719D01*
Y173804D01*
X216758D01*
Y173574D01*
X216796D01*
Y173536D01*
X216834D01*
Y173344D01*
X216873D01*
Y173268D01*
X216911D01*
Y173191D01*
X216949D01*
Y173115D01*
X216987D01*
Y172923D01*
X217026D01*
Y172885D01*
X217064D01*
Y172655D01*
X217102D01*
Y172617D01*
X217141D01*
Y172578D01*
X217179D01*
Y172502D01*
X217141D01*
Y172425D01*
X217179D01*
Y172387D01*
X217217D01*
Y172348D01*
X217256D01*
Y172195D01*
X235410D01*
Y172157D01*
X235449D01*
Y172080D01*
X235487D01*
Y172042D01*
X235525D01*
Y171966D01*
X235487D01*
Y171851D01*
Y171812D01*
Y165875D01*
X235525D01*
Y165837D01*
X235487D01*
Y165761D01*
X219630D01*
Y165722D01*
X219592D01*
Y165684D01*
X219554D01*
Y165646D01*
X219592D01*
Y144925D01*
X219554D01*
Y144886D01*
X212889D01*
Y144925D01*
X212851D01*
Y144963D01*
X212813D01*
Y145001D01*
X212774D01*
Y166373D01*
X212813D01*
Y166450D01*
X212774D01*
Y166527D01*
X210591D01*
Y166565D01*
X210553D01*
Y166603D01*
X210515D01*
Y166680D01*
X210553D01*
Y167484D01*
X210591D01*
Y167523D01*
X210630D01*
Y167944D01*
X210668D01*
Y167982D01*
X210706D01*
Y168403D01*
X210783D01*
Y168442D01*
X210821D01*
Y168557D01*
X210783D01*
Y168633D01*
X210821D01*
Y168672D01*
X210859D01*
Y168710D01*
X210898D01*
Y168940D01*
X210936D01*
Y168978D01*
X210974D01*
Y169169D01*
X211013D01*
Y169208D01*
X211051D01*
Y169246D01*
X211089D01*
Y169438D01*
X211127D01*
Y169476D01*
X211166D01*
Y169591D01*
X211204D01*
Y169629D01*
X211242D01*
Y169782D01*
X211319D01*
Y169936D01*
X211357D01*
Y169974D01*
X211396D01*
Y170012D01*
X211434D01*
Y170165D01*
X211472D01*
Y170204D01*
X211510D01*
Y170318D01*
X211549D01*
Y170357D01*
X211587D01*
Y170472D01*
X211625D01*
Y170510D01*
X211664D01*
Y170548D01*
X211702D01*
Y170587D01*
X211740D01*
Y170702D01*
X211778D01*
Y170740D01*
X211817D01*
Y170778D01*
X211855D01*
Y170816D01*
X211893D01*
Y170931D01*
X211932D01*
Y170970D01*
X211970D01*
Y171008D01*
X212008D01*
Y171046D01*
X212047D01*
Y171084D01*
X212085D01*
Y171123D01*
X212123D01*
Y171161D01*
X212161D01*
Y171199D01*
X212200D01*
Y171353D01*
X212276D01*
Y171429D01*
X212315D01*
Y171467D01*
X212353D01*
Y171506D01*
X212391D01*
Y171544D01*
X212468D01*
Y171621D01*
X212544D01*
Y171697D01*
X212583D01*
Y171736D01*
X212660D01*
Y171812D01*
X212698D01*
Y171889D01*
X212736D01*
Y171966D01*
X212774D01*
Y172004D01*
X212813D01*
Y172042D01*
X212851D01*
Y172080D01*
X212966D01*
Y172119D01*
X213004D01*
Y172157D01*
X213081D01*
Y172234D01*
X213119D01*
Y172272D01*
X213196D01*
Y172348D01*
X213272D01*
Y172425D01*
X213311D01*
Y172463D01*
X213349D01*
Y172502D01*
X213387D01*
Y172540D01*
X213464D01*
Y172617D01*
X213502D01*
Y172655D01*
X213540D01*
Y172617D01*
X213617D01*
Y172655D01*
X213655D01*
Y172693D01*
X213694D01*
Y172731D01*
X213732D01*
Y172770D01*
X213770D01*
Y172808D01*
X213808D01*
Y172846D01*
X213847D01*
Y172885D01*
X213885D01*
Y172923D01*
X214000D01*
Y172961D01*
X214038D01*
Y173000D01*
X214077D01*
Y173038D01*
X214115D01*
Y173076D01*
X214230D01*
Y173115D01*
X214268D01*
Y173153D01*
X214306D01*
Y173191D01*
X214383D01*
Y173229D01*
X214460D01*
Y173268D01*
X214498D01*
Y173306D01*
X214651D01*
Y173344D01*
X214689D01*
Y173383D01*
X214728D01*
Y173421D01*
X214766D01*
Y173459D01*
X214881D01*
Y173497D01*
X214919D01*
Y173536D01*
X214957D01*
Y173574D01*
X215111D01*
Y173612D01*
X215149D01*
Y173651D01*
X215264D01*
Y173689D01*
X215302D01*
Y173727D01*
X215494D01*
Y173766D01*
X215532D01*
Y173804D01*
X215609D01*
Y173842D01*
X215685D01*
Y173881D01*
X215724D01*
Y173919D01*
X215953D01*
Y173995D01*
X216107D01*
Y174034D01*
X216145D01*
Y174110D01*
X216413D01*
Y174187D01*
X216566D01*
Y174110D01*
D02*
G37*
G36*
X188223Y172961D02*
X188261D01*
Y172923D01*
X188300D01*
Y172885D01*
X189181D01*
Y172923D01*
X189257D01*
Y172885D01*
X189296D01*
Y172846D01*
X189334D01*
Y172808D01*
X189870D01*
Y172770D01*
X189908D01*
Y172731D01*
X190291D01*
Y172693D01*
X190330D01*
Y172655D01*
X190406D01*
Y172617D01*
X190559D01*
Y172655D01*
X190636D01*
Y172617D01*
X190674D01*
Y172578D01*
X190713D01*
Y172540D01*
X191019D01*
Y172502D01*
X191057D01*
Y172463D01*
X191326D01*
Y172425D01*
X191364D01*
Y172387D01*
X191440D01*
Y172348D01*
X191517D01*
Y172310D01*
X191555D01*
Y172272D01*
X191785D01*
Y172195D01*
X192015D01*
Y172157D01*
X192053D01*
Y172119D01*
X192092D01*
Y172080D01*
X192130D01*
Y172119D01*
X192207D01*
Y172080D01*
X192245D01*
Y172042D01*
X192283D01*
Y172004D01*
X192398D01*
Y171966D01*
X192436D01*
Y171927D01*
X192589D01*
Y171889D01*
X192628D01*
Y171851D01*
X192704D01*
Y171812D01*
X192781D01*
Y171736D01*
X192858D01*
Y171697D01*
X192973D01*
Y171621D01*
X193126D01*
Y171582D01*
X193164D01*
Y171544D01*
X193202D01*
Y171506D01*
X193241D01*
Y171467D01*
X193279D01*
Y171429D01*
X193317D01*
Y171391D01*
X193356D01*
Y171353D01*
X193509D01*
Y171276D01*
X193547D01*
Y171238D01*
X193624D01*
Y171161D01*
X193700D01*
Y171084D01*
X193739D01*
Y171046D01*
X193777D01*
Y171008D01*
X193815D01*
Y170970D01*
X193853D01*
Y170931D01*
X193892D01*
Y170893D01*
X193930D01*
Y170855D01*
X193968D01*
Y170816D01*
X194007D01*
Y170778D01*
X194045D01*
Y170740D01*
X194083D01*
Y170702D01*
X194122D01*
Y170663D01*
X194160D01*
Y170625D01*
X194198D01*
Y170587D01*
X194237D01*
Y170548D01*
X194275D01*
Y170433D01*
X194313D01*
Y170395D01*
X194351D01*
Y170357D01*
X194390D01*
Y170318D01*
X194428D01*
Y170280D01*
X194466D01*
Y170242D01*
X194505D01*
Y170204D01*
X194543D01*
Y170089D01*
X194581D01*
Y170050D01*
X194620D01*
Y170012D01*
X194658D01*
Y169974D01*
X194696D01*
Y169936D01*
X194734D01*
Y169782D01*
X194811D01*
Y169629D01*
X194849D01*
Y169591D01*
X194888D01*
Y169514D01*
X194926D01*
Y169438D01*
X194964D01*
Y169399D01*
X195002D01*
Y169284D01*
X195041D01*
Y169246D01*
X195079D01*
Y169054D01*
X195117D01*
Y169016D01*
X195156D01*
Y168786D01*
X195194D01*
Y168748D01*
X195232D01*
Y168710D01*
X195271D01*
Y168672D01*
X195232D01*
Y168557D01*
X195271D01*
Y168480D01*
X195347D01*
Y168365D01*
X195309D01*
Y168289D01*
X195347D01*
Y168135D01*
X195386D01*
Y168097D01*
X195424D01*
Y167867D01*
X195386D01*
Y167829D01*
X195424D01*
Y167752D01*
X195462D01*
Y167676D01*
X195500D01*
Y166948D01*
X195539D01*
Y166910D01*
X195577D01*
Y151704D01*
X195539D01*
Y151666D01*
X195500D01*
Y150938D01*
X195462D01*
Y150861D01*
X195424D01*
Y150823D01*
X195386D01*
Y150747D01*
X195424D01*
Y150517D01*
X195386D01*
Y150478D01*
X195347D01*
Y150325D01*
X195309D01*
Y150287D01*
X195347D01*
Y150172D01*
X195309D01*
Y150134D01*
X195271D01*
Y150095D01*
X195232D01*
Y149980D01*
X195271D01*
Y149942D01*
X195232D01*
Y149865D01*
X195194D01*
Y149827D01*
X195156D01*
Y149636D01*
X195117D01*
Y149597D01*
X195079D01*
Y149406D01*
X195041D01*
Y149368D01*
X195002D01*
Y149214D01*
X194926D01*
Y149138D01*
X194888D01*
Y149023D01*
X194811D01*
Y148870D01*
X194773D01*
Y148831D01*
X194734D01*
Y148678D01*
X194696D01*
Y148640D01*
X194620D01*
Y148563D01*
X194543D01*
Y148410D01*
X194505D01*
Y148372D01*
X194428D01*
Y148295D01*
X194351D01*
Y148219D01*
X194313D01*
Y148180D01*
X194275D01*
Y148104D01*
X194237D01*
Y148027D01*
X194198D01*
Y147989D01*
X194160D01*
Y147950D01*
X194122D01*
Y147912D01*
X194083D01*
Y147874D01*
X194045D01*
Y147836D01*
X194007D01*
Y147797D01*
X193968D01*
Y147759D01*
X193930D01*
Y147721D01*
X193892D01*
Y147682D01*
X193853D01*
Y147644D01*
X193815D01*
Y147606D01*
X193777D01*
Y147567D01*
X193739D01*
Y147529D01*
X193700D01*
Y147491D01*
X193662D01*
Y147452D01*
X193624D01*
Y147414D01*
X193585D01*
Y147376D01*
X193547D01*
Y147338D01*
X193509D01*
Y147299D01*
X193394D01*
Y147261D01*
X193356D01*
Y147223D01*
X193317D01*
Y147184D01*
X193279D01*
Y147146D01*
X193241D01*
Y147108D01*
X193164D01*
Y147070D01*
X193126D01*
Y147031D01*
X193011D01*
Y146993D01*
X192973D01*
Y146955D01*
X192934D01*
Y146916D01*
X192819D01*
Y146878D01*
X192781D01*
Y146840D01*
X192743D01*
Y146801D01*
X192628D01*
Y146763D01*
X192589D01*
Y146725D01*
X192475D01*
Y146686D01*
X192436D01*
Y146648D01*
X192398D01*
Y146610D01*
X192245D01*
Y146572D01*
X192207D01*
Y146533D01*
X192092D01*
Y146495D01*
X192053D01*
Y146457D01*
X191823D01*
Y146418D01*
X191785D01*
Y146380D01*
X191747D01*
Y146342D01*
X191632D01*
Y146303D01*
X191594D01*
Y146265D01*
X191402D01*
Y146227D01*
X191364D01*
Y146189D01*
X191172D01*
Y146150D01*
X191134D01*
Y146112D01*
X191096D01*
Y146074D01*
X190789D01*
Y146035D01*
X190751D01*
Y145997D01*
X190445D01*
Y145959D01*
X190406D01*
Y145921D01*
X190330D01*
Y145882D01*
X190291D01*
Y145921D01*
X190062D01*
Y145882D01*
X189985D01*
Y145844D01*
X189908D01*
Y145806D01*
X189487D01*
Y145844D01*
X189449D01*
Y145806D01*
X189372D01*
Y145729D01*
X188453D01*
Y145691D01*
X188415D01*
Y145652D01*
X156203D01*
Y152087D01*
X156242D01*
Y152125D01*
X156356D01*
Y152087D01*
X187725D01*
Y152125D01*
X187764D01*
Y152087D01*
X187878D01*
Y152125D01*
X187917D01*
Y152164D01*
X187955D01*
Y152202D01*
X188070D01*
Y152164D01*
X188147D01*
Y152202D01*
X188185D01*
Y152240D01*
X188223D01*
Y152278D01*
X188338D01*
Y152317D01*
X188376D01*
Y152355D01*
X188415D01*
Y152393D01*
X188453D01*
Y152432D01*
X188491D01*
Y152470D01*
X188530D01*
Y152508D01*
X188568D01*
Y152547D01*
X188606D01*
Y152662D01*
X188645D01*
Y152700D01*
X188683D01*
Y152738D01*
X188721D01*
Y152776D01*
X188683D01*
Y152853D01*
X188721D01*
Y152891D01*
X188759D01*
Y152930D01*
X188798D01*
Y165722D01*
X188759D01*
Y165761D01*
X188721D01*
Y165875D01*
X188683D01*
Y165914D01*
X188645D01*
Y165952D01*
X188606D01*
Y166105D01*
X188568D01*
Y166144D01*
X188530D01*
Y166182D01*
X188491D01*
Y166220D01*
X188453D01*
Y166259D01*
X188376D01*
Y166297D01*
X188300D01*
Y166335D01*
X188261D01*
Y166373D01*
X188223D01*
Y166412D01*
X188185D01*
Y166450D01*
X187840D01*
Y166488D01*
X187802D01*
Y166527D01*
X187764D01*
Y166565D01*
X187725D01*
Y166527D01*
X156318D01*
Y166565D01*
X156280D01*
Y167829D01*
Y167867D01*
Y172961D01*
X156318D01*
Y173000D01*
X188223D01*
Y172961D01*
D02*
G37*
G36*
X294241Y138796D02*
X293246D01*
Y138835D01*
X293207D01*
Y139333D01*
X293246D01*
Y139371D01*
X294241D01*
Y138796D01*
D02*
G37*
G36*
X224571D02*
X223575D01*
Y138835D01*
X223537D01*
Y139371D01*
X224571D01*
Y138796D01*
D02*
G37*
G36*
X212544Y138835D02*
X212506D01*
Y138796D01*
X211549D01*
Y138835D01*
X211510D01*
Y138873D01*
X211472D01*
Y138950D01*
X211510D01*
Y139256D01*
X211472D01*
Y139333D01*
X211510D01*
Y139371D01*
X212544D01*
Y138835D01*
D02*
G37*
G36*
X183857Y139333D02*
X183895D01*
Y139218D01*
X183857D01*
Y139179D01*
X183895D01*
Y139026D01*
X183857D01*
Y138950D01*
X183895D01*
Y138873D01*
X183857D01*
Y138796D01*
X182899D01*
Y138835D01*
X182861D01*
Y139371D01*
X183857D01*
Y139333D01*
D02*
G37*
G36*
X166047D02*
X166085D01*
Y138835D01*
X166047D01*
Y138796D01*
X165051D01*
Y139371D01*
X166047D01*
Y139333D01*
D02*
G37*
G36*
X308222Y139179D02*
X308260D01*
Y138375D01*
X308758D01*
Y138337D01*
X308796D01*
Y137647D01*
X308758D01*
Y137609D01*
X308719D01*
Y137571D01*
X308643D01*
Y137609D01*
X308336D01*
Y137571D01*
X308260D01*
Y135464D01*
X308222D01*
Y135426D01*
X307226D01*
Y137571D01*
X307187D01*
Y137609D01*
X307072D01*
Y137571D01*
X307034D01*
Y137609D01*
X306804D01*
Y137571D01*
X306689D01*
Y137609D01*
X306651D01*
Y138260D01*
X306613D01*
Y138298D01*
X306651D01*
Y138337D01*
X306689D01*
Y138375D01*
X307226D01*
Y139179D01*
X307264D01*
Y139218D01*
X308222D01*
Y139179D01*
D02*
G37*
G36*
X286122Y138337D02*
X286160D01*
Y138030D01*
Y137992D01*
Y137609D01*
X286122D01*
Y137571D01*
X286045D01*
Y137609D01*
X283709D01*
Y137571D01*
X283632D01*
Y137609D01*
X283555D01*
Y137571D01*
X283517D01*
Y137532D01*
X283440D01*
Y137494D01*
X283402D01*
Y137456D01*
X283364D01*
Y137418D01*
X283326D01*
Y137188D01*
X283364D01*
Y137150D01*
X285700D01*
Y137188D01*
X285738D01*
Y137150D01*
X285815D01*
Y137073D01*
X285968D01*
Y137035D01*
X286007D01*
Y136996D01*
X286045D01*
Y136958D01*
X286083D01*
Y136805D01*
X286160D01*
Y135809D01*
X286122D01*
Y135771D01*
X286083D01*
Y135617D01*
X286007D01*
Y135579D01*
X285968D01*
Y135503D01*
X285815D01*
Y135464D01*
X285777D01*
Y135426D01*
X282904D01*
Y135464D01*
X282866D01*
Y135503D01*
X282789D01*
Y135541D01*
X282713D01*
Y135579D01*
X282674D01*
Y135617D01*
X282559D01*
Y135656D01*
X282521D01*
Y135694D01*
X282483D01*
Y135732D01*
X282445D01*
Y135771D01*
X282406D01*
Y135809D01*
X282368D01*
Y135962D01*
X282330D01*
Y136000D01*
X282291D01*
Y137724D01*
X282330D01*
Y137762D01*
X282368D01*
Y137877D01*
X282406D01*
Y137916D01*
X282445D01*
Y138030D01*
X282483D01*
Y138107D01*
X282521D01*
Y138145D01*
X282598D01*
Y138184D01*
X282674D01*
Y138222D01*
X282713D01*
Y138260D01*
X282828D01*
Y138298D01*
X282866D01*
Y138337D01*
X282943D01*
Y138375D01*
X286122D01*
Y138337D01*
D02*
G37*
G36*
X218941D02*
X218979D01*
Y137609D01*
X218941D01*
Y137571D01*
X218864D01*
Y137609D01*
X216528D01*
Y137571D01*
X216451D01*
Y137609D01*
X216336D01*
Y137571D01*
X216298D01*
Y137532D01*
X216260D01*
Y137494D01*
X216221D01*
Y137456D01*
X216183D01*
Y137418D01*
X216145D01*
Y137188D01*
X216183D01*
Y137150D01*
X218520D01*
Y137188D01*
X218558D01*
Y137150D01*
X218635D01*
Y137073D01*
X218788D01*
Y137035D01*
X218826D01*
Y136996D01*
X218864D01*
Y136958D01*
X218903D01*
Y136805D01*
X218979D01*
Y135809D01*
X218941D01*
Y135771D01*
X218903D01*
Y135617D01*
X218826D01*
Y135579D01*
X218788D01*
Y135541D01*
X218749D01*
Y135503D01*
X218635D01*
Y135464D01*
X218596D01*
Y135426D01*
X215724D01*
Y135464D01*
X215685D01*
Y135503D01*
X215609D01*
Y135541D01*
X215532D01*
Y135579D01*
X215494D01*
Y135617D01*
X215379D01*
Y135656D01*
X215340D01*
Y135694D01*
X215302D01*
Y135732D01*
X215264D01*
Y135771D01*
X215226D01*
Y135847D01*
X215187D01*
Y135962D01*
X215149D01*
Y136000D01*
X215111D01*
Y137724D01*
X215149D01*
Y137762D01*
X215187D01*
Y137877D01*
X215226D01*
Y137916D01*
X215264D01*
Y137992D01*
X215302D01*
Y138107D01*
X215340D01*
Y138145D01*
X215417D01*
Y138184D01*
X215494D01*
Y138222D01*
X215532D01*
Y138260D01*
X215647D01*
Y138298D01*
X215685D01*
Y138337D01*
X215762D01*
Y138375D01*
X218941D01*
Y138337D01*
D02*
G37*
G36*
X214383Y139179D02*
X214421D01*
Y138452D01*
X214383D01*
Y138413D01*
X214421D01*
Y138375D01*
X214919D01*
Y138298D01*
X214957D01*
Y138222D01*
X214919D01*
Y138069D01*
X214957D01*
Y137839D01*
X214919D01*
Y137801D01*
X214957D01*
Y137647D01*
X214919D01*
Y137609D01*
X214881D01*
Y137571D01*
X214804D01*
Y137609D01*
X214498D01*
Y137571D01*
X214421D01*
Y137264D01*
Y137226D01*
Y135464D01*
X214383D01*
Y135426D01*
X213387D01*
Y137571D01*
X213349D01*
Y137609D01*
X213234D01*
Y137571D01*
X213196D01*
Y137609D01*
X212966D01*
Y137571D01*
X212851D01*
Y137609D01*
X212813D01*
Y137647D01*
X212774D01*
Y138337D01*
X212851D01*
Y138375D01*
X213387D01*
Y139179D01*
X213425D01*
Y139218D01*
X214383D01*
Y139179D01*
D02*
G37*
G36*
X233687Y136958D02*
Y136920D01*
Y136000D01*
X233649D01*
Y135962D01*
X233610D01*
Y135809D01*
X233572D01*
Y135771D01*
X233495D01*
Y135694D01*
X233419D01*
Y135617D01*
X233266D01*
Y135579D01*
X233227D01*
Y135541D01*
X233189D01*
Y135503D01*
X232997D01*
Y135464D01*
X232959D01*
Y135426D01*
X230355D01*
Y135464D01*
X230316D01*
Y135503D01*
X230125D01*
Y135541D01*
X230087D01*
Y135579D01*
X230048D01*
Y135617D01*
X230010D01*
Y135656D01*
X229972D01*
Y135694D01*
X229933D01*
Y135732D01*
X229895D01*
Y135771D01*
X229857D01*
Y135809D01*
X229819D01*
Y135847D01*
X229780D01*
Y135886D01*
X229742D01*
Y136000D01*
X229704D01*
Y136039D01*
X229665D01*
Y136115D01*
X229627D01*
Y138222D01*
X229665D01*
Y138260D01*
X230738D01*
Y136268D01*
X230776D01*
Y136230D01*
X232576D01*
Y136268D01*
X232614D01*
Y136307D01*
X232653D01*
Y136383D01*
X232691D01*
Y136422D01*
X232653D01*
Y138222D01*
X232691D01*
Y138260D01*
X233687D01*
Y136958D01*
D02*
G37*
G36*
X274210Y138375D02*
X276470D01*
Y138337D01*
X276508D01*
Y138298D01*
X276546D01*
Y138260D01*
X276776D01*
Y138222D01*
X276814D01*
Y138184D01*
X276929D01*
Y138145D01*
X276968D01*
Y138107D01*
X277006D01*
Y138069D01*
X277044D01*
Y137954D01*
X277082D01*
Y137916D01*
X277121D01*
Y137877D01*
X277159D01*
Y137839D01*
X277197D01*
Y137762D01*
X277236D01*
Y137686D01*
X277197D01*
Y136115D01*
X277236D01*
Y136000D01*
X277197D01*
Y135962D01*
X277159D01*
Y135924D01*
X277121D01*
Y135886D01*
X277082D01*
Y135847D01*
X277044D01*
Y135694D01*
X276968D01*
Y135617D01*
X276814D01*
Y135579D01*
X276776D01*
Y135541D01*
X276738D01*
Y135503D01*
X276623D01*
Y135541D01*
X276585D01*
Y135503D01*
X276508D01*
Y135426D01*
X273788D01*
Y135464D01*
X273750D01*
Y135503D01*
X273635D01*
Y135541D01*
X273597D01*
Y135579D01*
X273559D01*
Y135617D01*
X273444D01*
Y135656D01*
X273406D01*
Y135694D01*
X273367D01*
Y135732D01*
X273329D01*
Y135771D01*
X273291D01*
Y135809D01*
X273252D01*
Y135847D01*
X273214D01*
Y135886D01*
X273176D01*
Y136077D01*
X273137D01*
Y136154D01*
X273099D01*
Y136690D01*
Y136728D01*
Y139371D01*
X274210D01*
Y138375D01*
D02*
G37*
G36*
X257740Y138337D02*
X257779D01*
Y138260D01*
X258047D01*
Y138184D01*
X258085D01*
Y138145D01*
X258123D01*
Y138107D01*
X258161D01*
Y138069D01*
X258200D01*
Y138030D01*
X258238D01*
Y137992D01*
X258276D01*
Y137954D01*
X258315D01*
Y137916D01*
X258353D01*
Y137877D01*
X258391D01*
Y136000D01*
X258353D01*
Y135962D01*
X258315D01*
Y135809D01*
X258238D01*
Y135732D01*
X258200D01*
Y135694D01*
X258123D01*
Y135617D01*
X258047D01*
Y135541D01*
X258008D01*
Y135503D01*
X257893D01*
Y135541D01*
X257817D01*
Y135503D01*
X257779D01*
Y135464D01*
X257740D01*
Y135426D01*
X254599D01*
Y135503D01*
X254561D01*
Y135579D01*
X254599D01*
Y135617D01*
X254561D01*
Y135962D01*
X254599D01*
Y136000D01*
X254561D01*
Y136154D01*
X254599D01*
Y136192D01*
X254638D01*
Y136230D01*
X257242D01*
Y136268D01*
X257281D01*
Y136307D01*
X257319D01*
Y136613D01*
X257242D01*
Y136652D01*
X257204D01*
Y136613D01*
X254906D01*
Y136652D01*
X254829D01*
Y136690D01*
X254791D01*
Y136728D01*
X254753D01*
Y136805D01*
X254676D01*
Y136881D01*
X254638D01*
Y136920D01*
X254599D01*
Y136958D01*
X254561D01*
Y136996D01*
X254523D01*
Y137035D01*
X254485D01*
Y137877D01*
X254523D01*
Y137916D01*
X254561D01*
Y138069D01*
X254638D01*
Y138145D01*
X254676D01*
Y138184D01*
X254714D01*
Y138222D01*
X254753D01*
Y138260D01*
X254906D01*
Y138337D01*
X254944D01*
Y138375D01*
X257740D01*
Y138337D01*
D02*
G37*
G36*
X198565Y139256D02*
X198603D01*
Y139218D01*
X198833D01*
Y139179D01*
X198871D01*
Y139141D01*
X198909D01*
Y139103D01*
X199024D01*
Y139065D01*
X199062D01*
Y139026D01*
X199101D01*
Y138988D01*
X199139D01*
Y138950D01*
X199177D01*
Y138911D01*
X199216D01*
Y138796D01*
X199254D01*
Y138758D01*
X199292D01*
Y136000D01*
X199254D01*
Y135962D01*
X199216D01*
Y135924D01*
X199177D01*
Y135886D01*
X199139D01*
Y135732D01*
X199101D01*
Y135694D01*
X199062D01*
Y135656D01*
X199024D01*
Y135617D01*
X198871D01*
Y135579D01*
X198833D01*
Y135503D01*
X198679D01*
Y135541D01*
X198641D01*
Y135503D01*
X198603D01*
Y135464D01*
X198565D01*
Y135426D01*
X193432D01*
Y136268D01*
X193470D01*
Y136307D01*
X198143D01*
Y136345D01*
X198181D01*
Y136383D01*
X198220D01*
Y136460D01*
X198258D01*
Y136575D01*
X198220D01*
Y136767D01*
X198258D01*
Y136843D01*
X198220D01*
Y136881D01*
X193547D01*
Y136920D01*
X193509D01*
Y137686D01*
X193547D01*
Y137762D01*
X198220D01*
Y137839D01*
X198258D01*
Y137954D01*
X198220D01*
Y138222D01*
X198258D01*
Y138298D01*
X198220D01*
Y138375D01*
X198181D01*
Y138413D01*
X198143D01*
Y138452D01*
X193432D01*
Y139294D01*
X198565D01*
Y139256D01*
D02*
G37*
G36*
X177154Y138298D02*
X177192D01*
Y138260D01*
X177422D01*
Y138222D01*
X177460D01*
Y138184D01*
X177499D01*
Y138145D01*
X177537D01*
Y138107D01*
X177575D01*
Y138069D01*
X177614D01*
Y138030D01*
X177652D01*
Y137992D01*
X177690D01*
Y137954D01*
X177729D01*
Y137916D01*
X177767D01*
Y137877D01*
X177805D01*
Y137839D01*
Y137801D01*
Y137762D01*
X177767D01*
Y137686D01*
X177805D01*
Y136192D01*
X177767D01*
Y136115D01*
X177805D01*
Y136000D01*
X177767D01*
Y135962D01*
X177729D01*
Y135924D01*
X177690D01*
Y135809D01*
X177652D01*
Y135771D01*
X177614D01*
Y135732D01*
X177575D01*
Y135694D01*
X177537D01*
Y135656D01*
X177499D01*
Y135617D01*
X177460D01*
Y135579D01*
X177422D01*
Y135541D01*
X177384D01*
Y135503D01*
X177269D01*
Y135541D01*
X177231D01*
Y135503D01*
X177154D01*
Y135426D01*
X174013D01*
Y135464D01*
X173975D01*
Y136154D01*
X174013D01*
Y136192D01*
X174052D01*
Y136230D01*
X176656D01*
Y136268D01*
X176694D01*
Y136307D01*
X176733D01*
Y136613D01*
X174320D01*
Y136652D01*
X174243D01*
Y136690D01*
X174205D01*
Y136728D01*
X174167D01*
Y136767D01*
X174128D01*
Y136805D01*
X174090D01*
Y136843D01*
X174052D01*
Y136881D01*
X174013D01*
Y136920D01*
X173975D01*
Y136958D01*
X173937D01*
Y136996D01*
X173898D01*
Y137877D01*
X173937D01*
Y137916D01*
X173975D01*
Y138069D01*
X174013D01*
Y138107D01*
X174052D01*
Y138145D01*
X174090D01*
Y138184D01*
X174128D01*
Y138222D01*
X174167D01*
Y138260D01*
X174281D01*
Y138298D01*
X174320D01*
Y138337D01*
X174358D01*
Y138375D01*
X177154D01*
Y138298D01*
D02*
G37*
G36*
X324002Y139256D02*
X324040D01*
Y139218D01*
X324232D01*
Y139179D01*
X324270D01*
Y139141D01*
X324346D01*
Y139103D01*
X324423D01*
Y139065D01*
X324461D01*
Y139026D01*
X324500D01*
Y138988D01*
X324538D01*
Y138950D01*
X324576D01*
Y138873D01*
X324615D01*
Y138796D01*
X324653D01*
Y138758D01*
X324691D01*
Y136000D01*
X324653D01*
Y135962D01*
X324615D01*
Y135924D01*
X324576D01*
Y135886D01*
X324538D01*
Y135847D01*
X324500D01*
Y135694D01*
X324461D01*
Y135656D01*
X324423D01*
Y135617D01*
X324308D01*
Y135579D01*
X324270D01*
Y135541D01*
X324193D01*
Y135503D01*
X324002D01*
Y135464D01*
X323963D01*
Y135426D01*
X318869D01*
Y135464D01*
X318831D01*
Y136230D01*
X318869D01*
Y136268D01*
X318908D01*
Y136307D01*
X323580D01*
Y136345D01*
X323619D01*
Y136383D01*
X323657D01*
Y136881D01*
X318984D01*
Y136920D01*
X318908D01*
Y137686D01*
X318946D01*
Y137724D01*
X318984D01*
Y137762D01*
X323657D01*
Y138337D01*
X323619D01*
Y138375D01*
X323580D01*
Y138413D01*
X323542D01*
Y138452D01*
X318869D01*
Y138490D01*
X318831D01*
Y139256D01*
X318869D01*
Y139294D01*
X324002D01*
Y139256D01*
D02*
G37*
G36*
X318410Y135426D02*
X317414D01*
Y135464D01*
X317375D01*
Y136345D01*
Y136383D01*
Y139333D01*
X317414D01*
Y139371D01*
X318410D01*
Y135426D01*
D02*
G37*
G36*
X316188Y138337D02*
X316265D01*
Y138298D01*
X316303D01*
Y138260D01*
X316495D01*
Y138222D01*
X316533D01*
Y138184D01*
X316571D01*
Y138145D01*
X316610D01*
Y138107D01*
X316648D01*
Y138069D01*
X316686D01*
Y138030D01*
X316724D01*
Y137992D01*
X316763D01*
Y137954D01*
X316801D01*
Y137916D01*
X316839D01*
Y137877D01*
X316878D01*
Y136000D01*
X316839D01*
Y135962D01*
X316801D01*
Y135924D01*
X316763D01*
Y135809D01*
X316724D01*
Y135771D01*
X316686D01*
Y135732D01*
X316648D01*
Y135694D01*
X316610D01*
Y135656D01*
X316571D01*
Y135617D01*
X316533D01*
Y135579D01*
X316495D01*
Y135541D01*
X316456D01*
Y135503D01*
X316265D01*
Y135464D01*
X316227D01*
Y135426D01*
X313124D01*
Y135464D01*
X313086D01*
Y136192D01*
X313124D01*
Y136230D01*
X315767D01*
Y136307D01*
X315805D01*
Y136345D01*
X315844D01*
Y136613D01*
X313392D01*
Y136652D01*
X313354D01*
Y136690D01*
X313316D01*
Y136728D01*
X313277D01*
Y136767D01*
X313239D01*
Y136805D01*
X313201D01*
Y136843D01*
X313162D01*
Y136881D01*
X313124D01*
Y136920D01*
X313086D01*
Y136958D01*
X313048D01*
Y136996D01*
X313009D01*
Y137916D01*
X313048D01*
Y137954D01*
X313086D01*
Y138069D01*
X313124D01*
Y138107D01*
X313162D01*
Y138145D01*
X313201D01*
Y138184D01*
X313239D01*
Y138222D01*
X313277D01*
Y138260D01*
X313354D01*
Y138298D01*
X313431D01*
Y138337D01*
X313469D01*
Y138375D01*
X316188D01*
Y138337D01*
D02*
G37*
G36*
X311822D02*
X311898D01*
Y138298D01*
X311937D01*
Y138260D01*
X312128D01*
Y138222D01*
X312167D01*
Y138184D01*
X312281D01*
Y138145D01*
X312320D01*
Y138107D01*
X312358D01*
Y138030D01*
X312396D01*
Y137916D01*
X312473D01*
Y137877D01*
X312511D01*
Y137839D01*
X312549D01*
Y135962D01*
X312511D01*
Y135924D01*
X312473D01*
Y135886D01*
X312396D01*
Y135732D01*
X312358D01*
Y135694D01*
X312320D01*
Y135656D01*
X312281D01*
Y135617D01*
X312205D01*
Y135579D01*
X312128D01*
Y135541D01*
X312090D01*
Y135503D01*
X311898D01*
Y135464D01*
X311860D01*
Y135426D01*
X308987D01*
Y135464D01*
X308949D01*
Y136192D01*
X308987D01*
Y136230D01*
X311439D01*
Y136268D01*
X311477D01*
Y136307D01*
X311515D01*
Y136383D01*
X311554D01*
Y136460D01*
X311515D01*
Y137303D01*
X311554D01*
Y137418D01*
X311515D01*
Y137494D01*
X311477D01*
Y137532D01*
X311439D01*
Y137571D01*
X311401D01*
Y137609D01*
X311286D01*
Y137571D01*
X311247D01*
Y137609D01*
X309102D01*
Y137571D01*
X308987D01*
Y137609D01*
X308949D01*
Y138337D01*
X308987D01*
Y138375D01*
X311822D01*
Y138337D01*
D02*
G37*
G36*
X305617D02*
X305655D01*
Y138298D01*
X305732D01*
Y138260D01*
X305923D01*
Y138222D01*
X305962D01*
Y138184D01*
X306077D01*
Y138145D01*
X306115D01*
Y138107D01*
X306153D01*
Y138069D01*
X306191D01*
Y137954D01*
X306230D01*
Y137916D01*
X306268D01*
Y137877D01*
X306306D01*
Y137839D01*
X306345D01*
Y137801D01*
X306383D01*
Y135464D01*
X306345D01*
Y135426D01*
X305387D01*
Y135464D01*
X305349D01*
Y137456D01*
X305311D01*
Y137532D01*
X305272D01*
Y137571D01*
X305157D01*
Y137609D01*
X303932D01*
Y137571D01*
X303855D01*
Y137609D01*
X303817D01*
Y138260D01*
X303779D01*
Y138298D01*
X303817D01*
Y138337D01*
X303855D01*
Y138375D01*
X305617D01*
Y138337D01*
D02*
G37*
G36*
X302706D02*
X302744D01*
Y138298D01*
X302821D01*
Y138260D01*
X303012D01*
Y138184D01*
X303166D01*
Y138145D01*
X303204D01*
Y138107D01*
X303242D01*
Y138069D01*
X303281D01*
Y137916D01*
X303357D01*
Y137877D01*
X303396D01*
Y137839D01*
X303434D01*
Y137724D01*
Y137686D01*
Y135962D01*
X303357D01*
Y135886D01*
X303281D01*
Y135732D01*
X303242D01*
Y135694D01*
X303204D01*
Y135656D01*
X303166D01*
Y135617D01*
X303051D01*
Y135579D01*
X303012D01*
Y135541D01*
X302974D01*
Y135503D01*
X302744D01*
Y135464D01*
X302706D01*
Y135426D01*
X300063D01*
Y135464D01*
X300025D01*
Y135503D01*
X299872D01*
Y135541D01*
X299833D01*
Y135579D01*
X299795D01*
Y135617D01*
X299680D01*
Y135656D01*
X299642D01*
Y135694D01*
X299604D01*
Y135732D01*
X299565D01*
Y135771D01*
X299527D01*
Y135809D01*
X299489D01*
Y135847D01*
X299450D01*
Y135886D01*
X299412D01*
Y136077D01*
X299374D01*
Y136154D01*
X299336D01*
Y136192D01*
X299297D01*
Y137609D01*
X299336D01*
Y137647D01*
X299374D01*
Y137724D01*
X299412D01*
Y137801D01*
X299450D01*
Y137839D01*
X299489D01*
Y137992D01*
X299527D01*
Y138030D01*
X299565D01*
Y138069D01*
X299604D01*
Y138107D01*
X299642D01*
Y138145D01*
X299680D01*
Y138184D01*
X299833D01*
Y138222D01*
X299872D01*
Y138260D01*
X299948D01*
Y138298D01*
X300025D01*
Y138337D01*
X300063D01*
Y138375D01*
X302706D01*
Y138337D01*
D02*
G37*
G36*
X298838D02*
X298876D01*
Y135464D01*
X298838D01*
Y135426D01*
X297880D01*
Y135464D01*
X297842D01*
Y137571D01*
X297803D01*
Y137609D01*
X297689D01*
Y137571D01*
X297650D01*
Y137609D01*
X296195D01*
Y137571D01*
X296157D01*
Y137609D01*
X296042D01*
Y137571D01*
X295965D01*
Y137532D01*
X295927D01*
Y137494D01*
X295888D01*
Y135464D01*
X295850D01*
Y135426D01*
X294778D01*
Y135464D01*
X294739D01*
Y137609D01*
X294778D01*
Y137647D01*
X294816D01*
Y137762D01*
X294854D01*
Y137801D01*
X294893D01*
Y137954D01*
X294931D01*
Y137992D01*
X294969D01*
Y138030D01*
X295007D01*
Y138069D01*
X295046D01*
Y138107D01*
X295084D01*
Y138145D01*
X295122D01*
Y138184D01*
X295237D01*
Y138222D01*
X295276D01*
Y138260D01*
X295429D01*
Y138298D01*
X295467D01*
Y138375D01*
X298838D01*
Y138337D01*
D02*
G37*
G36*
X294203D02*
X294241D01*
Y135426D01*
X293246D01*
Y135464D01*
X293207D01*
Y136613D01*
Y136652D01*
Y138337D01*
X293246D01*
Y138375D01*
X294203D01*
Y138337D01*
D02*
G37*
G36*
X291943D02*
X292020D01*
Y138298D01*
X292058D01*
Y138260D01*
X292250D01*
Y138222D01*
X292288D01*
Y138184D01*
X292403D01*
Y138145D01*
X292441D01*
Y138107D01*
X292480D01*
Y138069D01*
X292518D01*
Y137954D01*
X292556D01*
Y137916D01*
X292595D01*
Y137877D01*
X292633D01*
Y137839D01*
X292671D01*
Y137762D01*
X292709D01*
Y136000D01*
X292671D01*
Y135962D01*
X292633D01*
Y135924D01*
X292595D01*
Y135886D01*
X292556D01*
Y135847D01*
X292518D01*
Y135732D01*
X292480D01*
Y135694D01*
X292441D01*
Y135656D01*
X292403D01*
Y135617D01*
X292288D01*
Y135579D01*
X292250D01*
Y135541D01*
X292212D01*
Y135503D01*
X292020D01*
Y135464D01*
X291982D01*
Y135426D01*
X289109D01*
Y135503D01*
X289071D01*
Y135541D01*
X289109D01*
Y136230D01*
X291599D01*
Y136307D01*
X291637D01*
Y136345D01*
X291675D01*
Y137456D01*
X291637D01*
Y137494D01*
X291599D01*
Y137571D01*
X291522D01*
Y137609D01*
X289224D01*
Y137571D01*
X289147D01*
Y137609D01*
X289109D01*
Y137686D01*
X289071D01*
Y137724D01*
X289109D01*
Y138260D01*
X289071D01*
Y138298D01*
X289109D01*
Y138337D01*
X289147D01*
Y138375D01*
X291943D01*
Y138337D01*
D02*
G37*
G36*
X281832Y138298D02*
X281870D01*
Y138222D01*
X281832D01*
Y135541D01*
X281870D01*
Y135503D01*
X281832D01*
Y135426D01*
X280836D01*
Y137571D01*
X280759D01*
Y137609D01*
X278997D01*
Y137571D01*
X278921D01*
Y137532D01*
X278883D01*
Y137494D01*
X278844D01*
Y137264D01*
Y137226D01*
Y135464D01*
X278806D01*
Y135426D01*
X277734D01*
Y137532D01*
X277695D01*
Y137571D01*
X277734D01*
Y137647D01*
X277772D01*
Y137724D01*
X277810D01*
Y137801D01*
X277849D01*
Y137839D01*
X277887D01*
Y137954D01*
X277925D01*
Y137992D01*
X277963D01*
Y138030D01*
X278002D01*
Y138069D01*
X278040D01*
Y138107D01*
X278078D01*
Y138184D01*
X278232D01*
Y138222D01*
X278270D01*
Y138260D01*
X278346D01*
Y138298D01*
X278423D01*
Y138337D01*
X278461D01*
Y138375D01*
X281832D01*
Y138298D01*
D02*
G37*
G36*
X270150Y139256D02*
X270188D01*
Y139141D01*
X270150D01*
Y138605D01*
X270188D01*
Y138490D01*
X270150D01*
Y138452D01*
X267775D01*
Y138413D01*
X267737D01*
Y138337D01*
X267775D01*
Y135617D01*
X267737D01*
Y135579D01*
X267775D01*
Y135503D01*
X267737D01*
Y135426D01*
X266741D01*
Y135464D01*
X266703D01*
Y138452D01*
X264328D01*
Y138490D01*
X264290D01*
Y139256D01*
X264328D01*
Y139294D01*
X270150D01*
Y139256D01*
D02*
G37*
G36*
X263639Y138337D02*
X263715D01*
Y138298D01*
X263754D01*
Y138260D01*
X263945D01*
Y138222D01*
X263983D01*
Y138184D01*
X264022D01*
Y138145D01*
X264060D01*
Y138107D01*
X264098D01*
Y138069D01*
X264137D01*
Y138030D01*
X264175D01*
Y137992D01*
X264213D01*
Y137954D01*
X264251D01*
Y137916D01*
X264290D01*
Y135962D01*
X264213D01*
Y135809D01*
X264175D01*
Y135771D01*
X264137D01*
Y135732D01*
X264098D01*
Y135694D01*
X264060D01*
Y135656D01*
X264022D01*
Y135617D01*
X263983D01*
Y135579D01*
X263945D01*
Y135541D01*
X263907D01*
Y135503D01*
X263715D01*
Y135464D01*
X263677D01*
Y135426D01*
X260536D01*
Y136230D01*
X263179D01*
Y136268D01*
X263217D01*
Y136307D01*
X263256D01*
Y136345D01*
X263294D01*
Y136613D01*
X263217D01*
Y136652D01*
X263179D01*
Y136613D01*
X260843D01*
Y136652D01*
X260804D01*
Y136690D01*
X260766D01*
Y136728D01*
X260728D01*
Y136767D01*
X260689D01*
Y136805D01*
X260651D01*
Y136843D01*
X260613D01*
Y136881D01*
X260575D01*
Y136920D01*
X260536D01*
Y136958D01*
X260498D01*
Y136996D01*
X260460D01*
Y137035D01*
X260421D01*
Y137877D01*
X260460D01*
Y137916D01*
X260498D01*
Y137954D01*
X260536D01*
Y138069D01*
X260575D01*
Y138107D01*
X260613D01*
Y138145D01*
X260651D01*
Y138184D01*
X260689D01*
Y138222D01*
X260728D01*
Y138260D01*
X260843D01*
Y138298D01*
X260881D01*
Y138337D01*
X260919D01*
Y138375D01*
X263639D01*
Y138337D01*
D02*
G37*
G36*
X259885Y139333D02*
X259923D01*
Y138069D01*
Y138030D01*
Y135464D01*
X259885D01*
Y135426D01*
X258889D01*
Y139371D01*
X259885D01*
Y139333D01*
D02*
G37*
G36*
X253336Y138337D02*
X253374D01*
Y138298D01*
X253412D01*
Y138260D01*
X253642D01*
Y138184D01*
X253795D01*
Y138145D01*
X253834D01*
Y138107D01*
X253872D01*
Y138069D01*
X253910D01*
Y137916D01*
X253987D01*
Y137877D01*
X254025D01*
Y137839D01*
X254063D01*
Y137801D01*
X254102D01*
Y137647D01*
X254063D01*
Y137609D01*
X254102D01*
Y136154D01*
X254063D01*
Y136115D01*
X254102D01*
Y136000D01*
X254063D01*
Y135962D01*
X254025D01*
Y135924D01*
X253987D01*
Y135886D01*
X253910D01*
Y135732D01*
X253872D01*
Y135694D01*
X253834D01*
Y135656D01*
X253795D01*
Y135617D01*
X253642D01*
Y135541D01*
X253604D01*
Y135503D01*
X253374D01*
Y135464D01*
X253336D01*
Y135426D01*
X250501D01*
Y135464D01*
X250463D01*
Y136192D01*
X250501D01*
Y136230D01*
X252953D01*
Y136268D01*
X252991D01*
Y136307D01*
X253029D01*
Y136383D01*
X253067D01*
Y136460D01*
X253029D01*
Y137341D01*
X253067D01*
Y137379D01*
X253029D01*
Y137494D01*
X252991D01*
Y137532D01*
X252953D01*
Y137571D01*
X252876D01*
Y137609D01*
X250616D01*
Y137571D01*
X250540D01*
Y137609D01*
X250463D01*
Y138337D01*
X250501D01*
Y138375D01*
X253336D01*
Y138337D01*
D02*
G37*
G36*
X249276D02*
X249314D01*
Y138298D01*
X249391D01*
Y138260D01*
X249582D01*
Y138222D01*
X249620D01*
Y138184D01*
X249774D01*
Y138107D01*
X249812D01*
Y138069D01*
X249850D01*
Y137954D01*
X249888D01*
Y137916D01*
X249927D01*
Y137877D01*
X249965D01*
Y137839D01*
X250003D01*
Y137801D01*
X250042D01*
Y136000D01*
X250003D01*
Y135962D01*
X249965D01*
Y135924D01*
X249927D01*
Y135886D01*
X249888D01*
Y135847D01*
X249850D01*
Y135694D01*
X249774D01*
Y135617D01*
X249620D01*
Y135579D01*
X249582D01*
Y135541D01*
X249544D01*
Y135503D01*
X249314D01*
Y135426D01*
X246633D01*
Y135464D01*
X246556D01*
Y135503D01*
X246480D01*
Y135541D01*
X246441D01*
Y135579D01*
X246365D01*
Y135617D01*
X246288D01*
Y135656D01*
X246250D01*
Y135694D01*
X246212D01*
Y135732D01*
X246173D01*
Y135771D01*
X246135D01*
Y135809D01*
X246097D01*
Y135847D01*
X246058D01*
Y135886D01*
X246020D01*
Y135924D01*
X245982D01*
Y136115D01*
X245943D01*
Y136154D01*
X245905D01*
Y137647D01*
X245943D01*
Y137686D01*
X245982D01*
Y137762D01*
X246020D01*
Y137839D01*
X246058D01*
Y137916D01*
X246097D01*
Y137992D01*
X246135D01*
Y138030D01*
X246173D01*
Y138069D01*
X246212D01*
Y138107D01*
X246250D01*
Y138145D01*
X246288D01*
Y138184D01*
X246403D01*
Y138222D01*
X246441D01*
Y138260D01*
X246518D01*
Y138298D01*
X246595D01*
Y138337D01*
X246633D01*
Y138375D01*
X249276D01*
Y138337D01*
D02*
G37*
G36*
X245445Y135426D02*
X244450D01*
Y137035D01*
Y137073D01*
Y137532D01*
X244411D01*
Y137609D01*
X244296D01*
Y137571D01*
X244258D01*
Y137609D01*
X243530D01*
Y137571D01*
X243492D01*
Y137609D01*
X243377D01*
Y137571D01*
X243339D01*
Y135464D01*
X243301D01*
Y135426D01*
X242228D01*
Y137532D01*
X242190D01*
Y137571D01*
X242113D01*
Y137609D01*
X241347D01*
Y137571D01*
X241271D01*
Y137532D01*
X241232D01*
Y137494D01*
X241194D01*
Y137456D01*
X241156D01*
Y135426D01*
X240045D01*
Y137647D01*
X240083D01*
Y137686D01*
X240122D01*
Y137877D01*
X240160D01*
Y137916D01*
X240198D01*
Y137954D01*
X240236D01*
Y137992D01*
X240275D01*
Y138030D01*
X240313D01*
Y138069D01*
X240351D01*
Y138107D01*
X240390D01*
Y138145D01*
X240428D01*
Y138184D01*
X240543D01*
Y138222D01*
X240581D01*
Y138260D01*
X240696D01*
Y138298D01*
X240734D01*
Y138337D01*
X240773D01*
Y138375D01*
X245445D01*
Y135426D01*
D02*
G37*
G36*
X239509Y138337D02*
X239547D01*
Y135464D01*
X239509D01*
Y135426D01*
X238513D01*
Y135503D01*
X238475D01*
Y135579D01*
X238513D01*
Y137341D01*
X238475D01*
Y137379D01*
X238513D01*
Y137494D01*
X238475D01*
Y137571D01*
X238436D01*
Y137609D01*
X238321D01*
Y137571D01*
X238283D01*
Y137609D01*
X237440D01*
Y137571D01*
X237402D01*
Y137532D01*
X237364D01*
Y135426D01*
X236291D01*
Y135464D01*
X236253D01*
Y137571D01*
X236215D01*
Y137609D01*
X236100D01*
Y137571D01*
X236062D01*
Y137609D01*
X235564D01*
Y137571D01*
X235487D01*
Y137609D01*
X235372D01*
Y137571D01*
X235334D01*
Y137532D01*
X235296D01*
Y137494D01*
X235257D01*
Y135464D01*
X235219D01*
Y135426D01*
X234146D01*
Y135503D01*
X234108D01*
Y135541D01*
X234146D01*
Y137494D01*
X234108D01*
Y137571D01*
X234146D01*
Y137686D01*
X234185D01*
Y137724D01*
X234223D01*
Y137916D01*
X234261D01*
Y137954D01*
X234300D01*
Y137992D01*
X234338D01*
Y138030D01*
X234376D01*
Y138069D01*
X234415D01*
Y138107D01*
X234453D01*
Y138145D01*
X234491D01*
Y138184D01*
X234606D01*
Y138222D01*
X234645D01*
Y138260D01*
X234759D01*
Y138298D01*
X234798D01*
Y138337D01*
X234836D01*
Y138375D01*
X239509D01*
Y138337D01*
D02*
G37*
G36*
X229091D02*
X229129D01*
Y135464D01*
X229091D01*
Y135426D01*
X228095D01*
Y137532D01*
X228057D01*
Y137609D01*
X227942D01*
Y137571D01*
X227865D01*
Y137609D01*
X226448D01*
Y137571D01*
X226410D01*
Y137609D01*
X226256D01*
Y137571D01*
X226218D01*
Y137532D01*
X226180D01*
Y137494D01*
X226142D01*
Y135464D01*
X226103D01*
Y135426D01*
X225031D01*
Y135464D01*
X224992D01*
Y137609D01*
X225031D01*
Y137686D01*
X225069D01*
Y137801D01*
X225107D01*
Y137839D01*
X225146D01*
Y137954D01*
X225184D01*
Y137992D01*
X225222D01*
Y138030D01*
X225261D01*
Y138069D01*
X225299D01*
Y138107D01*
X225337D01*
Y138184D01*
X225490D01*
Y138222D01*
X225529D01*
Y138260D01*
X225682D01*
Y138337D01*
X225720D01*
Y138375D01*
X229091D01*
Y138337D01*
D02*
G37*
G36*
X224533D02*
X224571D01*
Y135426D01*
X223575D01*
Y135464D01*
X223537D01*
Y136498D01*
Y136537D01*
Y138337D01*
X223575D01*
Y138375D01*
X224533D01*
Y138337D01*
D02*
G37*
G36*
X222273D02*
X222311D01*
Y138298D01*
X222388D01*
Y138260D01*
X222580D01*
Y138222D01*
X222618D01*
Y138184D01*
X222733D01*
Y138145D01*
X222771D01*
Y138107D01*
X222809D01*
Y138069D01*
X222848D01*
Y137954D01*
X222886D01*
Y137916D01*
X222924D01*
Y137877D01*
X222962D01*
Y137839D01*
X223001D01*
Y137801D01*
X223039D01*
Y136000D01*
X223001D01*
Y135962D01*
X222962D01*
Y135924D01*
X222924D01*
Y135886D01*
X222886D01*
Y135847D01*
X222848D01*
Y135732D01*
X222809D01*
Y135694D01*
X222771D01*
Y135656D01*
X222733D01*
Y135617D01*
X222618D01*
Y135579D01*
X222580D01*
Y135541D01*
X222541D01*
Y135503D01*
X222311D01*
Y135426D01*
X219439D01*
Y135464D01*
X219401D01*
Y136154D01*
X219439D01*
Y136230D01*
X221890D01*
Y136268D01*
X221928D01*
Y136307D01*
X221967D01*
Y136345D01*
X222005D01*
Y137456D01*
X221967D01*
Y137494D01*
X221928D01*
Y137532D01*
X221890D01*
Y137571D01*
X221852D01*
Y137609D01*
X219554D01*
Y137571D01*
X219477D01*
Y137609D01*
X219439D01*
Y137647D01*
X219401D01*
Y138184D01*
X219439D01*
Y138222D01*
X219401D01*
Y138337D01*
X219477D01*
Y138375D01*
X222273D01*
Y138337D01*
D02*
G37*
G36*
X212506D02*
X212544D01*
Y135464D01*
X212506D01*
Y135426D01*
X211510D01*
Y135503D01*
Y135541D01*
Y138260D01*
X211472D01*
Y138298D01*
X211510D01*
Y138337D01*
X211549D01*
Y138375D01*
X212506D01*
Y138337D01*
D02*
G37*
G36*
X210246D02*
X210285D01*
Y138298D01*
X210323D01*
Y138260D01*
X210515D01*
Y138222D01*
X210553D01*
Y138184D01*
X210706D01*
Y138107D01*
X210783D01*
Y138030D01*
X210821D01*
Y137916D01*
X210898D01*
Y137839D01*
X210936D01*
Y137801D01*
X210974D01*
Y135962D01*
X210898D01*
Y135886D01*
X210821D01*
Y135732D01*
X210783D01*
Y135694D01*
X210744D01*
Y135656D01*
X210706D01*
Y135617D01*
X210553D01*
Y135541D01*
X210515D01*
Y135503D01*
X210285D01*
Y135464D01*
X210246D01*
Y135426D01*
X207565D01*
Y135464D01*
X207527D01*
Y135503D01*
X207412D01*
Y135541D01*
X207374D01*
Y135579D01*
X207336D01*
Y135617D01*
X207221D01*
Y135656D01*
X207182D01*
Y135694D01*
X207144D01*
Y135732D01*
X207106D01*
Y135771D01*
X207067D01*
Y135809D01*
X207029D01*
Y135847D01*
X206991D01*
Y135886D01*
X206953D01*
Y136077D01*
X206914D01*
Y136154D01*
X206876D01*
Y136192D01*
X206838D01*
Y137609D01*
X206876D01*
Y137686D01*
X206914D01*
Y137724D01*
X206953D01*
Y137839D01*
X206991D01*
Y137877D01*
X207029D01*
Y137992D01*
X207067D01*
Y138030D01*
X207106D01*
Y138069D01*
X207144D01*
Y138107D01*
X207182D01*
Y138145D01*
X207221D01*
Y138184D01*
X207336D01*
Y138222D01*
X207374D01*
Y138260D01*
X207489D01*
Y138298D01*
X207527D01*
Y138337D01*
X207604D01*
Y138375D01*
X210246D01*
Y138337D01*
D02*
G37*
G36*
X206378D02*
X206416D01*
Y135464D01*
X206378D01*
Y135426D01*
X205382D01*
Y137571D01*
X205344D01*
Y137609D01*
X205229D01*
Y137571D01*
X205191D01*
Y137609D01*
X203735D01*
Y137571D01*
X203697D01*
Y137609D01*
X203582D01*
Y137571D01*
X203505D01*
Y137532D01*
X203467D01*
Y137494D01*
X203429D01*
Y135464D01*
X203391D01*
Y135426D01*
X202318D01*
Y135464D01*
X202280D01*
Y135847D01*
Y135886D01*
Y137647D01*
X202318D01*
Y137686D01*
X202356D01*
Y137801D01*
X202395D01*
Y137839D01*
X202433D01*
Y137954D01*
X202471D01*
Y137992D01*
X202510D01*
Y138030D01*
X202548D01*
Y138069D01*
X202586D01*
Y138107D01*
X202625D01*
Y138184D01*
X202778D01*
Y138222D01*
X202816D01*
Y138260D01*
X202969D01*
Y138337D01*
X203008D01*
Y138375D01*
X206378D01*
Y138337D01*
D02*
G37*
G36*
X192934D02*
X192973D01*
Y138298D01*
X193011D01*
Y138260D01*
X192973D01*
Y135541D01*
X193011D01*
Y135503D01*
X192973D01*
Y135426D01*
X191977D01*
Y136767D01*
Y136805D01*
Y137532D01*
X191938D01*
Y137609D01*
X191823D01*
Y137571D01*
X191747D01*
Y137609D01*
X190330D01*
Y137571D01*
X190291D01*
Y137609D01*
X190138D01*
Y137571D01*
X190100D01*
Y137532D01*
X190023D01*
Y137456D01*
X189985D01*
Y135464D01*
X189947D01*
Y135426D01*
X188913D01*
Y135464D01*
X188874D01*
Y137647D01*
X188913D01*
Y137724D01*
X188951D01*
Y137801D01*
X188989D01*
Y137839D01*
X189028D01*
Y137992D01*
X189104D01*
Y138069D01*
X189181D01*
Y138107D01*
X189219D01*
Y138184D01*
X189372D01*
Y138222D01*
X189410D01*
Y138260D01*
X189525D01*
Y138298D01*
X189564D01*
Y138337D01*
X189602D01*
Y138375D01*
X192934D01*
Y138337D01*
D02*
G37*
G36*
X183857D02*
X183895D01*
Y138222D01*
X183857D01*
Y138145D01*
X183895D01*
Y135617D01*
X183857D01*
Y135579D01*
X183895D01*
Y135464D01*
X183857D01*
Y135426D01*
X182861D01*
Y135962D01*
Y136000D01*
Y138337D01*
X182899D01*
Y138375D01*
X183857D01*
Y138337D01*
D02*
G37*
G36*
X182286D02*
X182325D01*
Y135426D01*
X181329D01*
Y135464D01*
X181291D01*
Y137571D01*
X181252D01*
Y137609D01*
X181137D01*
Y137571D01*
X181099D01*
Y137609D01*
X179644D01*
Y137571D01*
X179605D01*
Y137609D01*
X179490D01*
Y137571D01*
X179414D01*
Y137532D01*
X179376D01*
Y137494D01*
X179337D01*
Y135464D01*
X179299D01*
Y135426D01*
X178226D01*
Y135464D01*
X178188D01*
Y137609D01*
X178226D01*
Y137647D01*
X178265D01*
Y137801D01*
X178303D01*
Y137839D01*
X178341D01*
Y137954D01*
X178380D01*
Y137992D01*
X178418D01*
Y138030D01*
X178456D01*
Y138069D01*
X178495D01*
Y138107D01*
X178533D01*
Y138145D01*
X178571D01*
Y138184D01*
X178724D01*
Y138260D01*
X178878D01*
Y138298D01*
X178916D01*
Y138337D01*
X178954D01*
Y138375D01*
X182286D01*
Y138337D01*
D02*
G37*
G36*
X172749D02*
X172788D01*
Y138298D01*
X172826D01*
Y138260D01*
X173018D01*
Y138222D01*
X173056D01*
Y138184D01*
X173094D01*
Y138145D01*
X173132D01*
Y138107D01*
X173171D01*
Y138069D01*
X173209D01*
Y138030D01*
X173247D01*
Y137992D01*
X173286D01*
Y137954D01*
X173324D01*
Y137916D01*
X173362D01*
Y137877D01*
X173400D01*
Y136000D01*
X173362D01*
Y135962D01*
X173324D01*
Y135847D01*
X173286D01*
Y135809D01*
X173247D01*
Y135771D01*
X173209D01*
Y135732D01*
X173171D01*
Y135694D01*
X173132D01*
Y135656D01*
X173094D01*
Y135617D01*
X173056D01*
Y135579D01*
X173018D01*
Y135503D01*
X172788D01*
Y135464D01*
X172749D01*
Y135426D01*
X169647D01*
Y135464D01*
X169609D01*
Y136192D01*
X169647D01*
Y136230D01*
X172290D01*
Y136307D01*
X172328D01*
Y136345D01*
X172366D01*
Y136613D01*
X169915D01*
Y136652D01*
X169877D01*
Y136690D01*
X169839D01*
Y136728D01*
X169800D01*
Y136767D01*
X169762D01*
Y136805D01*
X169724D01*
Y136843D01*
X169685D01*
Y136881D01*
X169647D01*
Y136920D01*
X169609D01*
Y136958D01*
X169570D01*
Y136996D01*
X169532D01*
Y137916D01*
X169570D01*
Y137954D01*
X169609D01*
Y138069D01*
X169647D01*
Y138107D01*
X169685D01*
Y138145D01*
X169724D01*
Y138184D01*
X169762D01*
Y138222D01*
X169800D01*
Y138260D01*
X169877D01*
Y138298D01*
X169953D01*
Y138337D01*
X169992D01*
Y138375D01*
X172749D01*
Y138337D01*
D02*
G37*
G36*
X168268D02*
X168306D01*
Y138298D01*
X168345D01*
Y138260D01*
X168575D01*
Y138222D01*
X168613D01*
Y138184D01*
X168689D01*
Y138145D01*
X168766D01*
Y138107D01*
X168804D01*
Y138030D01*
X168843D01*
Y137916D01*
X168881D01*
Y137877D01*
X168919D01*
Y137839D01*
X168957D01*
Y137801D01*
X168996D01*
Y135464D01*
X168957D01*
Y135426D01*
X168000D01*
Y135464D01*
X167962D01*
Y136537D01*
Y136575D01*
Y137494D01*
X167923D01*
Y137532D01*
X167885D01*
Y137571D01*
X167847D01*
Y137609D01*
X167732D01*
Y137571D01*
X167694D01*
Y137609D01*
X166545D01*
Y137571D01*
X166468D01*
Y137609D01*
X166430D01*
Y138375D01*
X168268D01*
Y138337D01*
D02*
G37*
G36*
X166008D02*
X166085D01*
Y136652D01*
Y136613D01*
Y135464D01*
X166047D01*
Y135426D01*
X165051D01*
Y138375D01*
X166008D01*
Y138337D01*
D02*
G37*
G36*
X164553D02*
X164629D01*
Y138222D01*
X164591D01*
Y138184D01*
X164629D01*
Y135464D01*
X164591D01*
Y135426D01*
X163595D01*
Y135464D01*
X163557D01*
Y137571D01*
X163519D01*
Y137609D01*
X163404D01*
Y137571D01*
X163365D01*
Y137609D01*
X161910D01*
Y137571D01*
X161872D01*
Y137609D01*
X161757D01*
Y137571D01*
X161719D01*
Y137532D01*
X161642D01*
Y137456D01*
X161604D01*
Y135426D01*
X160531D01*
Y135464D01*
X160493D01*
Y137647D01*
X160531D01*
Y137724D01*
X160570D01*
Y137801D01*
X160608D01*
Y137839D01*
X160646D01*
Y137992D01*
X160684D01*
Y138030D01*
X160723D01*
Y138069D01*
X160761D01*
Y138107D01*
X160799D01*
Y138145D01*
X160838D01*
Y138184D01*
X160991D01*
Y138260D01*
X161144D01*
Y138298D01*
X161182D01*
Y138337D01*
X161221D01*
Y138375D01*
X164553D01*
Y138337D01*
D02*
G37*
G36*
X187802D02*
X187840D01*
Y138298D01*
X187878D01*
Y138260D01*
X188108D01*
Y138184D01*
X188185D01*
Y138107D01*
X188223D01*
Y138069D01*
X188300D01*
Y137992D01*
X188376D01*
Y137916D01*
X188415D01*
Y137877D01*
X188453D01*
Y136345D01*
X188415D01*
Y136307D01*
X188376D01*
Y136192D01*
X188338D01*
Y136154D01*
X188300D01*
Y136077D01*
X188223D01*
Y136039D01*
X188185D01*
Y135962D01*
X188032D01*
Y135924D01*
X187993D01*
Y135886D01*
X185466D01*
Y135847D01*
X185427D01*
Y135349D01*
X185580D01*
Y135311D01*
X185619D01*
Y135273D01*
X185657D01*
Y135234D01*
X185734D01*
Y135273D01*
X188223D01*
Y135234D01*
X188261D01*
Y135196D01*
X188300D01*
Y135119D01*
X188261D01*
Y134622D01*
X188300D01*
Y134545D01*
X188261D01*
Y134507D01*
X185006D01*
Y134545D01*
X184968D01*
Y134583D01*
X184853D01*
Y134622D01*
X184814D01*
Y134660D01*
X184738D01*
Y134698D01*
X184661D01*
Y134737D01*
X184623D01*
Y134775D01*
X184584D01*
Y134813D01*
X184546D01*
Y134851D01*
X184508D01*
Y134928D01*
X184470D01*
Y135005D01*
X184431D01*
Y135119D01*
X184393D01*
Y135158D01*
X184355D01*
Y135196D01*
X184316D01*
Y137801D01*
X184355D01*
Y137839D01*
X184393D01*
Y137954D01*
X184431D01*
Y138030D01*
X184470D01*
Y138069D01*
X184508D01*
Y138107D01*
X184546D01*
Y138145D01*
X184623D01*
Y138184D01*
X184699D01*
Y138222D01*
X184738D01*
Y138260D01*
X184968D01*
Y138298D01*
X185006D01*
Y138337D01*
X185044D01*
Y138375D01*
X187802D01*
Y138337D01*
D02*
G37*
G36*
X159306D02*
X159344D01*
Y138298D01*
X159421D01*
Y138260D01*
X159612D01*
Y138222D01*
X159650D01*
Y138184D01*
X159689D01*
Y138145D01*
X159727D01*
Y138107D01*
X159765D01*
Y138069D01*
X159803D01*
Y138030D01*
X159842D01*
Y137992D01*
X159880D01*
Y137954D01*
X159918D01*
Y137916D01*
X159957D01*
Y137877D01*
X159995D01*
Y137762D01*
X159957D01*
Y137724D01*
X159995D01*
Y137647D01*
Y137609D01*
Y136537D01*
X159957D01*
Y136498D01*
X159995D01*
Y136383D01*
X159957D01*
Y136307D01*
X159918D01*
Y136268D01*
X159880D01*
Y136154D01*
X159842D01*
Y136115D01*
X159803D01*
Y136077D01*
X159765D01*
Y136039D01*
X159727D01*
Y136000D01*
X159689D01*
Y135962D01*
X159535D01*
Y135886D01*
X156969D01*
Y135809D01*
X156931D01*
Y135732D01*
X156969D01*
Y135541D01*
X156931D01*
Y135503D01*
X156969D01*
Y135464D01*
X156931D01*
Y135426D01*
X156969D01*
Y135349D01*
X157122D01*
Y135273D01*
X157161D01*
Y135234D01*
X157276D01*
Y135273D01*
X159612D01*
Y135234D01*
X159650D01*
Y135273D01*
X159765D01*
Y135234D01*
X159803D01*
Y134545D01*
X159765D01*
Y134507D01*
X156548D01*
Y134545D01*
X156510D01*
Y134583D01*
X156395D01*
Y134622D01*
X156356D01*
Y134660D01*
X156242D01*
Y134698D01*
X156203D01*
Y134737D01*
X156165D01*
Y134775D01*
X156127D01*
Y134813D01*
X156088D01*
Y134851D01*
X156050D01*
Y134890D01*
X156012D01*
Y135005D01*
X155973D01*
Y135043D01*
X155935D01*
Y135158D01*
X155897D01*
Y135196D01*
X155858D01*
Y137839D01*
X155897D01*
Y137877D01*
X155935D01*
Y137992D01*
X155973D01*
Y138030D01*
X156012D01*
Y138069D01*
X156050D01*
Y138107D01*
X156088D01*
Y138145D01*
X156127D01*
Y138184D01*
X156242D01*
Y138222D01*
X156280D01*
Y138260D01*
X156471D01*
Y138298D01*
X156548D01*
Y138337D01*
X156586D01*
Y138375D01*
X159306D01*
Y138337D01*
D02*
G37*
G36*
X288500Y295000D02*
X279982D01*
Y323425D01*
X269056D01*
X268038Y323333D01*
X267297D01*
X266649Y323240D01*
X266186Y323147D01*
X265815D01*
X265630Y323055D01*
X265538D01*
X264056Y322592D01*
X263408Y322314D01*
X262853Y322036D01*
X262297Y321759D01*
X261927Y321573D01*
X261741Y321481D01*
X261649Y321388D01*
X260908Y320833D01*
X260168Y320184D01*
X258779Y318796D01*
X258131Y318147D01*
X257667Y317592D01*
X257390Y317222D01*
X257297Y317129D01*
X256371Y315833D01*
X255353Y314444D01*
X254334Y312963D01*
X253316Y311574D01*
X252483Y310277D01*
X251834Y309259D01*
X251557Y308889D01*
X251371Y308611D01*
X251186Y308426D01*
Y308333D01*
X242760Y295000D01*
X232205D01*
X243224Y312407D01*
X244520Y314259D01*
X245723Y315925D01*
X246927Y317314D01*
X247946Y318610D01*
X248871Y319536D01*
X249612Y320277D01*
X250075Y320740D01*
X250260Y320925D01*
X251001Y321481D01*
X251834Y322129D01*
X253501Y323147D01*
X254242Y323518D01*
X254797Y323888D01*
X255168Y324073D01*
X255353Y324166D01*
X253686Y324444D01*
X252112Y324721D01*
X250723Y325184D01*
X249334Y325555D01*
X248131Y326018D01*
X247020Y326573D01*
X246001Y327036D01*
X245075Y327499D01*
X244335Y328055D01*
X243594Y328518D01*
X243038Y328888D01*
X242575Y329258D01*
X242205Y329536D01*
X241927Y329814D01*
X241835Y329906D01*
X241742Y329999D01*
X241001Y330925D01*
X240261Y331851D01*
X239149Y333795D01*
X238409Y335740D01*
X237853Y337591D01*
X237483Y339165D01*
X237390Y339814D01*
Y340462D01*
X237298Y340925D01*
Y341295D01*
Y341480D01*
Y341573D01*
X237390Y343517D01*
X237668Y345276D01*
X238131Y346943D01*
X238594Y348332D01*
X239149Y349535D01*
X239520Y350461D01*
X239890Y351017D01*
X239983Y351110D01*
Y351202D01*
X241094Y352684D01*
X242205Y353980D01*
X243409Y355091D01*
X244520Y355924D01*
X245538Y356572D01*
X246372Y356943D01*
X246927Y357221D01*
X247020Y357313D01*
X247112D01*
X247946Y357591D01*
X248964Y357869D01*
X251001Y358332D01*
X253223Y358609D01*
X255260Y358887D01*
X257205Y358980D01*
X258038D01*
X258779Y359072D01*
X288500D01*
Y295000D01*
D02*
G37*
G36*
X223872D02*
X215354D01*
Y323425D01*
X204428D01*
X203410Y323333D01*
X202669D01*
X202021Y323240D01*
X201558Y323147D01*
X201188D01*
X201002Y323055D01*
X200910D01*
X199428Y322592D01*
X198780Y322314D01*
X198225Y322036D01*
X197669Y321759D01*
X197299Y321573D01*
X197114Y321481D01*
X197021Y321388D01*
X196280Y320833D01*
X195540Y320184D01*
X194151Y318796D01*
X193503Y318147D01*
X193040Y317592D01*
X192762Y317222D01*
X192669Y317129D01*
X191744Y315833D01*
X190725Y314444D01*
X189707Y312963D01*
X188688Y311574D01*
X187855Y310277D01*
X187206Y309259D01*
X186929Y308889D01*
X186744Y308611D01*
X186558Y308426D01*
Y308333D01*
X178133Y295000D01*
X167578D01*
X178596Y312407D01*
X179892Y314259D01*
X181096Y315925D01*
X182299Y317314D01*
X183318Y318610D01*
X184244Y319536D01*
X184984Y320277D01*
X185447Y320740D01*
X185633Y320925D01*
X186373Y321481D01*
X187206Y322129D01*
X188873Y323147D01*
X189614Y323518D01*
X190169Y323888D01*
X190540Y324073D01*
X190725Y324166D01*
X189058Y324444D01*
X187484Y324721D01*
X186095Y325184D01*
X184707Y325555D01*
X183503Y326018D01*
X182392Y326573D01*
X181373Y327036D01*
X180447Y327499D01*
X179707Y328055D01*
X178966Y328518D01*
X178410Y328888D01*
X177947Y329258D01*
X177577Y329536D01*
X177299Y329814D01*
X177207Y329906D01*
X177114Y329999D01*
X176374Y330925D01*
X175633Y331851D01*
X174522Y333795D01*
X173781Y335740D01*
X173225Y337591D01*
X172855Y339165D01*
X172763Y339814D01*
Y340462D01*
X172670Y340925D01*
Y341295D01*
Y341480D01*
Y341573D01*
X172763Y343517D01*
X173040Y345276D01*
X173503Y346943D01*
X173966Y348332D01*
X174522Y349535D01*
X174892Y350461D01*
X175262Y351017D01*
X175355Y351110D01*
Y351202D01*
X176466Y352684D01*
X177577Y353980D01*
X178781Y355091D01*
X179892Y355924D01*
X180910Y356572D01*
X181744Y356943D01*
X182299Y357221D01*
X182392Y357313D01*
X182484D01*
X183318Y357591D01*
X184336Y357869D01*
X186373Y358332D01*
X188595Y358609D01*
X190632Y358887D01*
X192577Y358980D01*
X193410D01*
X194151Y359072D01*
X223872D01*
Y295000D01*
D02*
G37*
%LPC*%
G36*
X213540Y181886D02*
X213387D01*
Y181771D01*
X213464D01*
Y181809D01*
X213540D01*
Y181886D01*
D02*
G37*
G36*
X213234Y181809D02*
X213157D01*
Y181771D01*
X213119D01*
Y181732D01*
X213157D01*
Y181694D01*
X213234D01*
Y181732D01*
X213272D01*
Y181771D01*
X213234D01*
Y181809D01*
D02*
G37*
G36*
X213042Y181694D02*
X212889D01*
Y181656D01*
X212928D01*
Y181617D01*
X213004D01*
Y181656D01*
X213042D01*
Y181694D01*
D02*
G37*
G36*
X212774Y181617D02*
X212660D01*
Y181579D01*
Y181541D01*
X212774D01*
Y181617D01*
D02*
G37*
G36*
X212583Y181502D02*
X212468D01*
Y181464D01*
X212583D01*
Y181502D01*
D02*
G37*
G36*
X212315Y181426D02*
X212200D01*
Y181349D01*
X212315D01*
Y181426D01*
D02*
G37*
G36*
X212085Y181349D02*
X212047D01*
Y181311D01*
X212008D01*
Y181273D01*
X212123D01*
Y181311D01*
X212085D01*
Y181349D01*
D02*
G37*
G36*
X211855Y181234D02*
X211740D01*
Y181196D01*
X211855D01*
Y181234D01*
D02*
G37*
G36*
X211242Y181005D02*
X211204D01*
Y180966D01*
Y180928D01*
X211242D01*
Y181005D01*
D02*
G37*
G36*
X211089Y180928D02*
X211013D01*
Y180890D01*
Y180851D01*
X211051D01*
Y180890D01*
X211089D01*
Y180928D01*
D02*
G37*
G36*
X210898Y180851D02*
X210821D01*
Y180813D01*
Y180775D01*
X210898D01*
Y180851D01*
D02*
G37*
G36*
X214192Y180775D02*
X214115D01*
Y180736D01*
X214192D01*
Y180775D01*
D02*
G37*
G36*
X210706D02*
X210668D01*
Y180736D01*
X210630D01*
Y180660D01*
X210668D01*
Y180698D01*
X210706D01*
Y180775D01*
D02*
G37*
G36*
X210553Y180660D02*
X210476D01*
Y180622D01*
X210553D01*
Y180660D01*
D02*
G37*
G36*
X210476Y180622D02*
X210438D01*
Y180583D01*
X210285D01*
Y180545D01*
X210246Y180507D01*
X210170D01*
Y180468D01*
X210132D01*
Y180430D01*
X210285D01*
Y180468D01*
Y180507D01*
X210438D01*
Y180545D01*
X210476D01*
Y180622D01*
D02*
G37*
G36*
X210132Y180392D02*
X210093D01*
Y180353D01*
X210132D01*
Y180392D01*
D02*
G37*
G36*
X210017Y180315D02*
X209902D01*
Y180239D01*
X209978D01*
Y180277D01*
X210017D01*
Y180315D01*
D02*
G37*
G36*
X209825Y180239D02*
X209710D01*
Y180162D01*
X209825D01*
Y180239D01*
D02*
G37*
G36*
X209634Y180162D02*
X209557D01*
Y180124D01*
X209519D01*
Y180047D01*
X209595D01*
Y180085D01*
X209634D01*
Y180162D01*
D02*
G37*
G36*
X209519Y180047D02*
X209442D01*
Y179970D01*
X209519D01*
Y180047D01*
D02*
G37*
G36*
X209327Y179970D02*
X209251D01*
Y179894D01*
X209366D01*
Y179932D01*
X209327D01*
Y179970D01*
D02*
G37*
G36*
X209136Y179894D02*
X209097D01*
Y179856D01*
X209059D01*
Y179779D01*
X209136D01*
Y179817D01*
X209174D01*
Y179856D01*
X209136D01*
Y179894D01*
D02*
G37*
G36*
X208906Y179664D02*
X208791D01*
Y179626D01*
X208906D01*
Y179664D01*
D02*
G37*
G36*
X208676Y179587D02*
X208638D01*
Y179511D01*
X208676D01*
Y179549D01*
Y179587D01*
D02*
G37*
G36*
X208638Y179511D02*
X208561D01*
Y179472D01*
X208523D01*
Y179434D01*
X208599D01*
Y179472D01*
X208638D01*
Y179511D01*
D02*
G37*
G36*
X208408Y179434D02*
X208370D01*
Y179396D01*
X208331D01*
Y179319D01*
X208255D01*
Y179243D01*
X208217D01*
Y179204D01*
X208178D01*
Y179166D01*
X208140D01*
Y179128D01*
X208217D01*
Y179166D01*
X208255D01*
Y179204D01*
X208293D01*
Y179243D01*
X208331D01*
Y179281D01*
X208370D01*
Y179319D01*
X208446D01*
Y179358D01*
Y179396D01*
X208408D01*
Y179434D01*
D02*
G37*
G36*
X208102Y179128D02*
X207948D01*
Y179051D01*
X207910D01*
Y179013D01*
X207872D01*
Y178936D01*
X207948D01*
Y178975D01*
X207987D01*
Y179051D01*
X208102D01*
Y179128D01*
D02*
G37*
G36*
X207872Y178936D02*
X207834D01*
Y178898D01*
X207872D01*
Y178936D01*
D02*
G37*
G36*
X207757Y178860D02*
X207604D01*
Y178783D01*
Y178745D01*
X207527D01*
Y178707D01*
X207604D01*
X207642Y178745D01*
Y178783D01*
X207719D01*
Y178821D01*
X207757D01*
Y178860D01*
D02*
G37*
G36*
X207297Y178477D02*
X207182D01*
Y178438D01*
X207144D01*
Y178400D01*
X207106D01*
Y178362D01*
X207067D01*
Y178285D01*
X207106D01*
Y178323D01*
X207144D01*
Y178362D01*
X207182D01*
Y178400D01*
X207221D01*
Y178438D01*
X207297D01*
Y178477D01*
D02*
G37*
G36*
X207067Y178285D02*
X207029D01*
Y178247D01*
X207067D01*
Y178285D01*
D02*
G37*
G36*
X206953Y178209D02*
X206914D01*
Y178132D01*
X206953D01*
Y178209D01*
D02*
G37*
G36*
X205497Y176753D02*
X205459D01*
Y176715D01*
X205420D01*
Y176676D01*
X205497D01*
Y176753D01*
D02*
G37*
G36*
X204999Y176179D02*
X204961D01*
Y176102D01*
X204999D01*
Y176179D01*
D02*
G37*
G36*
X204923Y176102D02*
X204884D01*
Y176064D01*
X204846D01*
Y175987D01*
X204884D01*
Y176025D01*
X204923D01*
Y176102D01*
D02*
G37*
G36*
X204463Y175451D02*
X204386D01*
Y175374D01*
X204463D01*
Y175451D01*
D02*
G37*
G36*
X203812Y174417D02*
X203735D01*
Y174378D01*
X203812D01*
Y174417D01*
D02*
G37*
G36*
X203237Y173421D02*
X203199D01*
Y173383D01*
X203237D01*
Y173421D01*
D02*
G37*
G36*
X203161Y173229D02*
X203122D01*
Y173191D01*
X203161D01*
Y173229D01*
D02*
G37*
G36*
X214651Y178515D02*
X214613D01*
Y178477D01*
X214575D01*
Y178438D01*
X214613D01*
Y178400D01*
X214651D01*
Y178438D01*
X214689D01*
Y178477D01*
X214651D01*
Y178515D01*
D02*
G37*
G36*
X214383Y178400D02*
X214345D01*
Y178362D01*
X214383D01*
Y178400D01*
D02*
G37*
G36*
X213923Y178285D02*
X213847D01*
Y178247D01*
Y178170D01*
X213885D01*
Y178209D01*
X213923D01*
Y178285D01*
D02*
G37*
G36*
X213732Y178209D02*
X213694D01*
Y178132D01*
X213732D01*
Y178170D01*
Y178209D01*
D02*
G37*
G36*
X213234Y177940D02*
X213196D01*
Y177902D01*
X213234D01*
Y177940D01*
D02*
G37*
G36*
X213196Y177902D02*
X213081D01*
Y177864D01*
X213196D01*
Y177902D01*
D02*
G37*
G36*
X213042Y177826D02*
X212889D01*
Y177787D01*
X213042D01*
Y177826D01*
D02*
G37*
G36*
X212851Y177749D02*
X212774D01*
Y177672D01*
X212813D01*
Y177711D01*
X212851D01*
Y177749D01*
D02*
G37*
G36*
X212660Y177634D02*
X212583D01*
Y177596D01*
X212660D01*
Y177634D01*
D02*
G37*
G36*
X212468Y177557D02*
X212391D01*
Y177519D01*
Y177481D01*
X212468D01*
Y177557D01*
D02*
G37*
G36*
X212276Y177481D02*
X212200D01*
Y177404D01*
X212276D01*
Y177481D01*
D02*
G37*
G36*
X212085Y177404D02*
X212047D01*
Y177366D01*
X212008D01*
Y177328D01*
X212047D01*
Y177289D01*
X212085D01*
Y177328D01*
X212123D01*
Y177366D01*
X212085D01*
Y177404D01*
D02*
G37*
G36*
X211932Y177289D02*
X211817D01*
Y177213D01*
X211932D01*
Y177289D01*
D02*
G37*
G36*
X211740Y177213D02*
X211664D01*
Y177174D01*
Y177136D01*
X211740D01*
Y177213D01*
D02*
G37*
G36*
X211242Y176906D02*
X211204D01*
Y176868D01*
X211242D01*
Y176906D01*
D02*
G37*
G36*
X211089Y176830D02*
X211013D01*
Y176791D01*
X210974D01*
Y176753D01*
X210936D01*
Y176715D01*
X210898D01*
Y176638D01*
X210974D01*
Y176676D01*
X211013D01*
Y176715D01*
X211051D01*
Y176753D01*
X211089D01*
Y176830D01*
D02*
G37*
G36*
X210898Y176638D02*
X210859D01*
Y176600D01*
X210821D01*
Y176562D01*
X210898D01*
Y176638D01*
D02*
G37*
G36*
X210744Y176562D02*
X210630D01*
Y176485D01*
X210591D01*
Y176447D01*
X210553D01*
Y176370D01*
X210630D01*
Y176447D01*
X210668D01*
Y176485D01*
X210744D01*
Y176562D01*
D02*
G37*
G36*
X210553Y176370D02*
X210361D01*
Y176294D01*
X210323D01*
Y176255D01*
X210285D01*
Y176217D01*
X210361D01*
Y176255D01*
X210400D01*
Y176294D01*
X210476D01*
Y176332D01*
X210553D01*
Y176370D01*
D02*
G37*
G36*
X210055Y176025D02*
X210017D01*
Y175987D01*
X209940D01*
Y175949D01*
X209902Y175910D01*
Y175872D01*
X209940D01*
Y175910D01*
X209978D01*
Y175949D01*
X210055D01*
Y176025D01*
D02*
G37*
G36*
X209519Y175642D02*
X209442D01*
Y175566D01*
X209366D01*
Y175489D01*
X209289D01*
Y175451D01*
X209251D01*
Y175374D01*
X209212D01*
Y175336D01*
X209174D01*
Y175298D01*
X209136D01*
Y175259D01*
X209097D01*
Y175221D01*
X209059D01*
Y175183D01*
X209021D01*
Y175145D01*
X208982D01*
Y175068D01*
X209059D01*
Y175145D01*
X209136D01*
Y175221D01*
X209212D01*
Y175259D01*
X209251D01*
Y175298D01*
X209289D01*
Y175336D01*
X209327D01*
Y175374D01*
X209366D01*
Y175413D01*
X209404D01*
Y175451D01*
X209442D01*
Y175489D01*
X209480D01*
Y175528D01*
X209519D01*
Y175642D01*
D02*
G37*
G36*
X208982Y175068D02*
X208944D01*
Y175030D01*
X208982D01*
Y175068D01*
D02*
G37*
G36*
X208944Y175030D02*
X208906D01*
Y174991D01*
X208868D01*
Y174953D01*
X208944D01*
Y175030D01*
D02*
G37*
G36*
X208063Y173957D02*
X207987D01*
Y173919D01*
X208063D01*
Y173957D01*
D02*
G37*
G36*
X207680Y173497D02*
X207604D01*
Y173459D01*
Y173421D01*
X207642D01*
Y173459D01*
X207680D01*
Y173497D01*
D02*
G37*
G36*
X207221Y172808D02*
X207182D01*
Y172770D01*
X207144D01*
Y172731D01*
X207221D01*
Y172808D01*
D02*
G37*
G36*
X206646Y171774D02*
X206608D01*
Y171736D01*
Y171697D01*
X206646D01*
Y171774D01*
D02*
G37*
G36*
X206455Y171314D02*
X206416D01*
Y171276D01*
X206455D01*
Y171314D01*
D02*
G37*
G36*
X206378Y171123D02*
X206301D01*
Y171084D01*
X206378D01*
Y171123D01*
D02*
G37*
G36*
X205459Y167063D02*
X205420D01*
Y167025D01*
X205459D01*
Y167063D01*
D02*
G37*
G36*
X294318Y165033D02*
X294280D01*
Y164995D01*
X294318D01*
Y165033D01*
D02*
G37*
G36*
X294165Y164956D02*
X294088D01*
Y164880D01*
X294127D01*
Y164918D01*
X294165D01*
Y164956D01*
D02*
G37*
G36*
X293973Y164880D02*
X293935D01*
Y164841D01*
X293897D01*
Y164803D01*
Y164765D01*
X293935D01*
Y164803D01*
X293973D01*
Y164880D01*
D02*
G37*
G36*
X293820Y164803D02*
X293744D01*
Y164726D01*
X293705D01*
Y164688D01*
X293552D01*
Y164612D01*
X293667D01*
Y164650D01*
X293744D01*
Y164688D01*
X293782D01*
Y164726D01*
X293858D01*
Y164765D01*
X293820D01*
Y164803D01*
D02*
G37*
G36*
X293552Y164612D02*
X293437D01*
Y164573D01*
X293399D01*
Y164535D01*
X293514D01*
Y164573D01*
X293552D01*
Y164612D01*
D02*
G37*
G36*
X293360Y164535D02*
X293284D01*
Y164497D01*
X293246D01*
Y164458D01*
X293360D01*
Y164535D01*
D02*
G37*
G36*
X293169Y164420D02*
X293054D01*
Y164382D01*
X293092D01*
Y164344D01*
X293169D01*
Y164382D01*
Y164420D01*
D02*
G37*
G36*
X292977Y164344D02*
X292901D01*
Y164267D01*
X292977D01*
Y164344D01*
D02*
G37*
G36*
X292786Y164267D02*
X292709D01*
Y164152D01*
X292786D01*
Y164190D01*
X292824D01*
Y164229D01*
X292786D01*
Y164267D01*
D02*
G37*
G36*
X292595Y164190D02*
X292556D01*
Y164152D01*
X292518D01*
Y164075D01*
X292633D01*
Y164152D01*
X292595D01*
Y164190D01*
D02*
G37*
G36*
X292441Y164075D02*
X292365D01*
Y164037D01*
X292326D01*
Y163999D01*
X292441D01*
Y164037D01*
Y164075D01*
D02*
G37*
G36*
X292250Y163960D02*
X292173D01*
Y163922D01*
X292250D01*
Y163960D01*
D02*
G37*
G36*
X291982Y163846D02*
X291905D01*
Y163807D01*
Y163769D01*
X291943D01*
Y163807D01*
X291982D01*
Y163846D01*
D02*
G37*
G36*
X291790Y163769D02*
X291714D01*
Y163692D01*
X291790D01*
Y163731D01*
Y163769D01*
D02*
G37*
G36*
X291599Y163692D02*
X291522D01*
Y163654D01*
X291484D01*
Y163577D01*
X291445D01*
Y163501D01*
X291484D01*
Y163539D01*
X291522D01*
Y163577D01*
X291560D01*
Y163616D01*
X291599D01*
Y163692D01*
D02*
G37*
G36*
X291331Y163501D02*
X291254D01*
Y163462D01*
Y163424D01*
X291331D01*
Y163501D01*
D02*
G37*
G36*
X291139Y163386D02*
X291062D01*
Y163348D01*
X291139D01*
Y163386D01*
D02*
G37*
G36*
X291024Y163309D02*
X290909D01*
Y163271D01*
X291024D01*
Y163309D01*
D02*
G37*
G36*
X290679Y163118D02*
X290603D01*
Y163080D01*
X290679D01*
Y163118D01*
D02*
G37*
G36*
X290488Y163041D02*
X290411D01*
Y163003D01*
X290488D01*
Y163041D01*
D02*
G37*
G36*
X290296Y162965D02*
X290258D01*
Y162926D01*
X290220D01*
Y162888D01*
X290296D01*
Y162965D01*
D02*
G37*
G36*
X290105Y162888D02*
X290067D01*
Y162850D01*
X290028D01*
Y162811D01*
X290143D01*
Y162850D01*
X290105D01*
Y162888D01*
D02*
G37*
G36*
X289952Y162773D02*
X289875D01*
Y162697D01*
X289952D01*
Y162773D01*
D02*
G37*
G36*
X289760Y162658D02*
X289684D01*
Y162620D01*
X289760D01*
Y162658D01*
D02*
G37*
G36*
X289109Y162390D02*
X289033D01*
Y162352D01*
Y162313D01*
X289109D01*
Y162390D01*
D02*
G37*
G36*
X288956Y162313D02*
X288841D01*
Y162275D01*
Y162237D01*
X288918D01*
Y162275D01*
X288956D01*
Y162313D01*
D02*
G37*
G36*
X288726Y162237D02*
X288688D01*
Y162199D01*
X288650D01*
Y162122D01*
X288726D01*
Y162160D01*
X288764D01*
Y162199D01*
X288726D01*
Y162237D01*
D02*
G37*
G36*
X288611Y162122D02*
X288496D01*
Y162084D01*
X288458D01*
Y162045D01*
X288343D01*
Y162007D01*
X288305D01*
Y161969D01*
X288266D01*
Y161931D01*
X288152D01*
Y161892D01*
X288305D01*
Y161931D01*
X288343D01*
Y161969D01*
X288420D01*
Y162007D01*
X288496D01*
Y162045D01*
X288573D01*
Y162084D01*
X288611D01*
Y162122D01*
D02*
G37*
G36*
X288113Y161854D02*
X287998D01*
Y161777D01*
X288075D01*
Y161816D01*
X288113D01*
Y161854D01*
D02*
G37*
G36*
X287922Y161777D02*
X287845D01*
Y161739D01*
X287807D01*
Y161701D01*
X287922D01*
Y161739D01*
Y161777D01*
D02*
G37*
G36*
X287730Y161701D02*
X287692D01*
Y161662D01*
X287654D01*
Y161624D01*
Y161586D01*
X287730D01*
Y161624D01*
X287769D01*
Y161662D01*
X287730D01*
Y161701D01*
D02*
G37*
G36*
X287577Y161586D02*
X287462D01*
Y161509D01*
X287577D01*
Y161586D01*
D02*
G37*
G36*
X287386Y161509D02*
X287309D01*
Y161471D01*
X287271D01*
Y161433D01*
X287309D01*
Y161394D01*
X287347D01*
Y161433D01*
X287386D01*
Y161509D01*
D02*
G37*
G36*
X287156Y161433D02*
X287117D01*
Y161394D01*
X287079D01*
Y161318D01*
X287194D01*
Y161394D01*
X287156D01*
Y161433D01*
D02*
G37*
G36*
X287002Y161318D02*
X286926D01*
Y161279D01*
Y161241D01*
X287002D01*
Y161318D01*
D02*
G37*
G36*
X286428Y161011D02*
X286390D01*
Y160973D01*
X286428D01*
Y161011D01*
D02*
G37*
G36*
X286275Y160935D02*
X286198D01*
Y160858D01*
X286237D01*
Y160896D01*
X286275D01*
Y160935D01*
D02*
G37*
G36*
X286083Y160820D02*
X286007D01*
Y160743D01*
X286045D01*
Y160781D01*
X286083D01*
Y160820D01*
D02*
G37*
G36*
X285930Y160743D02*
X285815D01*
Y160667D01*
X285892D01*
Y160705D01*
X285930D01*
Y160743D01*
D02*
G37*
G36*
X285738Y160667D02*
X285662D01*
Y160628D01*
X285624D01*
Y160590D01*
X285777D01*
Y160628D01*
X285738D01*
Y160667D01*
D02*
G37*
G36*
X285585Y160552D02*
X285509D01*
Y160513D01*
X285585D01*
Y160552D01*
D02*
G37*
G36*
X285432Y160475D02*
X285355D01*
Y160437D01*
X285432D01*
Y160475D01*
D02*
G37*
G36*
X285241Y160360D02*
X285164D01*
Y160322D01*
X285241D01*
Y160360D01*
D02*
G37*
G36*
X285087Y160284D02*
X285011D01*
Y160245D01*
X285087D01*
Y160284D01*
D02*
G37*
G36*
X284896Y160207D02*
X284819D01*
Y160169D01*
Y160130D01*
X284896D01*
Y160207D01*
D02*
G37*
G36*
X284666Y160130D02*
X284628D01*
Y160092D01*
Y160054D01*
X284704D01*
Y160092D01*
X284666D01*
Y160130D01*
D02*
G37*
G36*
X284513Y160015D02*
X284436D01*
Y159977D01*
Y159939D01*
X284513D01*
Y160015D01*
D02*
G37*
G36*
X284321Y159939D02*
X284283D01*
Y159900D01*
X284245D01*
Y159862D01*
X284321D01*
Y159939D01*
D02*
G37*
G36*
X298684Y159786D02*
X298646D01*
Y159747D01*
X294663D01*
Y159786D01*
X294548D01*
Y159709D01*
X298723D01*
Y159747D01*
X298684D01*
Y159786D01*
D02*
G37*
G36*
X283862Y159747D02*
X283823D01*
Y159671D01*
X283900D01*
Y159709D01*
X283862D01*
Y159747D01*
D02*
G37*
G36*
X283211Y165148D02*
X283172D01*
Y165071D01*
X283134D01*
Y159786D01*
X283096D01*
Y159747D01*
X279495D01*
Y159671D01*
X279572D01*
Y159709D01*
X283134D01*
Y159671D01*
X283172D01*
Y159709D01*
X283211D01*
Y164918D01*
X283249D01*
Y165110D01*
X283211D01*
Y165148D01*
D02*
G37*
G36*
X283440Y136652D02*
X283364D01*
Y136613D01*
X283326D01*
Y136383D01*
X283364D01*
Y136345D01*
X283402D01*
Y136268D01*
X283440D01*
Y136230D01*
X285049D01*
Y136268D01*
X285087D01*
Y136345D01*
X285126D01*
Y136422D01*
X285164D01*
Y136460D01*
X285126D01*
Y136537D01*
X285087D01*
Y136575D01*
X285049D01*
Y136613D01*
X283440D01*
Y136652D01*
D02*
G37*
G36*
X216260D02*
X216183D01*
Y136613D01*
X216145D01*
Y136383D01*
X216183D01*
Y136345D01*
X216221D01*
Y136268D01*
X216260D01*
Y136230D01*
X217868D01*
Y136268D01*
X217907D01*
Y136345D01*
X217945D01*
Y136383D01*
X217983D01*
Y136460D01*
X217945D01*
Y136537D01*
X217907D01*
Y136575D01*
X217868D01*
Y136613D01*
X216260D01*
Y136652D01*
D02*
G37*
G36*
X276010Y137609D02*
X275895D01*
Y137571D01*
X275857D01*
Y137609D01*
X274401D01*
Y137571D01*
X274363D01*
Y137609D01*
X274248D01*
Y137571D01*
X274210D01*
Y136345D01*
Y136307D01*
X274248D01*
Y136268D01*
X274286D01*
Y136230D01*
X276087D01*
Y136268D01*
X276125D01*
Y136307D01*
X276163D01*
Y137494D01*
X276125D01*
Y137532D01*
X276087D01*
Y137571D01*
X276010D01*
Y137609D01*
D02*
G37*
G36*
X257204D02*
X257051D01*
Y137571D01*
X257013D01*
Y137609D01*
X255863D01*
Y137571D01*
X255787D01*
Y137609D01*
X255672D01*
Y137571D01*
X255634D01*
Y137532D01*
X255595D01*
Y137494D01*
X255557D01*
Y137341D01*
X255595D01*
Y137303D01*
X255634D01*
Y137188D01*
X255672D01*
Y137150D01*
X257281D01*
Y137188D01*
X257319D01*
Y137494D01*
X257281D01*
Y137532D01*
X257242D01*
Y137571D01*
X257204D01*
Y137609D01*
D02*
G37*
G36*
X176579D02*
X176465D01*
Y137571D01*
X176426D01*
Y137609D01*
X175239D01*
Y137571D01*
X175201D01*
Y137609D01*
X175086D01*
Y137571D01*
X175048D01*
Y137456D01*
X174971D01*
Y137341D01*
X175009D01*
Y137264D01*
X175048D01*
Y137188D01*
X175086D01*
Y137150D01*
X176694D01*
Y137188D01*
X176733D01*
Y137494D01*
X176694D01*
Y137532D01*
X176656D01*
Y137571D01*
X176579D01*
Y137609D01*
D02*
G37*
G36*
X315690D02*
X314311D01*
Y137571D01*
X314273D01*
Y137609D01*
X314158D01*
Y137571D01*
X314120D01*
Y137532D01*
X314082D01*
Y137494D01*
X314043D01*
Y137456D01*
X314005D01*
Y137379D01*
X314043D01*
Y137341D01*
X314082D01*
Y137303D01*
X314120D01*
Y137188D01*
X314158D01*
Y137150D01*
X315805D01*
Y137188D01*
X315844D01*
Y137456D01*
X315805D01*
Y137532D01*
X315767D01*
Y137571D01*
X315690D01*
Y137609D01*
D02*
G37*
G36*
X302285D02*
X300561D01*
Y137571D01*
X300523D01*
Y137532D01*
X300485D01*
Y137494D01*
X300446D01*
Y137418D01*
X300408D01*
Y136345D01*
X300446D01*
Y136307D01*
X300485D01*
Y136268D01*
X300523D01*
Y136230D01*
X302323D01*
Y136268D01*
X302361D01*
Y136307D01*
X302400D01*
Y136345D01*
X302438D01*
Y137456D01*
X302400D01*
Y137494D01*
X302361D01*
Y137532D01*
X302323D01*
Y137571D01*
X302285D01*
Y137609D01*
D02*
G37*
G36*
X263141D02*
X263026D01*
Y137571D01*
X262987D01*
Y137609D01*
X261609D01*
Y137571D01*
X261532D01*
Y137494D01*
X261494D01*
Y137456D01*
X261455D01*
Y137341D01*
X261532D01*
Y137188D01*
X261570D01*
Y137150D01*
X263256D01*
Y137188D01*
X263294D01*
Y137456D01*
X263256D01*
Y137494D01*
X263217D01*
Y137532D01*
X263179D01*
Y137571D01*
X263141D01*
Y137609D01*
D02*
G37*
G36*
X248816D02*
X247322D01*
Y137571D01*
X247246D01*
Y137609D01*
X247131D01*
Y137571D01*
X247092D01*
Y137532D01*
X247054D01*
Y137494D01*
X247016D01*
Y136345D01*
X247054D01*
Y136307D01*
X247092D01*
Y136230D01*
X248931D01*
Y136268D01*
X248969D01*
Y136345D01*
X249008D01*
Y137073D01*
Y137111D01*
Y137456D01*
X248969D01*
Y137532D01*
X248931D01*
Y137571D01*
X248816D01*
Y137609D01*
D02*
G37*
G36*
X209787D02*
X208217D01*
Y137571D01*
X208178D01*
Y137609D01*
X208102D01*
Y137571D01*
X208063D01*
Y137532D01*
X208025D01*
Y137494D01*
X207987D01*
Y137456D01*
X207948D01*
Y136805D01*
Y136767D01*
Y136345D01*
X207987D01*
Y136307D01*
X208025D01*
Y136268D01*
X208063D01*
Y136230D01*
X209863D01*
Y136268D01*
X209902D01*
Y136307D01*
X209940D01*
Y136383D01*
X209978D01*
Y136460D01*
X209940D01*
Y137303D01*
X209978D01*
Y137418D01*
X209940D01*
Y137494D01*
X209902D01*
Y137532D01*
X209863D01*
Y137571D01*
X209787D01*
Y137609D01*
D02*
G37*
G36*
X172213D02*
X170834D01*
Y137571D01*
X170796D01*
Y137609D01*
X170681D01*
Y137571D01*
X170643D01*
Y137456D01*
X170605D01*
Y137418D01*
X170566D01*
Y137341D01*
X170605D01*
Y137303D01*
X170643D01*
Y137188D01*
X170681D01*
Y137150D01*
X172328D01*
Y137188D01*
X172366D01*
Y137456D01*
X172328D01*
Y137532D01*
X172290D01*
Y137571D01*
X172213D01*
Y137609D01*
D02*
G37*
G36*
X187266D02*
X187112D01*
Y137571D01*
X187074D01*
Y137609D01*
X185734D01*
Y137571D01*
X185657D01*
Y137609D01*
X185580D01*
Y137571D01*
X185542D01*
Y137532D01*
X185466D01*
Y137456D01*
X185427D01*
Y136652D01*
X185466D01*
Y136613D01*
X187266D01*
Y136652D01*
X187304D01*
Y136690D01*
X187342D01*
Y136728D01*
X187381D01*
Y136767D01*
X187419D01*
Y137456D01*
X187381D01*
Y137532D01*
X187304D01*
Y137571D01*
X187266D01*
Y137609D01*
D02*
G37*
G36*
X158808D02*
X157237D01*
Y137571D01*
X157199D01*
Y137609D01*
X157084D01*
Y137571D01*
X157046D01*
Y137532D01*
X157008D01*
Y137494D01*
X156969D01*
Y137418D01*
X156931D01*
Y137303D01*
X156969D01*
Y136843D01*
X156931D01*
Y136728D01*
X156969D01*
Y136652D01*
X157008D01*
Y136613D01*
X158808D01*
Y136652D01*
X158846D01*
Y136690D01*
X158884D01*
Y136728D01*
X158923D01*
Y136767D01*
X158961D01*
Y136920D01*
Y136958D01*
Y137456D01*
X158923D01*
Y137494D01*
X158884D01*
Y137532D01*
X158846D01*
Y137571D01*
X158808D01*
Y137609D01*
D02*
G37*
G36*
X279982Y351943D02*
X259797D01*
X257297Y351850D01*
X255168Y351480D01*
X253316Y351017D01*
X251927Y350461D01*
X250723Y349906D01*
X249983Y349443D01*
X249520Y349073D01*
X249334Y348980D01*
X248223Y347776D01*
X247390Y346573D01*
X246834Y345276D01*
X246372Y344165D01*
X246186Y343054D01*
X246094Y342221D01*
X246001Y341665D01*
Y341573D01*
Y341480D01*
X246094Y340369D01*
X246279Y339258D01*
X246557Y338332D01*
X246834Y337499D01*
X247205Y336758D01*
X247483Y336203D01*
X247668Y335832D01*
X247760Y335740D01*
X248409Y334814D01*
X249242Y333980D01*
X250075Y333332D01*
X250908Y332777D01*
X251649Y332406D01*
X252205Y332129D01*
X252575Y331943D01*
X252760Y331851D01*
X254057Y331481D01*
X255538Y331203D01*
X257019Y331017D01*
X258501Y330925D01*
X259797Y330832D01*
X260908Y330740D01*
X279982D01*
Y351943D01*
D02*
G37*
G36*
X215354D02*
X195169D01*
X192669Y351850D01*
X190540Y351480D01*
X188688Y351017D01*
X187299Y350461D01*
X186095Y349906D01*
X185355Y349443D01*
X184892Y349073D01*
X184707Y348980D01*
X183596Y347776D01*
X182762Y346573D01*
X182207Y345276D01*
X181744Y344165D01*
X181559Y343054D01*
X181466Y342221D01*
X181373Y341665D01*
Y341573D01*
Y341480D01*
X181466Y340369D01*
X181651Y339258D01*
X181929Y338332D01*
X182207Y337499D01*
X182577Y336758D01*
X182855Y336203D01*
X183040Y335832D01*
X183133Y335740D01*
X183781Y334814D01*
X184614Y333980D01*
X185447Y333332D01*
X186281Y332777D01*
X187021Y332406D01*
X187577Y332129D01*
X187947Y331943D01*
X188132Y331851D01*
X189429Y331481D01*
X190910Y331203D01*
X192392Y331017D01*
X193873Y330925D01*
X195169Y330832D01*
X196280Y330740D01*
X215354D01*
Y351943D01*
D02*
G37*
%LPD*%
D14*
X334501Y405998D02*
X335501Y406997D01*
X337500D01*
X338500Y405998D01*
Y401999D01*
X337500Y400999D01*
X335501D01*
X334501Y401999D01*
X332502Y404998D02*
Y401999D01*
X331502Y400999D01*
X328503D01*
Y404998D01*
X326504D02*
Y400999D01*
Y402999D01*
X325504Y403998D01*
X324504Y404998D01*
X323505D01*
X320506D02*
X318507Y400999D01*
X316507Y404998D01*
X311509Y400999D02*
X313508D01*
X314508Y401999D01*
Y403998D01*
X313508Y404998D01*
X311509D01*
X310509Y403998D01*
Y402999D01*
X314508D01*
X302512Y406997D02*
X298513D01*
X300512D01*
Y400999D01*
X296514Y404998D02*
Y400999D01*
Y402999D01*
X295514Y403998D01*
X294514Y404998D01*
X293515D01*
X289516D02*
X287516D01*
X286517Y403998D01*
Y400999D01*
X289516D01*
X290515Y401999D01*
X289516Y402999D01*
X286517D01*
X280519Y404998D02*
X283518D01*
X284518Y403998D01*
Y401999D01*
X283518Y400999D01*
X280519D01*
X275520D02*
X277520D01*
X278519Y401999D01*
Y403998D01*
X277520Y404998D01*
X275520D01*
X274521Y403998D01*
Y402999D01*
X278519D01*
X272521Y404998D02*
Y400999D01*
Y402999D01*
X271522Y403998D01*
X270522Y404998D01*
X269522D01*
X260525Y406997D02*
Y400999D01*
X257526D01*
X256526Y401999D01*
Y402999D01*
Y403998D01*
X257526Y404998D01*
X260525D01*
X254527D02*
Y401999D01*
X253527Y400999D01*
X250529D01*
Y400000D01*
X251528Y399000D01*
X252528D01*
X250529Y400999D02*
Y404998D01*
X242531Y400999D02*
Y406997D01*
X239532D01*
X238532Y405998D01*
Y403998D01*
X239532Y402999D01*
X242531D01*
X240532D02*
X238532Y400999D01*
X233534D02*
X235533D01*
X236533Y401999D01*
Y403998D01*
X235533Y404998D01*
X233534D01*
X232534Y403998D01*
Y402999D01*
X236533D01*
X229535Y405998D02*
Y404998D01*
X230535D01*
X228536D01*
X229535D01*
Y401999D01*
X228536Y400999D01*
X225536Y404998D02*
Y400999D01*
Y402999D01*
X224537Y403998D01*
X223537Y404998D01*
X222537D01*
X218539Y400999D02*
X216539D01*
X215540Y401999D01*
Y403998D01*
X216539Y404998D01*
X218539D01*
X219538Y403998D01*
Y401999D01*
X218539Y400999D01*
X207542D02*
Y406997D01*
X204543D01*
X203544Y405998D01*
Y403998D01*
X204543Y402999D01*
X207542D01*
X205543D02*
X203544Y400999D01*
X200545Y404998D02*
X198545D01*
X197546Y403998D01*
Y400999D01*
X200545D01*
X201544Y401999D01*
X200545Y402999D01*
X197546D01*
X195546Y400999D02*
Y404998D01*
X192547D01*
X191548Y403998D01*
Y400999D01*
X187549Y399000D02*
X186549D01*
X185549Y400000D01*
Y404998D01*
X188549D01*
X189548Y403998D01*
Y401999D01*
X188549Y400999D01*
X185549D01*
X180551D02*
X182550D01*
X183550Y401999D01*
Y403998D01*
X182550Y404998D01*
X180551D01*
X179551Y403998D01*
Y402999D01*
X183550D01*
X177552Y404998D02*
Y400999D01*
Y402999D01*
X176552Y403998D01*
X175553Y404998D01*
X174553D01*
X171554Y400999D02*
X168555D01*
X167555Y401999D01*
X168555Y402999D01*
X170554D01*
X171554Y403998D01*
X170554Y404998D01*
X167555D01*
M02*
