G04*
G04 #@! TF.GenerationSoftware,Altium Limited,Altium Designer,22.1.2 (22)*
G04*
G04 Layer_Color=0*
%FSLAX25Y25*%
%MOIN*%
G70*
G04*
G04 #@! TF.SameCoordinates,46FB2184-AB63-4EF3-BAF8-E11F062B861E*
G04*
G04*
G04 #@! TF.FilePolarity,Positive*
G04*
G01*
G75*
%ADD13C,0.00394*%
D13*
X201500Y194374D02*
Y198311D01*
X199531Y196343D02*
X203468D01*
X156500Y194532D02*
Y198468D01*
X154532Y196500D02*
X158468D01*
X167500Y194532D02*
Y198468D01*
X165532Y196500D02*
X169468D01*
X178500Y194532D02*
Y198468D01*
X176532Y196500D02*
X180468D01*
X190000Y194532D02*
Y198468D01*
X188031Y196500D02*
X191969D01*
X213000Y194532D02*
Y198468D01*
X211032Y196500D02*
X214968D01*
X225000Y194532D02*
Y198468D01*
X223031Y196500D02*
X226969D01*
X237000Y194532D02*
Y198468D01*
X235032Y196500D02*
X238968D01*
X248000Y194532D02*
Y198468D01*
X246031Y196500D02*
X249969D01*
X259000Y194532D02*
Y198468D01*
X257031Y196500D02*
X260968D01*
X269500Y194532D02*
Y198468D01*
X267531Y196500D02*
X271468D01*
X293500Y375532D02*
Y379468D01*
X291531Y377500D02*
X295468D01*
X234000Y290531D02*
Y294468D01*
X232031Y292500D02*
X235968D01*
X234000Y275532D02*
Y279468D01*
X232031Y277500D02*
X235968D01*
X234000Y260531D02*
Y264469D01*
X232031Y262500D02*
X235968D01*
X234000Y245532D02*
Y249468D01*
X232031Y247500D02*
X235968D01*
X188031Y254000D02*
X191969D01*
X190000Y252031D02*
Y255968D01*
X154532Y254000D02*
X158468D01*
X156500Y252031D02*
Y255968D01*
X144032Y254000D02*
X147968D01*
X146000Y252031D02*
Y255968D01*
X133531Y254000D02*
X137469D01*
X135500Y252031D02*
Y255968D01*
X165532Y254000D02*
X169468D01*
X167500Y252031D02*
Y255968D01*
X144032Y196500D02*
X147968D01*
X146000Y194532D02*
Y198468D01*
X133531Y196500D02*
X137469D01*
X135500Y194532D02*
Y198468D01*
X176532Y254000D02*
X180468D01*
X178500Y252031D02*
Y255968D01*
X273000Y376031D02*
Y379969D01*
X271031Y378000D02*
X274969D01*
X174079Y383965D02*
Y387902D01*
X172110Y385933D02*
X176047D01*
X239098Y386343D02*
X243035D01*
X241067Y384374D02*
Y388311D01*
X206598Y386343D02*
X210535D01*
X208567Y384374D02*
Y388311D01*
M02*
