G04*
G04 #@! TF.GenerationSoftware,Altium Limited,Altium Designer,22.1.2 (22)*
G04*
G04 Layer_Color=32768*
%FSLAX25Y25*%
%MOIN*%
G70*
G04*
G04 #@! TF.SameCoordinates,46FB2184-AB63-4EF3-BAF8-E11F062B861E*
G04*
G04*
G04 #@! TF.FilePolarity,Positive*
G04*
G01*
G75*
%ADD13C,0.00394*%
%ADD51C,0.00197*%
D13*
X276031Y334000D02*
X279969D01*
X278000Y332031D02*
Y335968D01*
X332531Y322500D02*
X336469D01*
X334500Y320532D02*
Y324468D01*
X297000Y266531D02*
Y270468D01*
X295031Y268500D02*
X298969D01*
X362587Y37547D02*
Y141878D01*
X287784Y37547D02*
X362587D01*
X287784D02*
Y141878D01*
X362587D01*
X282402Y37547D02*
Y141878D01*
X207598Y37547D02*
X282402D01*
X207598D02*
Y141878D01*
X282402D01*
X201902Y38047D02*
Y142378D01*
X127098Y38047D02*
X201902D01*
X127098D02*
Y142378D01*
X201902D01*
X229500Y332031D02*
Y335968D01*
X227532Y334000D02*
X231469D01*
X295031Y208500D02*
X298969D01*
X297000Y206532D02*
Y210469D01*
X332795Y348500D02*
X336732D01*
X334764Y346532D02*
Y350468D01*
X332531Y374000D02*
X336469D01*
X334500Y372031D02*
Y375969D01*
X181000Y332031D02*
Y335968D01*
X179032Y334000D02*
X182968D01*
X295031Y233000D02*
X298969D01*
X297000Y231031D02*
Y234968D01*
D51*
X313142Y268500D02*
G03*
X313142Y268500I-16142J0D01*
G01*
X299063Y314906D02*
Y353095D01*
X256937Y314906D02*
Y353095D01*
X299063D01*
X256937Y314906D02*
X299063D01*
X347886Y316850D02*
Y332146D01*
X321114D02*
X347886D01*
X321114Y316850D02*
Y332146D01*
Y316850D02*
X347886D01*
X320917Y275870D02*
X356646D01*
X320917D02*
Y297130D01*
X356646D01*
Y275870D02*
Y297130D01*
X321417Y246870D02*
X357146D01*
X321417D02*
Y268130D01*
X357146D01*
Y246870D02*
Y268130D01*
X321602Y216370D02*
X357331D01*
X321602D02*
Y237630D01*
X357331D01*
Y216370D02*
Y237630D01*
X208437Y314906D02*
X250563D01*
X208437Y353095D02*
X250563D01*
X208437Y314906D02*
Y353095D01*
X250563Y314906D02*
Y353095D01*
X281193Y214898D02*
X312807D01*
X281193Y202102D02*
X312807D01*
X281193D02*
Y214898D01*
X312807Y202102D02*
Y214898D01*
X348150Y342850D02*
Y358146D01*
X321378D02*
X348150D01*
X321378Y342850D02*
Y358146D01*
Y342850D02*
X348150D01*
X347886Y368350D02*
Y383646D01*
X321114D02*
X347886D01*
X321114Y368350D02*
Y383646D01*
Y368350D02*
X347886D01*
X159937Y314906D02*
X202063D01*
X159937Y353095D02*
X202063D01*
X159937Y314906D02*
Y353095D01*
X202063Y314906D02*
Y353095D01*
X281193Y226602D02*
X312807D01*
X281193Y239398D02*
X312807D01*
Y226602D02*
Y239398D01*
X281193Y226602D02*
Y239398D01*
M02*
