G04*
G04 #@! TF.GenerationSoftware,Altium Limited,Altium Designer,22.1.2 (22)*
G04*
G04 Layer_Color=65535*
%FSLAX25Y25*%
%MOIN*%
G70*
G04*
G04 #@! TF.SameCoordinates,46FB2184-AB63-4EF3-BAF8-E11F062B861E*
G04*
G04*
G04 #@! TF.FilePolarity,Positive*
G04*
G01*
G75*
%ADD10C,0.02362*%
%ADD11C,0.00984*%
%ADD12C,0.00787*%
%ADD13C,0.00394*%
%ADD14C,0.01000*%
D10*
X263039Y327504D02*
G03*
X263039Y327504I-1181J0D01*
G01*
X214539D02*
G03*
X214539Y327504I-1181J0D01*
G01*
X166039D02*
G03*
X166039Y327504I-1181J0D01*
G01*
D11*
X258374Y319000D02*
G03*
X258374Y319000I-492J0D01*
G01*
X319835Y322500D02*
G03*
X319835Y322500I-492J0D01*
G01*
X157346Y388000D02*
G03*
X157346Y388000I-492J0D01*
G01*
X209874Y319000D02*
G03*
X209874Y319000I-492J0D01*
G01*
X320098Y348500D02*
G03*
X320098Y348500I-492J0D01*
G01*
X319835Y374000D02*
G03*
X319835Y374000I-492J0D01*
G01*
X239295Y364787D02*
G03*
X239295Y364787I-492J0D01*
G01*
X161374Y319000D02*
G03*
X161374Y319000I-492J0D01*
G01*
X206795Y364787D02*
G03*
X206795Y364787I-492J0D01*
G01*
D12*
X257921Y331500D02*
G03*
X257921Y336500I0J2500D01*
G01*
X326323Y318171D02*
G03*
X326886Y317244I8177J4329D01*
G01*
X342114D02*
G03*
X342884Y318587I-7614J5256D01*
G01*
X342883Y326414D02*
G03*
X326324Y326831I-8383J-3914D01*
G01*
X296335Y367264D02*
G03*
X296335Y387736I-7001J10236D01*
G01*
X312748Y268500D02*
G03*
X312748Y268500I-15748J0D01*
G01*
X352512Y286500D02*
G03*
X352512Y286500I-197J0D01*
G01*
X353012Y257500D02*
G03*
X353012Y257500I-197J0D01*
G01*
X353197Y227000D02*
G03*
X353197Y227000I-197J0D01*
G01*
X275835Y367764D02*
G03*
X275835Y388236I-7001J10236D01*
G01*
X209421Y331500D02*
G03*
X209421Y336500I0J2500D01*
G01*
X326587Y344171D02*
G03*
X327150Y343244I8177J4329D01*
G01*
X342378D02*
G03*
X343148Y344587I-7614J5256D01*
G01*
X343147Y352414D02*
G03*
X326588Y352831I-8383J-3914D01*
G01*
X326323Y369671D02*
G03*
X326886Y368744I8177J4329D01*
G01*
X342114D02*
G03*
X342884Y370087I-7614J5256D01*
G01*
X342883Y377914D02*
G03*
X326324Y378331I-8383J-3914D01*
G01*
X160921Y331500D02*
G03*
X160921Y336500I0J2500D01*
G01*
X298079Y323567D02*
Y344433D01*
X257921Y336500D02*
Y344433D01*
Y323567D02*
Y331500D01*
Y344433D02*
X298079D01*
X257921Y323567D02*
X298079D01*
X198350Y190240D02*
Y203429D01*
X204650Y190240D02*
Y203429D01*
X153350Y190398D02*
Y203587D01*
X159650Y190398D02*
Y203587D01*
X170650Y189413D02*
Y202602D01*
X164350Y189413D02*
Y202602D01*
X175350Y190398D02*
Y203587D01*
X181650Y190398D02*
Y203587D01*
X186850Y190398D02*
Y203587D01*
X193150Y190398D02*
Y203587D01*
X216150Y189413D02*
Y202602D01*
X209850Y189413D02*
Y202602D01*
X228150Y189413D02*
Y202602D01*
X221850Y189413D02*
Y202602D01*
X240150Y189413D02*
Y202602D01*
X233850Y189413D02*
Y202602D01*
X251150Y189413D02*
Y202602D01*
X244850Y189413D02*
Y202602D01*
X262150Y189413D02*
Y202602D01*
X255850Y189413D02*
Y202602D01*
X272650Y189413D02*
Y202602D01*
X266350Y189413D02*
Y202602D01*
X326886Y317244D02*
X342114D01*
X285252Y367264D02*
Y387736D01*
Y367264D02*
X287673D01*
X285252Y387736D02*
X287673D01*
X274500Y268500D02*
X279500D01*
X277000Y266000D02*
Y271000D01*
X239118Y287461D02*
Y297539D01*
X217315Y292500D02*
X223764D01*
X244236D02*
X250685D01*
X244236Y287185D02*
Y297815D01*
X223764D02*
X244236D01*
X223764Y287185D02*
Y297815D01*
Y287185D02*
X244236D01*
X239118Y272461D02*
Y282539D01*
X217315Y277500D02*
X223764D01*
X244236D02*
X250685D01*
X244236Y272185D02*
Y282815D01*
X223764D02*
X244236D01*
X223764Y272185D02*
Y282815D01*
Y272185D02*
X244236D01*
X239118Y257461D02*
Y267539D01*
X217315Y262500D02*
X223764D01*
X244236D02*
X250685D01*
X244236Y257185D02*
Y267815D01*
X223764D02*
X244236D01*
X223764Y257185D02*
Y267815D01*
Y257185D02*
X244236D01*
X239118Y242461D02*
Y252539D01*
X217315Y247500D02*
X223764D01*
X244236D02*
X250685D01*
X244236Y242185D02*
Y252815D01*
X223764D02*
X244236D01*
X223764Y242185D02*
Y252815D01*
Y242185D02*
X244236D01*
X186850Y246913D02*
Y260102D01*
X193150Y246913D02*
Y260102D01*
X153350Y246913D02*
Y260102D01*
X159650Y246913D02*
Y260102D01*
X149150Y247898D02*
Y261087D01*
X142850Y247898D02*
Y261087D01*
X132350Y246913D02*
Y260102D01*
X138650Y246913D02*
Y260102D01*
X170650Y247898D02*
Y261087D01*
X164350Y247898D02*
Y261087D01*
X149150Y190398D02*
Y203587D01*
X142850Y190398D02*
Y203587D01*
X132350Y189413D02*
Y202602D01*
X138650Y189413D02*
Y202602D01*
X175350Y246913D02*
Y260102D01*
X181650Y246913D02*
Y260102D01*
X264752Y367764D02*
Y388236D01*
Y367764D02*
X267173D01*
X264752Y388236D02*
X267173D01*
X159512Y374614D02*
Y397252D01*
Y374614D02*
X188646D01*
Y397252D01*
X159512D02*
X188646D01*
X209421Y323567D02*
X249579D01*
X209421Y344433D02*
X249579D01*
X209421Y323567D02*
Y331500D01*
Y336500D02*
Y344433D01*
X249579Y323567D02*
Y344433D01*
X288496Y214504D02*
X305504D01*
X288496Y202496D02*
X305504D01*
X288496D02*
Y214504D01*
X305504Y202496D02*
Y214504D01*
X327150Y343244D02*
X342378D01*
X326886Y368744D02*
X342114D01*
X229748Y366854D02*
X252386D01*
Y405831D01*
X229748D02*
X252386D01*
X229748Y366854D02*
Y405831D01*
X160921Y323567D02*
X201079D01*
X160921Y344433D02*
X201079D01*
X160921Y323567D02*
Y331500D01*
Y336500D02*
Y344433D01*
X201079Y323567D02*
Y344433D01*
X288496Y226996D02*
X305504D01*
X288496Y239004D02*
X305504D01*
Y226996D02*
Y239004D01*
X288496Y226996D02*
Y239004D01*
X197248Y366854D02*
X219886D01*
Y405831D01*
X197248D02*
X219886D01*
X197248Y366854D02*
Y405831D01*
D13*
X358650Y100539D02*
Y137941D01*
X291721Y100539D02*
X358650D01*
X291721D02*
Y137941D01*
X358650D01*
X278465Y100539D02*
Y137941D01*
X211535Y100539D02*
X278465D01*
X211535D02*
Y137941D01*
X278465D01*
X197965Y101039D02*
Y138441D01*
X131035Y101039D02*
X197965D01*
X131035D02*
Y138441D01*
X197965D01*
D14*
X368001Y297000D02*
X362003D01*
Y299999D01*
X363002Y300999D01*
X365002D01*
X366001Y299999D01*
Y297000D01*
Y298999D02*
X368001Y300999D01*
Y305997D02*
Y303998D01*
X367001Y302998D01*
X365002D01*
X364002Y303998D01*
Y305997D01*
X365002Y306997D01*
X366001D01*
Y302998D01*
X363002Y309996D02*
X364002D01*
Y308996D01*
Y310996D01*
Y309996D01*
X367001D01*
X368001Y310996D01*
X364002Y313995D02*
X368001D01*
X366001D01*
X365002Y314994D01*
X364002Y315994D01*
Y316993D01*
X368001Y320992D02*
Y322992D01*
X367001Y323991D01*
X365002D01*
X364002Y322992D01*
Y320992D01*
X365002Y319993D01*
X367001D01*
X368001Y320992D01*
Y331989D02*
X362003D01*
Y334988D01*
X363002Y335987D01*
X365002D01*
X366001Y334988D01*
Y331989D01*
Y333988D02*
X368001Y335987D01*
X364002Y338986D02*
Y340986D01*
X365002Y341985D01*
X368001D01*
Y338986D01*
X367001Y337987D01*
X366001Y338986D01*
Y341985D01*
X368001Y343985D02*
X364002D01*
Y346984D01*
X365002Y347984D01*
X368001D01*
X370000Y351982D02*
Y352982D01*
X369000Y353982D01*
X364002D01*
Y350982D01*
X365002Y349983D01*
X367001D01*
X368001Y350982D01*
Y353982D01*
Y358980D02*
Y356981D01*
X367001Y355981D01*
X365002D01*
X364002Y356981D01*
Y358980D01*
X365002Y359980D01*
X366001D01*
Y355981D01*
X364002Y361979D02*
X368001D01*
X366001D01*
X365002Y362979D01*
X364002Y363978D01*
Y364978D01*
X368001Y367977D02*
Y370976D01*
X367001Y371976D01*
X366001Y370976D01*
Y368977D01*
X365002Y367977D01*
X364002Y368977D01*
Y371976D01*
X326299Y276198D02*
X325299Y277198D01*
X323300D01*
X322300Y276198D01*
Y272200D01*
X323300Y271200D01*
X325299D01*
X326299Y272200D01*
X332297Y277198D02*
X330297Y276198D01*
X328298Y274199D01*
Y272200D01*
X329298Y271200D01*
X331297D01*
X332297Y272200D01*
Y273199D01*
X331297Y274199D01*
X328298D01*
X326499Y245698D02*
X325499Y246698D01*
X323500D01*
X322500Y245698D01*
Y241700D01*
X323500Y240700D01*
X325499D01*
X326499Y241700D01*
X328498Y245698D02*
X329498Y246698D01*
X331497D01*
X332497Y245698D01*
Y244699D01*
X331497Y243699D01*
X330497D01*
X331497D01*
X332497Y242699D01*
Y241700D01*
X331497Y240700D01*
X329498D01*
X328498Y241700D01*
X325799Y305198D02*
X324799Y306198D01*
X322800D01*
X321800Y305198D01*
Y301200D01*
X322800Y300200D01*
X324799D01*
X325799Y301200D01*
X327798Y300200D02*
X329797D01*
X328798D01*
Y306198D01*
X327798Y305198D01*
X208400Y151098D02*
Y147099D01*
X210399Y145100D01*
X212399Y147099D01*
Y151098D01*
X214398Y145100D02*
Y151098D01*
X217397D01*
X218397Y150098D01*
Y148099D01*
X217397Y147099D01*
X214398D01*
X216397D02*
X218397Y145100D01*
X220396Y150098D02*
X221396Y151098D01*
X223395D01*
X224395Y150098D01*
Y149099D01*
X223395Y148099D01*
X222395D01*
X223395D01*
X224395Y147099D01*
Y146100D01*
X223395Y145100D01*
X221396D01*
X220396Y146100D01*
X127900Y151598D02*
Y147599D01*
X129899Y145600D01*
X131899Y147599D01*
Y151598D01*
X133898Y145600D02*
Y151598D01*
X136897D01*
X137897Y150598D01*
Y148599D01*
X136897Y147599D01*
X133898D01*
X135897D02*
X137897Y145600D01*
X143895D02*
X139896D01*
X143895Y149599D01*
Y150598D01*
X142895Y151598D01*
X140896D01*
X139896Y150598D01*
X288600Y151098D02*
Y147099D01*
X290599Y145100D01*
X292599Y147099D01*
Y151098D01*
X294598Y145100D02*
Y151098D01*
X297597D01*
X298597Y150098D01*
Y148099D01*
X297597Y147099D01*
X294598D01*
X296597D02*
X298597Y145100D01*
X300596D02*
X302595D01*
X301596D01*
Y151098D01*
X300596Y150098D01*
X160800Y362198D02*
Y357200D01*
X161800Y356200D01*
X163799D01*
X164799Y357200D01*
Y362198D01*
X166798Y361198D02*
X167798Y362198D01*
X169797D01*
X170797Y361198D01*
Y360199D01*
X169797Y359199D01*
X168797D01*
X169797D01*
X170797Y358199D01*
Y357200D01*
X169797Y356200D01*
X167798D01*
X166798Y357200D01*
X209300Y362198D02*
Y357200D01*
X210300Y356200D01*
X212299D01*
X213299Y357200D01*
Y362198D01*
X219297Y356200D02*
X215298D01*
X219297Y360199D01*
Y361198D01*
X218297Y362198D01*
X216298D01*
X215298Y361198D01*
X257800Y362198D02*
Y357200D01*
X258800Y356200D01*
X260799D01*
X261799Y357200D01*
Y362198D01*
X263798Y356200D02*
X265797D01*
X264798D01*
Y362198D01*
X263798Y361198D01*
X197500Y415598D02*
X201499D01*
X199499D01*
Y409600D01*
X203498D02*
Y415598D01*
X206497D01*
X207497Y414598D01*
Y412599D01*
X206497Y411599D01*
X203498D01*
X205497D02*
X207497Y409600D01*
X209496D02*
Y415598D01*
X213495Y409600D01*
Y415598D01*
X193499Y270845D02*
X187501D01*
Y273844D01*
X188501Y274844D01*
X190500D01*
X191500Y273844D01*
Y270845D01*
Y272844D02*
X193499Y274844D01*
Y280842D02*
Y276843D01*
X189500Y280842D01*
X188501D01*
X187501Y279842D01*
Y277842D01*
X188501Y276843D01*
X193499Y282841D02*
Y284840D01*
Y283841D01*
X187501D01*
X188501Y282841D01*
X181999Y271160D02*
X176001D01*
Y274159D01*
X177001Y275159D01*
X179000D01*
X180000Y274159D01*
Y271160D01*
Y273159D02*
X181999Y275159D01*
Y281157D02*
Y277158D01*
X178000Y281157D01*
X177001D01*
X176001Y280157D01*
Y278158D01*
X177001Y277158D01*
Y283156D02*
X176001Y284156D01*
Y286155D01*
X177001Y287155D01*
X180999D01*
X181999Y286155D01*
Y284156D01*
X180999Y283156D01*
X177001D01*
X170499Y271160D02*
X164501D01*
Y274159D01*
X165501Y275159D01*
X167500D01*
X168500Y274159D01*
Y271160D01*
Y273159D02*
X170499Y275159D01*
Y277158D02*
Y279157D01*
Y278158D01*
X164501D01*
X165501Y277158D01*
X169499Y282156D02*
X170499Y283156D01*
Y285155D01*
X169499Y286155D01*
X165501D01*
X164501Y285155D01*
Y283156D01*
X165501Y282156D01*
X166500D01*
X167500Y283156D01*
Y286155D01*
X159499Y271002D02*
X153501D01*
Y274002D01*
X154501Y275001D01*
X156500D01*
X157500Y274002D01*
Y271002D01*
Y273002D02*
X159499Y275001D01*
Y277000D02*
Y279000D01*
Y278000D01*
X153501D01*
X154501Y277000D01*
Y281999D02*
X153501Y282998D01*
Y284998D01*
X154501Y285998D01*
X155500D01*
X156500Y284998D01*
X157500Y285998D01*
X158499D01*
X159499Y284998D01*
Y282998D01*
X158499Y281999D01*
X157500D01*
X156500Y282998D01*
X155500Y281999D01*
X154501D01*
X156500Y282998D02*
Y284998D01*
X148999Y271002D02*
X143001D01*
Y274002D01*
X144001Y275001D01*
X146000D01*
X147000Y274002D01*
Y271002D01*
Y273002D02*
X148999Y275001D01*
Y277000D02*
Y279000D01*
Y278000D01*
X143001D01*
X144001Y277000D01*
X143001Y281999D02*
Y285998D01*
X144001D01*
X147999Y281999D01*
X148999D01*
X138499Y271160D02*
X132501D01*
Y274159D01*
X133501Y275159D01*
X135500D01*
X136500Y274159D01*
Y271160D01*
Y273159D02*
X138499Y275159D01*
Y277158D02*
Y279157D01*
Y278158D01*
X132501D01*
X133501Y277158D01*
X132501Y286155D02*
X133501Y284156D01*
X135500Y282156D01*
X137499D01*
X138499Y283156D01*
Y285155D01*
X137499Y286155D01*
X136500D01*
X135500Y285155D01*
Y282156D01*
X272499Y211502D02*
X266501D01*
Y214502D01*
X267501Y215501D01*
X269500D01*
X270500Y214502D01*
Y211502D01*
Y213502D02*
X272499Y215501D01*
Y217500D02*
Y219500D01*
Y218500D01*
X266501D01*
X267501Y217500D01*
X272499Y225498D02*
X266501D01*
X269500Y222499D01*
Y226498D01*
X261999Y211502D02*
X256001D01*
Y214502D01*
X257001Y215501D01*
X259000D01*
X260000Y214502D01*
Y211502D01*
Y213502D02*
X261999Y215501D01*
Y217500D02*
Y219500D01*
Y218500D01*
X256001D01*
X257001Y217500D01*
Y222499D02*
X256001Y223499D01*
Y225498D01*
X257001Y226498D01*
X258000D01*
X259000Y225498D01*
Y224498D01*
Y225498D01*
X260000Y226498D01*
X260999D01*
X261999Y225498D01*
Y223499D01*
X260999Y222499D01*
X250999Y211502D02*
X245001D01*
Y214502D01*
X246001Y215501D01*
X248000D01*
X249000Y214502D01*
Y211502D01*
Y213502D02*
X250999Y215501D01*
Y217500D02*
Y219500D01*
Y218500D01*
X245001D01*
X246001Y217500D01*
X250999Y226498D02*
Y222499D01*
X247000Y226498D01*
X246001D01*
X245001Y225498D01*
Y223499D01*
X246001Y222499D01*
X239999Y211502D02*
X234001D01*
Y214501D01*
X235001Y215501D01*
X237000D01*
X238000Y214501D01*
Y211502D01*
Y213502D02*
X239999Y215501D01*
Y217500D02*
Y219499D01*
Y218500D01*
X234001D01*
X235001Y217500D01*
X239999Y222498D02*
Y224498D01*
Y223498D01*
X234001D01*
X235001Y222498D01*
X227999Y211502D02*
X222001D01*
Y214502D01*
X223001Y215501D01*
X225000D01*
X226000Y214502D01*
Y211502D01*
Y213502D02*
X227999Y215501D01*
Y217500D02*
Y219500D01*
Y218500D01*
X222001D01*
X223001Y217500D01*
Y222499D02*
X222001Y223499D01*
Y225498D01*
X223001Y226498D01*
X226999D01*
X227999Y225498D01*
Y223499D01*
X226999Y222499D01*
X223001D01*
X216499Y211502D02*
X210501D01*
Y214501D01*
X211501Y215500D01*
X213500D01*
X214500Y214501D01*
Y211502D01*
Y213501D02*
X216499Y215500D01*
X215499Y217500D02*
X216499Y218499D01*
Y220499D01*
X215499Y221498D01*
X211501D01*
X210501Y220499D01*
Y218499D01*
X211501Y217500D01*
X212500D01*
X213500Y218499D01*
Y221498D01*
X204499Y212002D02*
X198501D01*
Y215001D01*
X199501Y216000D01*
X201500D01*
X202500Y215001D01*
Y212002D01*
Y214001D02*
X204499Y216000D01*
X199501Y218000D02*
X198501Y218999D01*
Y220999D01*
X199501Y221998D01*
X200500D01*
X201500Y220999D01*
X202500Y221998D01*
X203499D01*
X204499Y220999D01*
Y218999D01*
X203499Y218000D01*
X202500D01*
X201500Y218999D01*
X200500Y218000D01*
X199501D01*
X201500Y218999D02*
Y220999D01*
X192999Y212002D02*
X187001D01*
Y215001D01*
X188001Y216000D01*
X190000D01*
X191000Y215001D01*
Y212002D01*
Y214001D02*
X192999Y216000D01*
X187001Y218000D02*
Y221998D01*
X188001D01*
X191999Y218000D01*
X192999D01*
X181999Y212002D02*
X176001D01*
Y215001D01*
X177001Y216000D01*
X179000D01*
X180000Y215001D01*
Y212002D01*
Y214001D02*
X181999Y216000D01*
X176001Y221998D02*
X177001Y219999D01*
X179000Y218000D01*
X180999D01*
X181999Y218999D01*
Y220999D01*
X180999Y221998D01*
X180000D01*
X179000Y220999D01*
Y218000D01*
X170499Y212002D02*
X164501D01*
Y215001D01*
X165501Y216000D01*
X167500D01*
X168500Y215001D01*
Y212002D01*
Y214001D02*
X170499Y216000D01*
X164501Y221998D02*
Y218000D01*
X167500D01*
X166500Y219999D01*
Y220999D01*
X167500Y221998D01*
X169499D01*
X170499Y220999D01*
Y218999D01*
X169499Y218000D01*
X159499Y212002D02*
X153501D01*
Y215001D01*
X154501Y216000D01*
X156500D01*
X157500Y215001D01*
Y212002D01*
Y214001D02*
X159499Y216000D01*
Y220999D02*
X153501D01*
X156500Y218000D01*
Y221998D01*
X148999Y212002D02*
X143001D01*
Y215001D01*
X144001Y216000D01*
X146000D01*
X147000Y215001D01*
Y212002D01*
Y214001D02*
X148999Y216000D01*
X144001Y218000D02*
X143001Y218999D01*
Y220999D01*
X144001Y221998D01*
X145000D01*
X146000Y220999D01*
Y219999D01*
Y220999D01*
X147000Y221998D01*
X147999D01*
X148999Y220999D01*
Y218999D01*
X147999Y218000D01*
X138499Y212002D02*
X132501D01*
Y215001D01*
X133501Y216000D01*
X135500D01*
X136500Y215001D01*
Y212002D01*
Y214001D02*
X138499Y216000D01*
Y221998D02*
Y218000D01*
X134500Y221998D01*
X133501D01*
X132501Y220999D01*
Y218999D01*
X133501Y218000D01*
X268999Y395900D02*
Y399898D01*
X267999Y400898D01*
X266000D01*
X265000Y399898D01*
Y395900D01*
X266000Y394900D01*
X267999D01*
X266999Y396899D02*
X268999Y394900D01*
X267999D02*
X268999Y395900D01*
X274997Y400898D02*
X270998D01*
Y397899D01*
X272997Y398899D01*
X273997D01*
X274997Y397899D01*
Y395900D01*
X273997Y394900D01*
X271998D01*
X270998Y395900D01*
X289499Y395400D02*
Y399398D01*
X288499Y400398D01*
X286500D01*
X285500Y399398D01*
Y395400D01*
X286500Y394400D01*
X288499D01*
X287499Y396399D02*
X289499Y394400D01*
X288499D02*
X289499Y395400D01*
X294497Y394400D02*
Y400398D01*
X291498Y397399D01*
X295497D01*
X323399Y336200D02*
Y340198D01*
X322399Y341198D01*
X320400D01*
X319400Y340198D01*
Y336200D01*
X320400Y335200D01*
X322399D01*
X321399Y337199D02*
X323399Y335200D01*
X322399D02*
X323399Y336200D01*
X325398Y340198D02*
X326398Y341198D01*
X328397D01*
X329397Y340198D01*
Y339199D01*
X328397Y338199D01*
X327397D01*
X328397D01*
X329397Y337199D01*
Y336200D01*
X328397Y335200D01*
X326398D01*
X325398Y336200D01*
X323399Y387700D02*
Y391698D01*
X322399Y392698D01*
X320400D01*
X319400Y391698D01*
Y387700D01*
X320400Y386700D01*
X322399D01*
X321399Y388699D02*
X323399Y386700D01*
X322399D02*
X323399Y387700D01*
X329397Y386700D02*
X325398D01*
X329397Y390699D01*
Y391698D01*
X328397Y392698D01*
X326398D01*
X325398Y391698D01*
X323599Y362200D02*
Y366198D01*
X322599Y367198D01*
X320600D01*
X319600Y366198D01*
Y362200D01*
X320600Y361200D01*
X322599D01*
X321599Y363199D02*
X323599Y361200D01*
X322599D02*
X323599Y362200D01*
X325598Y361200D02*
X327597D01*
X326598D01*
Y367198D01*
X325598Y366198D01*
X156900Y401000D02*
Y406998D01*
X159899D01*
X160899Y405998D01*
Y403999D01*
X159899Y402999D01*
X156900D01*
X163898Y401000D02*
X165897D01*
X166897Y402000D01*
Y403999D01*
X165897Y404999D01*
X163898D01*
X162898Y403999D01*
Y402000D01*
X163898Y401000D01*
X168896Y404999D02*
Y402000D01*
X169896Y401000D01*
X170896Y402000D01*
X171895Y401000D01*
X172895Y402000D01*
Y404999D01*
X177893Y401000D02*
X175894D01*
X174894Y402000D01*
Y403999D01*
X175894Y404999D01*
X177893D01*
X178893Y403999D01*
Y402999D01*
X174894D01*
X180892Y404999D02*
Y401000D01*
Y402999D01*
X181892Y403999D01*
X182892Y404999D01*
X183891D01*
X232999Y415598D02*
X231000D01*
X230000Y414598D01*
Y410600D01*
X231000Y409600D01*
X232999D01*
X233999Y410600D01*
Y414598D01*
X232999Y415598D01*
X239997Y414598D02*
X238997Y415598D01*
X236998D01*
X235998Y414598D01*
Y413599D01*
X236998Y412599D01*
X238997D01*
X239997Y411599D01*
Y410600D01*
X238997Y409600D01*
X236998D01*
X235998Y410600D01*
X241996Y415598D02*
X243995D01*
X242996D01*
Y409600D01*
X241996D01*
X243995D01*
X262002Y295499D02*
Y289501D01*
X265001D01*
X266000Y290501D01*
Y294499D01*
X265001Y295499D01*
X262002D01*
X270999Y289501D02*
Y295499D01*
X268000Y292500D01*
X271998D01*
X262002Y279999D02*
Y274001D01*
X265001D01*
X266000Y275001D01*
Y278999D01*
X265001Y279999D01*
X262002D01*
X268000Y278999D02*
X268999Y279999D01*
X270999D01*
X271998Y278999D01*
Y278000D01*
X270999Y277000D01*
X269999D01*
X270999D01*
X271998Y276000D01*
Y275001D01*
X270999Y274001D01*
X268999D01*
X268000Y275001D01*
X262002Y265999D02*
Y260001D01*
X265001D01*
X266000Y261001D01*
Y264999D01*
X265001Y265999D01*
X262002D01*
X271998Y260001D02*
X268000D01*
X271998Y264000D01*
Y264999D01*
X270999Y265999D01*
X268999D01*
X268000Y264999D01*
X262501Y250999D02*
Y245001D01*
X265500D01*
X266500Y246001D01*
Y249999D01*
X265500Y250999D01*
X262501D01*
X268499Y245001D02*
X270499D01*
X269499D01*
Y250999D01*
X268499Y249999D01*
X286099Y247498D02*
X285099Y248498D01*
X283100D01*
X282100Y247498D01*
Y243500D01*
X283100Y242500D01*
X285099D01*
X286099Y243500D01*
X292097Y248498D02*
X288098D01*
Y245499D01*
X290097Y246499D01*
X291097D01*
X292097Y245499D01*
Y243500D01*
X291097Y242500D01*
X289098D01*
X288098Y243500D01*
X286099Y222998D02*
X285099Y223998D01*
X283100D01*
X282100Y222998D01*
Y219000D01*
X283100Y218000D01*
X285099D01*
X286099Y219000D01*
X291097Y218000D02*
Y223998D01*
X288098Y220999D01*
X292097D01*
X297111Y295999D02*
X296111Y296999D01*
X294111D01*
X293112Y295999D01*
Y292001D01*
X294111Y291001D01*
X296111D01*
X297111Y292001D01*
X303109Y291001D02*
X299110D01*
X303109Y295000D01*
Y295999D01*
X302109Y296999D01*
X300110D01*
X299110Y295999D01*
M02*
